<?xml version="1.0" encoding="UTF-8" standalone="no"?>
<!-- Created with Inkscape (http://www.inkscape.org/) -->

<svg
   xmlns:dc="http://purl.org/dc/elements/1.1/"
   xmlns:cc="http://creativecommons.org/ns#"
   xmlns:rdf="http://www.w3.org/1999/02/22-rdf-syntax-ns#"
   xmlns:svg="http://www.w3.org/2000/svg"
   xmlns="http://www.w3.org/2000/svg"
   xmlns:xlink="http://www.w3.org/1999/xlink"
   xmlns:sodipodi="http://sodipodi.sourceforge.net/DTD/sodipodi-0.dtd"
   xmlns:inkscape="http://www.inkscape.org/namespaces/inkscape"
   width="1024px"
   height="768px"
   id="svg1886"
   sodipodi:version="0.32"
   inkscape:version="0.48.4 r9939"
   sodipodi:docname="hu3_2.svg"
   inkscape:export-filename="/home/davidm/jobtalk/hu1.png"
   inkscape:export-xdpi="300.00000"
   inkscape:export-ydpi="300.00000"
   version="1.1">
  <defs
     id="defs1888">
    <linearGradient
       inkscape:collect="always"
       id="linearGradient2799">
      <stop
         style="stop-color:#800000;stop-opacity:1;"
         offset="0"
         id="stop2801" />
      <stop
         style="stop-color:#800000;stop-opacity:0;"
         offset="1"
         id="stop2803" />
    </linearGradient>
    <linearGradient
       inkscape:collect="always"
       xlink:href="#linearGradient2799"
       id="linearGradient2805"
       x1="-144.24979"
       y1="446.97351"
       x2="-144.00000"
       y2="275.85367"
       gradientUnits="userSpaceOnUse"
       gradientTransform="translate(141.4214,7.313710)" />
    <linearGradient
       inkscape:collect="always"
       xlink:href="#linearGradient2799"
       id="linearGradient2999"
       gradientUnits="userSpaceOnUse"
       gradientTransform="translate(141.4214,7.313710)"
       x1="-144.24979"
       y1="446.97351"
       x2="-144.00000"
       y2="275.85367" />
    <linearGradient
       inkscape:collect="always"
       xlink:href="#linearGradient2799"
       id="linearGradient3019"
       gradientUnits="userSpaceOnUse"
       gradientTransform="translate(141.4214,7.313710)"
       x1="-144.24979"
       y1="446.97351"
       x2="-144.00000"
       y2="275.85367" />
    <linearGradient
       inkscape:collect="always"
       xlink:href="#linearGradient2799"
       id="linearGradient3108"
       gradientUnits="userSpaceOnUse"
       gradientTransform="translate(141.4214,7.313710)"
       x1="-144.24979"
       y1="446.97351"
       x2="-144.00000"
       y2="275.85367" />
    <linearGradient
       inkscape:collect="always"
       xlink:href="#linearGradient2799"
       id="linearGradient3127"
       gradientUnits="userSpaceOnUse"
       gradientTransform="translate(141.4214,7.31371)"
       x1="-144.24979"
       y1="446.97351"
       x2="-144.00000"
       y2="275.85367" />
    <linearGradient
       inkscape:collect="always"
       xlink:href="#linearGradient2799"
       id="linearGradient119856"
       gradientUnits="userSpaceOnUse"
       gradientTransform="translate(141.4214,7.31371)"
       x1="-144.24979"
       y1="446.97351"
       x2="-144.00000"
       y2="275.85367" />
  </defs>
  <sodipodi:namedview
     id="base"
     pagecolor="#ffffff"
     bordercolor="#666666"
     borderopacity="1.0"
     inkscape:pageopacity="0.0"
     inkscape:pageshadow="2"
     inkscape:zoom="0.70710678"
     inkscape:cx="513.98531"
     inkscape:cy="386.86289"
     inkscape:current-layer="layer1"
     inkscape:document-units="px"
     showgrid="true"
     inkscape:window-width="978"
     inkscape:window-height="630"
     inkscape:window-x="144"
     inkscape:window-y="178"
     inkscape:window-maximized="0" />
  <metadata
     id="metadata1891">
    <rdf:RDF>
      <cc:Work
         rdf:about="">
        <dc:format>image/svg+xml</dc:format>
        <dc:type
           rdf:resource="http://purl.org/dc/dcmitype/StillImage" />
        <dc:title></dc:title>
      </cc:Work>
    </rdf:RDF>
  </metadata>
  <g
     id="layer1"
     inkscape:label="Layer 1"
     inkscape:groupmode="layer">
    <path
       inkscape:connector-curvature="0"
       id="path1392"
       d="m 55.572665,244.50214 408.175005,0"
       style="fill:none;stroke:#000000;stroke-width:3.125;stroke-miterlimit:4;stroke-dasharray:none" />
    <path
       inkscape:connector-curvature="0"
       id="path1394"
       d="m 55.572665,295.52314 408.175005,0"
       style="fill:none;stroke:#000000;stroke-width:3.125;stroke-miterlimit:4;stroke-dasharray:none" />
    <path
       inkscape:connector-curvature="0"
       id="path1396"
       d="m 55.572665,346.54614 408.175005,0"
       style="fill:none;stroke:#000000;stroke-width:3.125;stroke-miterlimit:4;stroke-dasharray:none" />
    <path
       inkscape:connector-curvature="0"
       id="path1398"
       d="m 55.572665,397.56814 408.175005,0"
       style="fill:none;stroke:#000000;stroke-width:3.125;stroke-miterlimit:4;stroke-dasharray:none" />
    <path
       inkscape:connector-curvature="0"
       id="path1400"
       d="m 55.572665,448.58914 408.175005,0"
       style="fill:none;stroke:#000000;stroke-width:3.125;stroke-miterlimit:4;stroke-dasharray:none" />
    <path
       inkscape:connector-curvature="0"
       id="path1402"
       d="m 571.46067,244.50214 408.171,0"
       style="fill:none;stroke:#000000;stroke-width:3.125;stroke-miterlimit:4;stroke-dasharray:none" />
    <path
       inkscape:connector-curvature="0"
       id="path1404"
       d="m 571.46067,295.52314 408.171,0"
       style="fill:none;stroke:#000000;stroke-width:3.125;stroke-miterlimit:4;stroke-dasharray:none" />
    <path
       inkscape:connector-curvature="0"
       id="path1406"
       d="m 571.46067,346.54614 408.171,0"
       style="fill:none;stroke:#000000;stroke-width:3.125;stroke-miterlimit:4;stroke-dasharray:none" />
    <path
       inkscape:connector-curvature="0"
       id="path1408"
       d="m 571.46067,397.56814 408.171,0"
       style="fill:none;stroke:#000000;stroke-width:3.125;stroke-miterlimit:4;stroke-dasharray:none" />
    <path
       inkscape:connector-curvature="0"
       id="path1410"
       d="m 571.46067,448.58914 408.171,0"
       style="fill:none;stroke:#000000;stroke-width:3.125;stroke-miterlimit:4;stroke-dasharray:none" />
    <path
       inkscape:connector-curvature="0"
       id="path1482"
       d="m 676.27267,389.11714 c 33.415,-25.088 74.07,-38.653 115.855,-38.653 32.844,0 65.144,8.383 93.844,24.358"
       style="fill:#ffffff;stroke:none" />
    <path
       inkscape:connector-curvature="0"
       id="path1486"
       d="m 219.97666,448.58914 c 0,9.393 -35.534,17.008 -79.36699,17.008 -43.833005,0 -79.367005,-7.613 -79.367005,-17.008 0,-9.392 35.534,-17.005 79.367005,-17.005 43.83299,0 79.36699,7.613 79.36699,17.005"
       style="fill:#ffffff;stroke:none" />
    <path
       inkscape:connector-curvature="0"
       id="path1488"
       d="m 219.97666,448.58914 c 0,9.393 -35.534,17.008 -79.36699,17.008 -43.833005,0 -79.367005,-7.613 -79.367005,-17.008 0,-9.392 35.534,-17.005 79.367005,-17.005 43.83299,0 79.36699,7.613 79.36699,17.005 z"
       style="fill:none;stroke:#000000;stroke-width:3.125;stroke-miterlimit:4;stroke-dasharray:none" />
    <path
       inkscape:connector-curvature="0"
       id="path1490"
       d="m 191.63166,397.56814 c 0,6.262 -22.843,11.338 -51.02199,11.338 -28.179,0 -51.022005,-5.076 -51.022005,-11.338 0,-6.262 22.843005,-11.338 51.022005,-11.338 28.17899,0 51.02199,5.076 51.02199,11.338"
       style="fill:#ffffff;stroke:none" />
    <path
       inkscape:connector-curvature="0"
       id="path1492"
       d="m 191.63166,397.56814 c 0,6.262 -22.843,11.338 -51.02199,11.338 -28.179,0 -51.022005,-5.076 -51.022005,-11.338 0,-6.262 22.843005,-11.338 51.022005,-11.338 28.17899,0 51.02199,5.076 51.02199,11.338 z"
       style="fill:none;stroke:#000000;stroke-width:3.125;stroke-miterlimit:4;stroke-dasharray:none" />
    <path
       inkscape:connector-curvature="0"
       id="path1494"
       d="m 166.12066,346.54614 c 0,6.262 -11.42199,11.338 -25.51099,11.338 -14.089,0 -25.511,-5.076 -25.511,-11.338 0,-6.261 11.422,-11.337 25.511,-11.337 14.089,0 25.51099,5.076 25.51099,11.337"
       style="fill:#ffffff;stroke:none" />
    <path
       inkscape:connector-curvature="0"
       id="path1496"
       d="m 166.12066,346.54614 c 0,6.262 -11.42199,11.338 -25.51099,11.338 -14.089,0 -25.511,-5.076 -25.511,-11.338 0,-6.261 11.422,-11.337 25.511,-11.337 14.089,0 25.51099,5.076 25.51099,11.337 z"
       style="fill:none;stroke:#000000;stroke-width:3.125;stroke-miterlimit:4;stroke-dasharray:none" />
    <path
       inkscape:connector-curvature="0"
       id="path1498"
       d="m 154.78167,295.52314 c 0,4.697 -6.345,8.504 -14.173,8.504 -7.827,0 -14.173,-3.807 -14.173,-8.504 0,-4.695 6.345,-8.504 14.173,-8.504 7.827,0 14.173,3.809 14.173,8.504"
       style="fill:#ffffff;stroke:none" />
    <path
       inkscape:connector-curvature="0"
       id="path1500"
       d="m 154.78167,295.52314 c 0,4.697 -6.345,8.504 -14.173,8.504 -7.827,0 -14.173,-3.807 -14.173,-8.504 0,-4.695 6.345,-8.504 14.173,-8.504 7.827,0 14.173,3.809 14.173,8.504 z"
       style="fill:none;stroke:#000000;stroke-width:3.125;stroke-miterlimit:4;stroke-dasharray:none" />
    <path
       inkscape:connector-curvature="0"
       id="path1502"
       d="m 398.55367,394.73414 c 0,4.695 -6.345,8.504 -14.173,8.504 -7.827,0 -14.173,-3.809 -14.173,-8.504 0,-4.697 6.345,-8.504 14.173,-8.504 7.827,0 14.173,3.807 14.173,8.504"
       style="fill:#ffffff;stroke:none" />
    <path
       inkscape:connector-curvature="0"
       id="path1504"
       d="m 398.55367,394.73414 c 0,4.695 -6.345,8.504 -14.173,8.504 -7.827,0 -14.173,-3.809 -14.173,-8.504 0,-4.697 6.345,-8.504 14.173,-8.504 7.827,0 14.173,3.807 14.173,8.504 z"
       style="fill:none;stroke:#000000;stroke-width:3.125;stroke-miterlimit:4;stroke-dasharray:none" />
    <path
       inkscape:connector-curvature="0"
       id="path1506"
       d="m 409.89167,448.58914 c 0,6.262 -11.422,11.338 -25.511,11.338 -14.089,0 -25.51101,-5.076 -25.51101,-11.338 0,-6.261 11.42201,-11.337 25.51101,-11.337 14.089,0 25.511,5.076 25.511,11.337"
       style="fill:#ffffff;stroke:none" />
    <path
       inkscape:connector-curvature="0"
       id="path1508"
       d="m 409.89167,448.58914 c 0,6.262 -11.422,11.338 -25.511,11.338 -14.089,0 -25.51101,-5.076 -25.51101,-11.338 0,-6.261 11.42201,-11.337 25.51101,-11.337 14.089,0 25.511,5.076 25.511,11.337 z"
       style="fill:none;stroke:#000000;stroke-width:3.125;stroke-miterlimit:4;stroke-dasharray:none" />
    <path
       inkscape:connector-curvature="0"
       id="path1510"
       d="m 670.67067,295.52314 c 0,4.697 -6.345,8.504 -14.173,8.504 -7.827,0 -14.173,-3.807 -14.173,-8.504 0,-4.695 6.345,-8.504 14.173,-8.504 7.827,0 14.173,3.809 14.173,8.504"
       style="fill:#ffffff;stroke:none" />
    <path
       inkscape:connector-curvature="0"
       id="path1512"
       d="m 670.67067,295.52314 c 0,4.697 -6.345,8.504 -14.173,8.504 -7.827,0 -14.173,-3.807 -14.173,-8.504 0,-4.695 6.345,-8.504 14.173,-8.504 7.827,0 14.173,3.809 14.173,8.504 z"
       style="fill:#800000;fill-opacity:1;stroke:#000000;stroke-width:3.125;stroke-miterlimit:4;stroke-opacity:1;stroke-dasharray:none" />
    <path
       inkscape:connector-curvature="0"
       id="path1514"
       d="m 670.67067,343.71114 c 0,4.695 -6.345,8.503 -14.173,8.503 -7.827,0 -14.173,-3.806 -14.173,-8.503 0,-4.696 6.345,-8.504 14.173,-8.504 7.827,0 14.173,3.806 14.173,8.504"
       style="fill:#ffffff;stroke:none" />
    <path
       inkscape:connector-curvature="0"
       id="path1516"
       d="m 670.67067,343.71114 c 0,4.695 -6.345,8.503 -14.173,8.503 -7.827,0 -14.173,-3.806 -14.173,-8.503 0,-4.696 6.345,-8.504 14.173,-8.504 7.827,0 14.173,3.806 14.173,8.504 z"
       style="fill:#800000;fill-opacity:1;stroke:#000000;stroke-width:3.125;stroke-miterlimit:4;stroke-opacity:1;stroke-dasharray:none" />
    <path
       inkscape:connector-curvature="0"
       id="path1518"
       d="m 670.67067,397.56814 c 0,4.695 -6.345,8.504 -14.173,8.504 -7.827,0 -14.173,-3.807 -14.173,-8.504 0,-4.695 6.345,-8.504 14.173,-8.504 7.827,0 14.173,3.807 14.173,8.504"
       style="fill:#ffffff;stroke:none" />
    <path
       inkscape:connector-curvature="0"
       id="path1520"
       d="m 670.67067,397.56814 c 0,4.695 -6.345,8.504 -14.173,8.504 -7.827,0 -14.173,-3.807 -14.173,-8.504 0,-4.695 6.345,-8.504 14.173,-8.504 7.827,0 14.173,3.807 14.173,8.504 z"
       style="fill:#800000;fill-opacity:1;stroke:#000000;stroke-width:3.125;stroke-miterlimit:4;stroke-opacity:1;stroke-dasharray:none" />
    <path
       inkscape:connector-curvature="0"
       id="path1522"
       d="m 670.67067,448.58914 c 0,4.698 -6.345,8.504 -14.173,8.504 -7.827,0 -14.173,-3.806 -14.173,-8.504 0,-4.695 6.345,-8.503 14.173,-8.503 7.827,0 14.173,3.806 14.173,8.503"
       style="fill:#ffffff;stroke:none" />
    <path
       inkscape:connector-curvature="0"
       id="path1524"
       d="m 670.67067,448.58914 c 0,4.698 -6.345,8.504 -14.173,8.504 -7.827,0 -14.173,-3.806 -14.173,-8.504 0,-4.695 6.345,-8.503 14.173,-8.503 7.827,0 14.173,3.806 14.173,8.503 z"
       style="fill:#800000;fill-opacity:1;stroke:#000000;stroke-width:3.125;stroke-miterlimit:4;stroke-opacity:1;stroke-dasharray:none" />
    <path
       inkscape:connector-curvature="0"
       id="path1534"
       d="m 894.60167,366.38814 -17.01,17.006"
       style="fill:#ffffff;stroke:none" />
    <path
       inkscape:connector-curvature="0"
       style="fill:url(#linearGradient119856);fill-opacity:1;stroke:#000000;stroke-width:3.125;stroke-miterlimit:4;stroke-opacity:1;stroke-dasharray:none"
       d="m -11.328644,244.96996 0,163.21875 -24.5625,0 16.65625,28.84375 16.6562503,28.84375 16.6562497,-28.84375 16.65625,-28.84375 -23.6562497,0 0,-163.21875 -18.4062503,0 z"
       id="rect2786" />
    <text
       xml:space="preserve"
       style="font-size:32px;font-style:normal;font-variant:normal;font-weight:normal;font-stretch:normal;text-align:start;line-height:125%;writing-mode:lr-tb;text-anchor:start;fill:#000000;fill-opacity:1;stroke:none;font-family:Arial"
       x="107.46875"
       y="507.90625"
       id="text2807"
       sodipodi:linespacing="125%"><tspan
         sodipodi:role="line"
         id="tspan2809"
         x="107.46875"
         y="507.90625">Early</tspan></text>
    <text
       xml:space="preserve"
       style="font-size:32px;font-style:normal;font-variant:normal;font-weight:normal;font-stretch:normal;text-align:start;line-height:125%;writing-mode:lr-tb;text-anchor:start;fill:#000000;fill-opacity:1;stroke:none;font-family:Arial"
       x="356.65625"
       y="508.90625"
       id="text2811"
       sodipodi:linespacing="125%"><tspan
         sodipodi:role="line"
         id="tspan2813"
         x="356.65625"
         y="508.90625">Late</tspan></text>
    <text
       xml:space="preserve"
       style="font-size:32px;font-style:normal;font-variant:normal;font-weight:normal;font-stretch:normal;text-align:start;line-height:125%;writing-mode:lr-tb;text-anchor:start;fill:#000000;fill-opacity:1;stroke:none;font-family:Arial"
       x="623.46875"
       y="506.26562"
       id="text2815"
       sodipodi:linespacing="125%"><tspan
         sodipodi:role="line"
         id="tspan2817"
         x="623.46875"
         y="506.26562">Early</tspan></text>
    <text
       xml:space="preserve"
       style="font-size:32px;font-style:normal;font-variant:normal;font-weight:normal;font-stretch:normal;text-align:start;line-height:125%;writing-mode:lr-tb;text-anchor:start;fill:#000000;fill-opacity:1;stroke:none;font-family:Arial"
       x="878.03125"
       y="506.625"
       id="text2819"
       sodipodi:linespacing="125%"><tspan
         sodipodi:role="line"
         id="tspan2821"
         x="878.03125"
         y="506.625">Late</tspan></text>
    <text
       xml:space="preserve"
       style="font-size:32px;font-style:normal;font-variant:normal;font-weight:normal;font-stretch:normal;text-align:start;line-height:125%;writing-mode:lr-tb;text-anchor:start;fill:#000000;fill-opacity:1;stroke:none;font-family:Arial"
       x="678.5"
       y="209.26562"
       id="text2823"
       sodipodi:linespacing="125%"><tspan
         sodipodi:role="line"
         id="tspan2825"
         x="678.5"
         y="209.26562">+ Hydroxyurea</tspan></text>
    <text
       xml:space="preserve"
       style="font-size:32px;font-style:normal;font-variant:normal;font-weight:normal;font-stretch:normal;text-align:start;line-height:125%;writing-mode:lr-tb;text-anchor:start;fill:#000000;fill-opacity:1;stroke:none;font-family:Arial"
       x="148.5"
       y="207.90625"
       id="text2827"
       sodipodi:linespacing="125%"><tspan
         sodipodi:role="line"
         id="tspan2829"
         x="148.5"
         y="207.90625">- Hydroxyurea</tspan></text>
    <text
       xml:space="preserve"
       style="font-size:32px;font-style:normal;font-variant:normal;font-weight:normal;font-stretch:normal;text-align:start;line-height:125%;writing-mode:lr-tb;text-anchor:start;fill:#000000;fill-opacity:1;stroke:none;font-family:Arial"
       x="-423.85535"
       y="-65.265717"
       id="text2831"
       sodipodi:linespacing="125%"
       transform="matrix(0,-1,1,0,0,0)"><tspan
         sodipodi:role="line"
         id="tspan2833"
         x="-423.85535"
         y="-65.265717">S - Phase</tspan></text>
    <text
       xml:space="preserve"
       style="font-size:48.000000px;font-style:normal;font-variant:normal;font-weight:bold;font-stretch:normal;text-align:start;line-height:125.00000%;writing-mode:lr-tb;text-anchor:start;fill:#800000;fill-opacity:1.0000000;stroke:#000000;stroke-width:1.5000000;stroke-linecap:butt;stroke-linejoin:miter;stroke-opacity:1.0000000;font-family:Arial;stroke-miterlimit:4.0000000;stroke-dasharray:none"
       x="709.00781"
       y="557.35938"
       id="text1363"
       sodipodi:linespacing="125.00000%"
       inkscape:export-filename="/home/davidm/jobtalk/hu3_1.png"
       inkscape:export-xdpi="300.00000"
       inkscape:export-ydpi="300.00000"><tspan
         sodipodi:role="line"
         id="tspan1365"
         x="709.00781"
         y="557.35938">+ BrdU</tspan></text>
    <path
       inkscape:connector-curvature="0"
       id="path1520-9"
       d="m 926.34075,397.47604 c 0,4.695 -6.345,8.504 -14.173,8.504 -7.827,0 -14.173,-3.807 -14.173,-8.504 0,-4.695 6.345,-8.504 14.173,-8.504 7.827,0 14.173,3.807 14.173,8.504 z"
       style="fill:#800000;fill-opacity:1;stroke:#000000;stroke-width:3.125;stroke-miterlimit:4;stroke-opacity:1;stroke-dasharray:none" />
    <path
       inkscape:connector-curvature="0"
       id="path1520-2"
       d="m 925.75497,445.55931 c 0,4.695 -6.345,8.504 -14.173,8.504 -7.827,0 -14.173,-3.807 -14.173,-8.504 0,-4.695 6.345,-8.504 14.173,-8.504 7.827,0 14.173,3.807 14.173,8.504 z"
       style="fill:#800000;fill-opacity:1;stroke:#000000;stroke-width:3.125;stroke-miterlimit:4;stroke-opacity:1;stroke-dasharray:none" />
  </g>
</svg>
