<?xml version="1.0" encoding="UTF-8" standalone="no"?>
<!-- Created with Inkscape (http://www.inkscape.org/) -->
<svg
   xmlns:dc="http://purl.org/dc/elements/1.1/"
   xmlns:cc="http://web.resource.org/cc/"
   xmlns:rdf="http://www.w3.org/1999/02/22-rdf-syntax-ns#"
   xmlns:svg="http://www.w3.org/2000/svg"
   xmlns="http://www.w3.org/2000/svg"
   xmlns:xlink="http://www.w3.org/1999/xlink"
   xmlns:sodipodi="http://inkscape.sourceforge.net/DTD/sodipodi-0.dtd"
   xmlns:inkscape="http://www.inkscape.org/namespaces/inkscape"
   width="1024px"
   height="768px"
   id="svg1886"
   sodipodi:version="0.32"
   inkscape:version="0.42"
   sodipodi:docbase="/home/davidm/jobtalk"
   sodipodi:docname="hu3_1.svg"
   inkscape:export-filename="/home/davidm/jobtalk/hu1.png"
   inkscape:export-xdpi="300.00000"
   inkscape:export-ydpi="300.00000">
  <defs
     id="defs1888">
    <linearGradient
       inkscape:collect="always"
       id="linearGradient2799">
      <stop
         style="stop-color:#800000;stop-opacity:1;"
         offset="0"
         id="stop2801" />
      <stop
         style="stop-color:#800000;stop-opacity:0;"
         offset="1"
         id="stop2803" />
    </linearGradient>
    <linearGradient
       inkscape:collect="always"
       xlink:href="#linearGradient2799"
       id="linearGradient2805"
       x1="-144.24979"
       y1="446.97351"
       x2="-144.00000"
       y2="275.85367"
       gradientUnits="userSpaceOnUse"
       gradientTransform="translate(141.4214,7.313710)" />
    <linearGradient
       inkscape:collect="always"
       xlink:href="#linearGradient2799"
       id="linearGradient2999"
       gradientUnits="userSpaceOnUse"
       gradientTransform="translate(141.4214,7.313710)"
       x1="-144.24979"
       y1="446.97351"
       x2="-144.00000"
       y2="275.85367" />
    <linearGradient
       inkscape:collect="always"
       xlink:href="#linearGradient2799"
       id="linearGradient3019"
       gradientUnits="userSpaceOnUse"
       gradientTransform="translate(141.4214,7.313710)"
       x1="-144.24979"
       y1="446.97351"
       x2="-144.00000"
       y2="275.85367" />
    <linearGradient
       inkscape:collect="always"
       xlink:href="#linearGradient2799"
       id="linearGradient3108"
       gradientUnits="userSpaceOnUse"
       gradientTransform="translate(141.4214,7.313710)"
       x1="-144.24979"
       y1="446.97351"
       x2="-144.00000"
       y2="275.85367" />
    <linearGradient
       inkscape:collect="always"
       xlink:href="#linearGradient2799"
       id="linearGradient3127"
       gradientUnits="userSpaceOnUse"
       gradientTransform="translate(141.4214,7.313710)"
       x1="-144.24979"
       y1="446.97351"
       x2="-144.00000"
       y2="275.85367" />
  </defs>
  <sodipodi:namedview
     id="base"
     pagecolor="#ffffff"
     bordercolor="#666666"
     borderopacity="1.0"
     inkscape:pageopacity="0.0"
     inkscape:pageshadow="2"
     inkscape:zoom="0.70710678"
     inkscape:cx="513.98531"
     inkscape:cy="386.86289"
     inkscape:current-layer="layer1"
     inkscape:document-units="px"
     showgrid="true"
     inkscape:window-width="978"
     inkscape:window-height="630"
     inkscape:window-x="144"
     inkscape:window-y="178" />
  <metadata
     id="metadata1891">
    <rdf:RDF>
      <cc:Work
         rdf:about="">
        <dc:format>image/svg+xml</dc:format>
        <dc:type
           rdf:resource="http://purl.org/dc/dcmitype/StillImage" />
      </cc:Work>
    </rdf:RDF>
  </metadata>
  <g
     id="layer1"
     inkscape:label="Layer 1"
     inkscape:groupmode="layer">
    <g
       id="g3163"
       inkscape:export-filename="/home/davidm/jobtalk/hu3_1.png"
       inkscape:export-xdpi="300.00000"
       inkscape:export-ydpi="300.00000">
      <path
         style="fill:none;stroke:#000000;stroke-width:3.1250000;stroke-miterlimit:4.0000000;stroke-dasharray:none"
         d="M 55.572665,244.50214 L 463.74767,244.50214"
         id="path1392" />
      <path
         style="fill:none;stroke:#000000;stroke-width:3.1250000;stroke-miterlimit:4.0000000;stroke-dasharray:none"
         d="M 55.572665,295.52314 L 463.74767,295.52314"
         id="path1394" />
      <path
         style="fill:none;stroke:#000000;stroke-width:3.1250000;stroke-miterlimit:4.0000000;stroke-dasharray:none"
         d="M 55.572665,346.54614 L 463.74767,346.54614"
         id="path1396" />
      <path
         style="fill:none;stroke:#000000;stroke-width:3.1250000;stroke-miterlimit:4.0000000;stroke-dasharray:none"
         d="M 55.572665,397.56814 L 463.74767,397.56814"
         id="path1398" />
      <path
         style="fill:none;stroke:#000000;stroke-width:3.1250000;stroke-miterlimit:4.0000000;stroke-dasharray:none"
         d="M 55.572665,448.58914 L 463.74767,448.58914"
         id="path1400" />
      <path
         style="fill:none;stroke:#000000;stroke-width:3.1250000;stroke-miterlimit:4.0000000;stroke-dasharray:none"
         d="M 571.46067,244.50214 L 979.63167,244.50214"
         id="path1402" />
      <path
         style="fill:none;stroke:#000000;stroke-width:3.1250000;stroke-miterlimit:4.0000000;stroke-dasharray:none"
         d="M 571.46067,295.52314 L 979.63167,295.52314"
         id="path1404" />
      <path
         style="fill:none;stroke:#000000;stroke-width:3.1250000;stroke-miterlimit:4.0000000;stroke-dasharray:none"
         d="M 571.46067,346.54614 L 979.63167,346.54614"
         id="path1406" />
      <path
         style="fill:none;stroke:#000000;stroke-width:3.1250000;stroke-miterlimit:4.0000000;stroke-dasharray:none"
         d="M 571.46067,397.56814 L 979.63167,397.56814"
         id="path1408" />
      <path
         style="fill:none;stroke:#000000;stroke-width:3.1250000;stroke-miterlimit:4.0000000;stroke-dasharray:none"
         d="M 571.46067,448.58914 L 979.63167,448.58914"
         id="path1410" />
      <path
         style="fill:#ffffff;stroke:none;stroke-width:3.1250000;stroke-miterlimit:4.0000000;stroke-dasharray:none"
         d="M 676.27267,389.11714 C 709.68767,364.02914 750.34267,350.46414 792.12767,350.46414 C 824.97167,350.46414 857.27167,358.84714 885.97167,374.82214"
         id="path1482" />
      <path
         style="fill:none;stroke:#000000;stroke-width:3.1250000;stroke-miterlimit:4.0000000;stroke-dasharray:none"
         d="M 676.27267,389.11714 C 709.68767,364.02914 750.34267,350.46414 792.12767,350.46414 C 824.97167,350.46414 857.27167,358.84714 885.97167,374.82214"
         id="path1484" />
      <path
         style="fill:#ffffff;stroke:none;stroke-width:3.1250000;stroke-miterlimit:4.0000000;stroke-dasharray:none"
         d="M 219.97666,448.58914 C 219.97666,457.98214 184.44266,465.59714 140.60967,465.59714 C 96.776665,465.59714 61.242665,457.98414 61.242665,448.58914 C 61.242665,439.19714 96.776665,431.58414 140.60967,431.58414 C 184.44266,431.58414 219.97666,439.19714 219.97666,448.58914"
         id="path1486" />
      <path
         style="fill:none;stroke:#000000;stroke-width:3.1250000;stroke-miterlimit:4.0000000;stroke-dasharray:none"
         d="M 219.97666,448.58914 C 219.97666,457.98214 184.44266,465.59714 140.60967,465.59714 C 96.776665,465.59714 61.242665,457.98414 61.242665,448.58914 C 61.242665,439.19714 96.776665,431.58414 140.60967,431.58414 C 184.44266,431.58414 219.97666,439.19714 219.97666,448.58914 z "
         id="path1488" />
      <path
         style="fill:#ffffff;stroke:none;stroke-width:3.1250000;stroke-miterlimit:4.0000000;stroke-dasharray:none"
         d="M 191.63166,397.56814 C 191.63166,403.83014 168.78866,408.90614 140.60967,408.90614 C 112.43067,408.90614 89.587665,403.83014 89.587665,397.56814 C 89.587665,391.30614 112.43067,386.23014 140.60967,386.23014 C 168.78866,386.23014 191.63166,391.30614 191.63166,397.56814"
         id="path1490" />
      <path
         style="fill:none;stroke:#000000;stroke-width:3.1250000;stroke-miterlimit:4.0000000;stroke-dasharray:none"
         d="M 191.63166,397.56814 C 191.63166,403.83014 168.78866,408.90614 140.60967,408.90614 C 112.43067,408.90614 89.587665,403.83014 89.587665,397.56814 C 89.587665,391.30614 112.43067,386.23014 140.60967,386.23014 C 168.78866,386.23014 191.63166,391.30614 191.63166,397.56814 z "
         id="path1492" />
      <path
         style="fill:#ffffff;stroke:none;stroke-width:3.1250000;stroke-miterlimit:4.0000000;stroke-dasharray:none"
         d="M 166.12066,346.54614 C 166.12066,352.80814 154.69867,357.88414 140.60967,357.88414 C 126.52067,357.88414 115.09867,352.80814 115.09867,346.54614 C 115.09867,340.28514 126.52067,335.20914 140.60967,335.20914 C 154.69867,335.20914 166.12066,340.28514 166.12066,346.54614"
         id="path1494" />
      <path
         style="fill:none;stroke:#000000;stroke-width:3.1250000;stroke-miterlimit:4.0000000;stroke-dasharray:none"
         d="M 166.12066,346.54614 C 166.12066,352.80814 154.69867,357.88414 140.60967,357.88414 C 126.52067,357.88414 115.09867,352.80814 115.09867,346.54614 C 115.09867,340.28514 126.52067,335.20914 140.60967,335.20914 C 154.69867,335.20914 166.12066,340.28514 166.12066,346.54614 z "
         id="path1496" />
      <path
         style="fill:#ffffff;stroke:none;stroke-width:3.1250000;stroke-miterlimit:4.0000000;stroke-dasharray:none"
         d="M 154.78167,295.52314 C 154.78167,300.22014 148.43667,304.02714 140.60867,304.02714 C 132.78167,304.02714 126.43567,300.22014 126.43567,295.52314 C 126.43567,290.82814 132.78067,287.01914 140.60867,287.01914 C 148.43567,287.01914 154.78167,290.82814 154.78167,295.52314"
         id="path1498" />
      <path
         style="fill:none;stroke:#000000;stroke-width:3.1250000;stroke-miterlimit:4.0000000;stroke-dasharray:none"
         d="M 154.78167,295.52314 C 154.78167,300.22014 148.43667,304.02714 140.60867,304.02714 C 132.78167,304.02714 126.43567,300.22014 126.43567,295.52314 C 126.43567,290.82814 132.78067,287.01914 140.60867,287.01914 C 148.43567,287.01914 154.78167,290.82814 154.78167,295.52314 z "
         id="path1500" />
      <path
         style="fill:#ffffff;stroke:none;stroke-width:3.1250000;stroke-miterlimit:4.0000000;stroke-dasharray:none"
         d="M 398.55367,394.73414 C 398.55367,399.42914 392.20867,403.23814 384.38067,403.23814 C 376.55367,403.23814 370.20767,399.42914 370.20767,394.73414 C 370.20767,390.03714 376.55267,386.23014 384.38067,386.23014 C 392.20767,386.23014 398.55367,390.03714 398.55367,394.73414"
         id="path1502" />
      <path
         style="fill:none;stroke:#000000;stroke-width:3.1250000;stroke-miterlimit:4.0000000;stroke-dasharray:none"
         d="M 398.55367,394.73414 C 398.55367,399.42914 392.20867,403.23814 384.38067,403.23814 C 376.55367,403.23814 370.20767,399.42914 370.20767,394.73414 C 370.20767,390.03714 376.55267,386.23014 384.38067,386.23014 C 392.20767,386.23014 398.55367,390.03714 398.55367,394.73414 z "
         id="path1504" />
      <path
         style="fill:#ffffff;stroke:none;stroke-width:3.1250000;stroke-miterlimit:4.0000000;stroke-dasharray:none"
         d="M 409.89167,448.58914 C 409.89167,454.85114 398.46967,459.92714 384.38067,459.92714 C 370.29167,459.92714 358.86966,454.85114 358.86966,448.58914 C 358.86966,442.32814 370.29167,437.25214 384.38067,437.25214 C 398.46967,437.25214 409.89167,442.32814 409.89167,448.58914"
         id="path1506" />
      <path
         style="fill:none;stroke:#000000;stroke-width:3.1250000;stroke-miterlimit:4.0000000;stroke-dasharray:none"
         d="M 409.89167,448.58914 C 409.89167,454.85114 398.46967,459.92714 384.38067,459.92714 C 370.29167,459.92714 358.86966,454.85114 358.86966,448.58914 C 358.86966,442.32814 370.29167,437.25214 384.38067,437.25214 C 398.46967,437.25214 409.89167,442.32814 409.89167,448.58914 z "
         id="path1508" />
      <path
         style="fill:#ffffff;stroke:none;stroke-width:3.1250000;stroke-miterlimit:4.0000000;stroke-dasharray:none"
         d="M 670.67067,295.52314 C 670.67067,300.22014 664.32567,304.02714 656.49767,304.02714 C 648.67067,304.02714 642.32467,300.22014 642.32467,295.52314 C 642.32467,290.82814 648.66967,287.01914 656.49767,287.01914 C 664.32467,287.01914 670.67067,290.82814 670.67067,295.52314"
         id="path1510" />
      <path
         style="fill:#800000;stroke:#000000;stroke-width:3.1250000;stroke-miterlimit:4.0000000;stroke-dasharray:none;stroke-opacity:1.0000000;fill-opacity:1.0000000"
         d="M 670.67067,295.52314 C 670.67067,300.22014 664.32567,304.02714 656.49767,304.02714 C 648.67067,304.02714 642.32467,300.22014 642.32467,295.52314 C 642.32467,290.82814 648.66967,287.01914 656.49767,287.01914 C 664.32467,287.01914 670.67067,290.82814 670.67067,295.52314 z "
         id="path1512" />
      <path
         style="fill:#ffffff;stroke:none;stroke-width:3.1250000;stroke-miterlimit:4.0000000;stroke-dasharray:none"
         d="M 670.67067,343.71114 C 670.67067,348.40614 664.32567,352.21414 656.49767,352.21414 C 648.67067,352.21414 642.32467,348.40814 642.32467,343.71114 C 642.32467,339.01514 648.66967,335.20714 656.49767,335.20714 C 664.32467,335.20714 670.67067,339.01314 670.67067,343.71114"
         id="path1514" />
      <path
         style="fill:#800000;stroke:#000000;stroke-width:3.1250000;stroke-miterlimit:4.0000000;stroke-dasharray:none;stroke-opacity:1.0000000;fill-opacity:1.0000000"
         d="M 670.67067,343.71114 C 670.67067,348.40614 664.32567,352.21414 656.49767,352.21414 C 648.67067,352.21414 642.32467,348.40814 642.32467,343.71114 C 642.32467,339.01514 648.66967,335.20714 656.49767,335.20714 C 664.32467,335.20714 670.67067,339.01314 670.67067,343.71114 z "
         id="path1516" />
      <path
         style="fill:#ffffff;stroke:none;stroke-width:3.1250000;stroke-miterlimit:4.0000000;stroke-dasharray:none"
         d="M 670.67067,397.56814 C 670.67067,402.26314 664.32567,406.07214 656.49767,406.07214 C 648.67067,406.07214 642.32467,402.26514 642.32467,397.56814 C 642.32467,392.87314 648.66967,389.06414 656.49767,389.06414 C 664.32467,389.06414 670.67067,392.87114 670.67067,397.56814"
         id="path1518" />
      <path
         style="fill:#800000;stroke:#000000;stroke-width:3.1250000;stroke-miterlimit:4.0000000;stroke-dasharray:none;stroke-opacity:1.0000000;fill-opacity:1.0000000"
         d="M 670.67067,397.56814 C 670.67067,402.26314 664.32567,406.07214 656.49767,406.07214 C 648.67067,406.07214 642.32467,402.26514 642.32467,397.56814 C 642.32467,392.87314 648.66967,389.06414 656.49767,389.06414 C 664.32467,389.06414 670.67067,392.87114 670.67067,397.56814 z "
         id="path1520" />
      <path
         style="fill:#ffffff;stroke:none;stroke-width:3.1250000;stroke-miterlimit:4.0000000;stroke-dasharray:none"
         d="M 670.67067,448.58914 C 670.67067,453.28714 664.32567,457.09314 656.49767,457.09314 C 648.67067,457.09314 642.32467,453.28714 642.32467,448.58914 C 642.32467,443.89414 648.66967,440.08614 656.49767,440.08614 C 664.32467,440.08614 670.67067,443.89214 670.67067,448.58914"
         id="path1522" />
      <path
         style="fill:#800000;stroke:#000000;stroke-width:3.1250000;stroke-miterlimit:4.0000000;stroke-dasharray:none;stroke-opacity:1.0000000;fill-opacity:1.0000000"
         d="M 670.67067,448.58914 C 670.67067,453.28714 664.32567,457.09314 656.49767,457.09314 C 648.67067,457.09314 642.32467,453.28714 642.32467,448.58914 C 642.32467,443.89414 648.66967,440.08614 656.49767,440.08614 C 664.32467,440.08614 670.67067,443.89214 670.67067,448.58914 z "
         id="path1524" />
      <path
         style="fill:#ffffff;stroke:none;stroke-width:3.1250000;stroke-miterlimit:4.0000000;stroke-dasharray:none"
         d="M 894.60167,366.38814 L 877.59167,383.39414"
         id="path1534" />
      <path
         style="fill:none;stroke:#000000;stroke-width:3.1250000;stroke-miterlimit:4.0000000;stroke-dasharray:none"
         d="M 894.60167,366.38814 L 877.59167,383.39414"
         id="path1536" />
      <path
         id="rect2786"
         d="M -11.328644,244.96996 L -11.328644,408.18871 L -35.891144,408.18871 L -19.234894,437.03246 L -2.5786437,465.87621 L 14.077606,437.03246 L 30.733856,408.18871 L 7.0776063,408.18871 L 7.0776063,244.96996 L -11.328644,244.96996 z "
         style="opacity:1.0000000;fill:url(#linearGradient3127);fill-opacity:1.0000000;stroke:#000000;stroke-width:3.1250000;stroke-miterlimit:4.0000000;stroke-dasharray:none;stroke-opacity:1.0000000" />
      <text
         sodipodi:linespacing="125.00000%"
         id="text2807"
         y="507.90625"
         x="107.46875"
         style="font-size:32.000000px;font-style:normal;font-variant:normal;font-weight:normal;font-stretch:normal;text-align:start;line-height:125.00000%;writing-mode:lr-tb;text-anchor:start;fill:#000000;fill-opacity:1.0000000;stroke:none;stroke-width:1.0000000px;stroke-linecap:butt;stroke-linejoin:miter;stroke-opacity:1.0000000;font-family:Arial"
         xml:space="preserve"><tspan
           y="507.90625"
           x="107.46875"
           id="tspan2809"
           sodipodi:role="line">Early</tspan></text>
      <text
         sodipodi:linespacing="125.00000%"
         id="text2811"
         y="508.90625"
         x="356.65625"
         style="font-size:32.000000px;font-style:normal;font-variant:normal;font-weight:normal;font-stretch:normal;text-align:start;line-height:125.00000%;writing-mode:lr-tb;text-anchor:start;fill:#000000;fill-opacity:1.0000000;stroke:none;stroke-width:1.0000000px;stroke-linecap:butt;stroke-linejoin:miter;stroke-opacity:1.0000000;font-family:Arial"
         xml:space="preserve"><tspan
           y="508.90625"
           x="356.65625"
           id="tspan2813"
           sodipodi:role="line">Late</tspan></text>
      <text
         sodipodi:linespacing="125.00000%"
         id="text2815"
         y="506.26562"
         x="623.46875"
         style="font-size:32.000000px;font-style:normal;font-variant:normal;font-weight:normal;font-stretch:normal;text-align:start;line-height:125.00000%;writing-mode:lr-tb;text-anchor:start;fill:#000000;fill-opacity:1.0000000;stroke:none;stroke-width:1.0000000px;stroke-linecap:butt;stroke-linejoin:miter;stroke-opacity:1.0000000;font-family:Arial"
         xml:space="preserve"><tspan
           y="506.26562"
           x="623.46875"
           id="tspan2817"
           sodipodi:role="line">Early</tspan></text>
      <text
         sodipodi:linespacing="125.00000%"
         id="text2819"
         y="506.625"
         x="878.03125"
         style="font-size:32.000000px;font-style:normal;font-variant:normal;font-weight:normal;font-stretch:normal;text-align:start;line-height:125.00000%;writing-mode:lr-tb;text-anchor:start;fill:#000000;fill-opacity:1.0000000;stroke:none;stroke-width:1.0000000px;stroke-linecap:butt;stroke-linejoin:miter;stroke-opacity:1.0000000;font-family:Arial"
         xml:space="preserve"><tspan
           y="506.62500"
           x="878.03125"
           id="tspan2821"
           sodipodi:role="line">Late</tspan></text>
      <text
         sodipodi:linespacing="125.00000%"
         id="text2823"
         y="209.26562"
         x="678.5"
         style="font-size:32.000000px;font-style:normal;font-variant:normal;font-weight:normal;font-stretch:normal;text-align:start;line-height:125.00000%;writing-mode:lr-tb;text-anchor:start;fill:#000000;fill-opacity:1.0000000;stroke:none;stroke-width:1.0000000px;stroke-linecap:butt;stroke-linejoin:miter;stroke-opacity:1.0000000;font-family:Arial"
         xml:space="preserve"><tspan
           y="209.26562"
           x="678.50000"
           id="tspan2825"
           sodipodi:role="line">+ Hydroxyurea</tspan></text>
      <text
         sodipodi:linespacing="125.00000%"
         id="text2827"
         y="207.90625"
         x="148.5"
         style="font-size:32.000000px;font-style:normal;font-variant:normal;font-weight:normal;font-stretch:normal;text-align:start;line-height:125.00000%;writing-mode:lr-tb;text-anchor:start;fill:#000000;fill-opacity:1.0000000;stroke:none;stroke-width:1.0000000px;stroke-linecap:butt;stroke-linejoin:miter;stroke-opacity:1.0000000;font-family:Arial"
         xml:space="preserve"><tspan
           y="207.90625"
           x="148.50000"
           id="tspan2829"
           sodipodi:role="line">- Hydroxyurea</tspan></text>
      <text
         transform="matrix(0.000000,-1.000000,1.000000,0.000000,0.000000,0.000000)"
         sodipodi:linespacing="125.00000%"
         id="text2831"
         y="-65.265717"
         x="-423.85535"
         style="font-size:32.000000px;font-style:normal;font-variant:normal;font-weight:normal;font-stretch:normal;text-align:start;line-height:125.00000%;writing-mode:lr-tb;text-anchor:start;fill:#000000;fill-opacity:1.0000000;stroke:none;stroke-width:1.0000000px;stroke-linecap:butt;stroke-linejoin:miter;stroke-opacity:1.0000000;font-family:Arial"
         xml:space="preserve"><tspan
           y="-65.265717"
           x="-423.85535"
           id="tspan2833"
           sodipodi:role="line">S - Phase</tspan></text>
      <text
         sodipodi:linespacing="125.00000%"
         id="text2835"
         y="335.10449"
         x="681.89648"
         style="font-size:18.000000px;font-style:normal;font-variant:normal;font-weight:normal;font-stretch:normal;text-align:start;line-height:125.00000%;writing-mode:lr-tb;text-anchor:start;fill:#000000;fill-opacity:1.0000000;stroke:none;stroke-width:1.0000000px;stroke-linecap:butt;stroke-linejoin:miter;stroke-opacity:1.0000000;font-family:Arial"
         xml:space="preserve"><tspan
           y="335.10449"
           x="681.89648"
           id="tspan2837"
           sodipodi:role="line">Intra S-Phase Checkpoint</tspan></text>
    </g>
    <text
       xml:space="preserve"
       style="font-size:48.000000px;font-style:normal;font-variant:normal;font-weight:bold;font-stretch:normal;text-align:start;line-height:125.00000%;writing-mode:lr-tb;text-anchor:start;fill:#800000;fill-opacity:1.0000000;stroke:#000000;stroke-width:1.5000000;stroke-linecap:butt;stroke-linejoin:miter;stroke-opacity:1.0000000;font-family:Arial;stroke-miterlimit:4.0000000;stroke-dasharray:none"
       x="709.00781"
       y="557.35938"
       id="text1363"
       sodipodi:linespacing="125.00000%"
       inkscape:export-filename="/home/davidm/jobtalk/hu3_1.png"
       inkscape:export-xdpi="300.00000"
       inkscape:export-ydpi="300.00000"><tspan
         sodipodi:role="line"
         id="tspan1365"
         x="709.00781"
         y="557.35938">+ BrdU</tspan></text>
  </g>
</svg>
