<svg version="1.1" viewBox="0.0 0.0 960.0 720.0" fill="none" stroke="none" stroke-linecap="square" stroke-miterlimit="10" xmlns:xlink="http://www.w3.org/1999/xlink" xmlns="http://www.w3.org/2000/svg"><clipPath id="p.0"><path d="m0 0l960.0 0l0 720.0l-960.0 0l0 -720.0z" clip-rule="nonzero"/></clipPath><g clip-path="url(#p.0)"><path fill="#000000" fill-opacity="0.0" d="m0 0l960.0 0l0 720.0l-960.0 0z" fill-rule="evenodd"/><path fill="#000000" fill-opacity="0.0" d="m27.385706 347.10587l893.48035 0" fill-rule="evenodd"/><path stroke="#000000" stroke-width="8.0" stroke-linejoin="round" stroke-linecap="butt" d="m27.385706 347.10587l893.48035 0" fill-rule="evenodd"/><path fill="#d9ead3" d="m9.430436 347.10498l0 0c0 -12.515564 10.463141 -22.661407 23.370079 -22.661407l0 0c6.1981316 0 12.142403 2.3875427 16.525143 6.6373596c4.38274 4.2498474 6.8449364 10.0138855 6.8449364 16.024048l0 0c0 12.515564 -10.463139 22.661438 -23.370079 22.661438l0 0c-12.906937 0 -23.370079 -10.145874 -23.370079 -22.661438z" fill-rule="evenodd"/><path fill="#000000" fill-opacity="0.0" d="m32.800514 324.44357l0 45.322845m-23.370079 -22.661438l46.740158 0" fill-rule="evenodd"/><path fill="#000000" fill-opacity="0.0" d="m9.430436 347.10498l0 0c0 -12.515564 10.463141 -22.661407 23.370079 -22.661407l0 0c6.1981316 0 12.142403 2.3875427 16.525143 6.6373596c4.38274 4.2498474 6.8449364 10.0138855 6.8449364 16.024048l0 0c0 12.515564 -10.463139 22.661438 -23.370079 22.661438l0 0c-12.906937 0 -23.370079 -10.145874 -23.370079 -22.661438z" fill-rule="evenodd"/><path stroke="#000000" stroke-width="1.0" stroke-linejoin="round" stroke-linecap="butt" d="m32.800514 324.44357l0 45.322845m-23.370079 -22.661438l46.740158 0" fill-rule="evenodd"/><path stroke="#000000" stroke-width="1.0" stroke-linejoin="round" stroke-linecap="butt" d="m9.430436 347.10498l0 0c0 -12.515564 10.463141 -22.661407 23.370079 -22.661407l0 0c6.1981316 0 12.142403 2.3875427 16.525143 6.6373596c4.38274 4.2498474 6.8449364 10.0138855 6.8449364 16.024048l0 0c0 12.515564 -10.463139 22.661438 -23.370079 22.661438l0 0c-12.906937 0 -23.370079 -10.145874 -23.370079 -22.661438z" fill-rule="evenodd"/><path fill="#6fa8dc" d="m16.514425 347.10703l0 0c0 -7.6276245 7.290354 -13.811035 16.283464 -13.811035l0 0c8.993107 0 16.283463 6.1834106 16.283463 13.811035l0 0c0 7.6276245 -7.2903557 13.811035 -16.283463 13.811035l0 0c-8.993111 0 -16.283464 -6.1834106 -16.283464 -13.811035z" fill-rule="evenodd"/><path fill="#000000" fill-opacity="0.0" d="m21.283741 337.34116l23.028297 19.531738m0 -19.531738l-23.028297 19.531738" fill-rule="evenodd"/><path fill="#000000" fill-opacity="0.0" d="m16.514425 347.10703l0 0c0 -7.6276245 7.290354 -13.811035 16.283464 -13.811035l0 0c8.993107 0 16.283463 6.1834106 16.283463 13.811035l0 0c0 7.6276245 -7.2903557 13.811035 -16.283463 13.811035l0 0c-8.993111 0 -16.283464 -6.1834106 -16.283464 -13.811035z" fill-rule="evenodd"/><path stroke="#000000" stroke-width="1.0" stroke-linejoin="round" stroke-linecap="butt" d="m21.283741 337.34116l23.028297 19.531738m0 -19.531738l-23.028297 19.531738" fill-rule="evenodd"/><path stroke="#000000" stroke-width="1.0" stroke-linejoin="round" stroke-linecap="butt" d="m16.514425 347.10703l0 0c0 -7.6276245 7.290354 -13.811035 16.283464 -13.811035l0 0c8.993107 0 16.283463 6.1834106 16.283463 13.811035l0 0c0 7.6276245 -7.2903557 13.811035 -16.283463 13.811035l0 0c-8.993111 0 -16.283464 -6.1834106 -16.283464 -13.811035z" fill-rule="evenodd"/><path fill="#d9ead3" d="m70.12401 347.10498l0 0c0 -12.515564 10.463135 -22.661407 23.370079 -22.661407l0 0c6.1981277 0 12.142395 2.3875427 16.525139 6.6373596c4.382736 4.2498474 6.84494 10.0138855 6.84494 16.024048l0 0c0 12.515564 -10.463142 22.661438 -23.370079 22.661438l0 0c-12.906944 0 -23.370079 -10.145874 -23.370079 -22.661438z" fill-rule="evenodd"/><path fill="#000000" fill-opacity="0.0" d="m93.49409 324.44357l0 45.322845m-23.370079 -22.661438l46.740158 0" fill-rule="evenodd"/><path fill="#000000" fill-opacity="0.0" d="m70.12401 347.10498l0 0c0 -12.515564 10.463135 -22.661407 23.370079 -22.661407l0 0c6.1981277 0 12.142395 2.3875427 16.525139 6.6373596c4.382736 4.2498474 6.84494 10.0138855 6.84494 16.024048l0 0c0 12.515564 -10.463142 22.661438 -23.370079 22.661438l0 0c-12.906944 0 -23.370079 -10.145874 -23.370079 -22.661438z" fill-rule="evenodd"/><path stroke="#000000" stroke-width="1.0" stroke-linejoin="round" stroke-linecap="butt" d="m93.49409 324.44357l0 45.322845m-23.370079 -22.661438l46.740158 0" fill-rule="evenodd"/><path stroke="#000000" stroke-width="1.0" stroke-linejoin="round" stroke-linecap="butt" d="m70.12401 347.10498l0 0c0 -12.515564 10.463135 -22.661407 23.370079 -22.661407l0 0c6.1981277 0 12.142395 2.3875427 16.525139 6.6373596c4.382736 4.2498474 6.84494 10.0138855 6.84494 16.024048l0 0c0 12.515564 -10.463142 22.661438 -23.370079 22.661438l0 0c-12.906944 0 -23.370079 -10.145874 -23.370079 -22.661438z" fill-rule="evenodd"/><path fill="#6fa8dc" d="m77.20799 347.10703l0 0c0 -7.6276245 7.2903595 -13.811035 16.283463 -13.811035l0 0c8.993111 0 16.28347 6.1834106 16.28347 13.811035l0 0c0 7.6276245 -7.2903595 13.811035 -16.28347 13.811035l0 0c-8.993103 0 -16.283463 -6.1834106 -16.283463 -13.811035z" fill-rule="evenodd"/><path fill="#000000" fill-opacity="0.0" d="m81.97731 337.34116l23.028297 19.531738m0 -19.531738l-23.028297 19.531738" fill-rule="evenodd"/><path fill="#000000" fill-opacity="0.0" d="m77.20799 347.10703l0 0c0 -7.6276245 7.2903595 -13.811035 16.283463 -13.811035l0 0c8.993111 0 16.28347 6.1834106 16.28347 13.811035l0 0c0 7.6276245 -7.2903595 13.811035 -16.28347 13.811035l0 0c-8.993103 0 -16.283463 -6.1834106 -16.283463 -13.811035z" fill-rule="evenodd"/><path stroke="#000000" stroke-width="1.0" stroke-linejoin="round" stroke-linecap="butt" d="m81.97731 337.34116l23.028297 19.531738m0 -19.531738l-23.028297 19.531738" fill-rule="evenodd"/><path stroke="#000000" stroke-width="1.0" stroke-linejoin="round" stroke-linecap="butt" d="m77.20799 347.10703l0 0c0 -7.6276245 7.2903595 -13.811035 16.283463 -13.811035l0 0c8.993111 0 16.28347 6.1834106 16.28347 13.811035l0 0c0 7.6276245 -7.2903595 13.811035 -16.28347 13.811035l0 0c-8.993103 0 -16.283463 -6.1834106 -16.283463 -13.811035z" fill-rule="evenodd"/><path fill="#d9ead3" d="m130.81758 346.77167l0 0c0 -12.515564 10.463135 -22.661438 23.370071 -22.661438l0 0c6.1981354 0 12.14241 2.3875427 16.525146 6.63739c4.382736 4.2498474 6.84494 10.013855 6.84494 16.024048l0 0c0 12.515533 -10.46315 22.661407 -23.370087 22.661407l0 0c-12.906937 0 -23.370071 -10.145874 -23.370071 -22.661407z" fill-rule="evenodd"/><path fill="#000000" fill-opacity="0.0" d="m154.18765 324.11023l0 45.322845m-23.370071 -22.661407l46.740158 0" fill-rule="evenodd"/><path fill="#000000" fill-opacity="0.0" d="m130.81758 346.77167l0 0c0 -12.515564 10.463135 -22.661438 23.370071 -22.661438l0 0c6.1981354 0 12.14241 2.3875427 16.525146 6.63739c4.382736 4.2498474 6.84494 10.013855 6.84494 16.024048l0 0c0 12.515533 -10.46315 22.661407 -23.370087 22.661407l0 0c-12.906937 0 -23.370071 -10.145874 -23.370071 -22.661407z" fill-rule="evenodd"/><path stroke="#000000" stroke-width="1.0" stroke-linejoin="round" stroke-linecap="butt" d="m154.18765 324.11023l0 45.322845m-23.370071 -22.661407l46.740158 0" fill-rule="evenodd"/><path stroke="#000000" stroke-width="1.0" stroke-linejoin="round" stroke-linecap="butt" d="m130.81758 346.77167l0 0c0 -12.515564 10.463135 -22.661438 23.370071 -22.661438l0 0c6.1981354 0 12.14241 2.3875427 16.525146 6.63739c4.382736 4.2498474 6.84494 10.013855 6.84494 16.024048l0 0c0 12.515533 -10.46315 22.661407 -23.370087 22.661407l0 0c-12.906937 0 -23.370071 -10.145874 -23.370071 -22.661407z" fill-rule="evenodd"/><path fill="#6fa8dc" d="m137.90157 346.77368l0 0c0 -7.6276245 7.2903595 -13.811005 16.283463 -13.811005l0 0c8.993103 0 16.283463 6.18338 16.283463 13.811005l0 0c0 7.6276245 -7.2903595 13.811035 -16.283463 13.811035l0 0c-8.993103 0 -16.283463 -6.1834106 -16.283463 -13.811035z" fill-rule="evenodd"/><path fill="#000000" fill-opacity="0.0" d="m142.67088 337.0078l23.02829 19.531738m0 -19.531738l-23.02829 19.531738" fill-rule="evenodd"/><path fill="#000000" fill-opacity="0.0" d="m137.90157 346.77368l0 0c0 -7.6276245 7.2903595 -13.811005 16.283463 -13.811005l0 0c8.993103 0 16.283463 6.18338 16.283463 13.811005l0 0c0 7.6276245 -7.2903595 13.811035 -16.283463 13.811035l0 0c-8.993103 0 -16.283463 -6.1834106 -16.283463 -13.811035z" fill-rule="evenodd"/><path stroke="#000000" stroke-width="1.0" stroke-linejoin="round" stroke-linecap="butt" d="m142.67088 337.0078l23.02829 19.531738m0 -19.531738l-23.02829 19.531738" fill-rule="evenodd"/><path stroke="#000000" stroke-width="1.0" stroke-linejoin="round" stroke-linecap="butt" d="m137.90157 346.77368l0 0c0 -7.6276245 7.2903595 -13.811005 16.283463 -13.811005l0 0c8.993103 0 16.283463 6.18338 16.283463 13.811005l0 0c0 7.6276245 -7.2903595 13.811035 -16.283463 13.811035l0 0c-8.993103 0 -16.283463 -6.1834106 -16.283463 -13.811035z" fill-rule="evenodd"/><path fill="#d9ead3" d="m191.51114 346.77167l0 0c0 -12.515564 10.46315 -22.661438 23.370087 -22.661438l0 0c6.1981354 0 12.142395 2.3875427 16.525146 6.63739c4.382736 4.2498474 6.844925 10.013855 6.844925 16.024048l0 0c0 12.515533 -10.463135 22.661407 -23.370071 22.661407l0 0c-12.906937 0 -23.370087 -10.145874 -23.370087 -22.661407z" fill-rule="evenodd"/><path fill="#000000" fill-opacity="0.0" d="m214.88123 324.11023l0 45.322845m-23.370087 -22.661407l46.740158 0" fill-rule="evenodd"/><path fill="#000000" fill-opacity="0.0" d="m191.51114 346.77167l0 0c0 -12.515564 10.46315 -22.661438 23.370087 -22.661438l0 0c6.1981354 0 12.142395 2.3875427 16.525146 6.63739c4.382736 4.2498474 6.844925 10.013855 6.844925 16.024048l0 0c0 12.515533 -10.463135 22.661407 -23.370071 22.661407l0 0c-12.906937 0 -23.370087 -10.145874 -23.370087 -22.661407z" fill-rule="evenodd"/><path stroke="#000000" stroke-width="1.0" stroke-linejoin="round" stroke-linecap="butt" d="m214.88123 324.11023l0 45.322845m-23.370087 -22.661407l46.740158 0" fill-rule="evenodd"/><path stroke="#000000" stroke-width="1.0" stroke-linejoin="round" stroke-linecap="butt" d="m191.51114 346.77167l0 0c0 -12.515564 10.46315 -22.661438 23.370087 -22.661438l0 0c6.1981354 0 12.142395 2.3875427 16.525146 6.63739c4.382736 4.2498474 6.844925 10.013855 6.844925 16.024048l0 0c0 12.515533 -10.463135 22.661407 -23.370071 22.661407l0 0c-12.906937 0 -23.370087 -10.145874 -23.370087 -22.661407z" fill-rule="evenodd"/><path fill="#6fa8dc" d="m198.59514 346.77368l0 0c0 -7.6276245 7.290344 -13.811005 16.283463 -13.811005l0 0c8.993103 0 16.283463 6.18338 16.283463 13.811005l0 0c0 7.6276245 -7.2903595 13.811035 -16.283463 13.811035l0 0c-8.993118 0 -16.283463 -6.1834106 -16.283463 -13.811035z" fill-rule="evenodd"/><path fill="#000000" fill-opacity="0.0" d="m203.36446 337.0078l23.02829 19.531738m0 -19.531738l-23.02829 19.531738" fill-rule="evenodd"/><path fill="#000000" fill-opacity="0.0" d="m198.59514 346.77368l0 0c0 -7.6276245 7.290344 -13.811005 16.283463 -13.811005l0 0c8.993103 0 16.283463 6.18338 16.283463 13.811005l0 0c0 7.6276245 -7.2903595 13.811035 -16.283463 13.811035l0 0c-8.993118 0 -16.283463 -6.1834106 -16.283463 -13.811035z" fill-rule="evenodd"/><path stroke="#000000" stroke-width="1.0" stroke-linejoin="round" stroke-linecap="butt" d="m203.36446 337.0078l23.02829 19.531738m0 -19.531738l-23.02829 19.531738" fill-rule="evenodd"/><path stroke="#000000" stroke-width="1.0" stroke-linejoin="round" stroke-linecap="butt" d="m198.59514 346.77368l0 0c0 -7.6276245 7.290344 -13.811005 16.283463 -13.811005l0 0c8.993103 0 16.283463 6.18338 16.283463 13.811005l0 0c0 7.6276245 -7.2903595 13.811035 -16.283463 13.811035l0 0c-8.993118 0 -16.283463 -6.1834106 -16.283463 -13.811035z" fill-rule="evenodd"/><path fill="#d9ead3" d="m255.78477 347.27167l0 0c0 -12.515564 10.4631195 -22.661438 23.370071 -22.661438l0 0c6.19812 0 12.142395 2.3875427 16.525146 6.63739c4.382721 4.2498474 6.84494 10.013855 6.84494 16.024048l0 0c0 12.515533 -10.463135 22.661407 -23.370087 22.661407l0 0c-12.906952 0 -23.370071 -10.145874 -23.370071 -22.661407z" fill-rule="evenodd"/><path fill="#000000" fill-opacity="0.0" d="m279.15485 324.61023l0 45.322845m-23.370071 -22.661407l46.740158 0" fill-rule="evenodd"/><path fill="#000000" fill-opacity="0.0" d="m255.78477 347.27167l0 0c0 -12.515564 10.4631195 -22.661438 23.370071 -22.661438l0 0c6.19812 0 12.142395 2.3875427 16.525146 6.63739c4.382721 4.2498474 6.84494 10.013855 6.84494 16.024048l0 0c0 12.515533 -10.463135 22.661407 -23.370087 22.661407l0 0c-12.906952 0 -23.370071 -10.145874 -23.370071 -22.661407z" fill-rule="evenodd"/><path stroke="#000000" stroke-width="1.0" stroke-linejoin="round" stroke-linecap="butt" d="m279.15485 324.61023l0 45.322845m-23.370071 -22.661407l46.740158 0" fill-rule="evenodd"/><path stroke="#000000" stroke-width="1.0" stroke-linejoin="round" stroke-linecap="butt" d="m255.78477 347.27167l0 0c0 -12.515564 10.4631195 -22.661438 23.370071 -22.661438l0 0c6.19812 0 12.142395 2.3875427 16.525146 6.63739c4.382721 4.2498474 6.84494 10.013855 6.84494 16.024048l0 0c0 12.515533 -10.463135 22.661407 -23.370087 22.661407l0 0c-12.906952 0 -23.370071 -10.145874 -23.370071 -22.661407z" fill-rule="evenodd"/><path fill="#6fa8dc" d="m262.86874 347.27368l0 0c0 -7.6276245 7.2903748 -13.811005 16.283478 -13.811005l0 0c8.993103 0 16.283478 6.18338 16.283478 13.811005l0 0c0 7.6276245 -7.2903748 13.811035 -16.283478 13.811035l0 0c-8.993103 0 -16.283478 -6.1834106 -16.283478 -13.811035z" fill-rule="evenodd"/><path fill="#000000" fill-opacity="0.0" d="m267.63806 337.5078l23.02832 19.531738m0 -19.531738l-23.02832 19.531738" fill-rule="evenodd"/><path fill="#000000" fill-opacity="0.0" d="m262.86874 347.27368l0 0c0 -7.6276245 7.2903748 -13.811005 16.283478 -13.811005l0 0c8.993103 0 16.283478 6.18338 16.283478 13.811005l0 0c0 7.6276245 -7.2903748 13.811035 -16.283478 13.811035l0 0c-8.993103 0 -16.283478 -6.1834106 -16.283478 -13.811035z" fill-rule="evenodd"/><path stroke="#000000" stroke-width="1.0" stroke-linejoin="round" stroke-linecap="butt" d="m267.63806 337.5078l23.02832 19.531738m0 -19.531738l-23.02832 19.531738" fill-rule="evenodd"/><path stroke="#000000" stroke-width="1.0" stroke-linejoin="round" stroke-linecap="butt" d="m262.86874 347.27368l0 0c0 -7.6276245 7.2903748 -13.811005 16.283478 -13.811005l0 0c8.993103 0 16.283478 6.18338 16.283478 13.811005l0 0c0 7.6276245 -7.2903748 13.811035 -16.283478 13.811035l0 0c-8.993103 0 -16.283478 -6.1834106 -16.283478 -13.811035z" fill-rule="evenodd"/><path fill="#d9ead3" d="m316.47833 347.27167l0 0c0 -12.515564 10.463135 -22.661438 23.370087 -22.661438l0 0c6.19812 0 12.142395 2.3875427 16.525146 6.63739c4.382721 4.2498474 6.84494 10.013855 6.84494 16.024048l0 0c0 12.515533 -10.463165 22.661407 -23.370087 22.661407l0 0c-12.906952 0 -23.370087 -10.145874 -23.370087 -22.661407z" fill-rule="evenodd"/><path fill="#000000" fill-opacity="0.0" d="m339.84842 324.61023l0 45.322845m-23.370087 -22.661407l46.740173 0" fill-rule="evenodd"/><path fill="#000000" fill-opacity="0.0" d="m316.47833 347.27167l0 0c0 -12.515564 10.463135 -22.661438 23.370087 -22.661438l0 0c6.19812 0 12.142395 2.3875427 16.525146 6.63739c4.382721 4.2498474 6.84494 10.013855 6.84494 16.024048l0 0c0 12.515533 -10.463165 22.661407 -23.370087 22.661407l0 0c-12.906952 0 -23.370087 -10.145874 -23.370087 -22.661407z" fill-rule="evenodd"/><path stroke="#000000" stroke-width="1.0" stroke-linejoin="round" stroke-linecap="butt" d="m339.84842 324.61023l0 45.322845m-23.370087 -22.661407l46.740173 0" fill-rule="evenodd"/><path stroke="#000000" stroke-width="1.0" stroke-linejoin="round" stroke-linecap="butt" d="m316.47833 347.27167l0 0c0 -12.515564 10.463135 -22.661438 23.370087 -22.661438l0 0c6.19812 0 12.142395 2.3875427 16.525146 6.63739c4.382721 4.2498474 6.84494 10.013855 6.84494 16.024048l0 0c0 12.515533 -10.463165 22.661407 -23.370087 22.661407l0 0c-12.906952 0 -23.370087 -10.145874 -23.370087 -22.661407z" fill-rule="evenodd"/><path fill="#6fa8dc" d="m323.56232 347.27368l0 0c0 -7.6276245 7.2903748 -13.811005 16.283478 -13.811005l0 0c8.993103 0 16.283447 6.18338 16.283447 13.811005l0 0c0 7.6276245 -7.290344 13.811035 -16.283447 13.811035l0 0c-8.993103 0 -16.283478 -6.1834106 -16.283478 -13.811035z" fill-rule="evenodd"/><path fill="#000000" fill-opacity="0.0" d="m328.33163 337.5078l23.02829 19.531738m0 -19.531738l-23.02829 19.531738" fill-rule="evenodd"/><path fill="#000000" fill-opacity="0.0" d="m323.56232 347.27368l0 0c0 -7.6276245 7.2903748 -13.811005 16.283478 -13.811005l0 0c8.993103 0 16.283447 6.18338 16.283447 13.811005l0 0c0 7.6276245 -7.290344 13.811035 -16.283447 13.811035l0 0c-8.993103 0 -16.283478 -6.1834106 -16.283478 -13.811035z" fill-rule="evenodd"/><path stroke="#000000" stroke-width="1.0" stroke-linejoin="round" stroke-linecap="butt" d="m328.33163 337.5078l23.02829 19.531738m0 -19.531738l-23.02829 19.531738" fill-rule="evenodd"/><path stroke="#000000" stroke-width="1.0" stroke-linejoin="round" stroke-linecap="butt" d="m323.56232 347.27368l0 0c0 -7.6276245 7.2903748 -13.811005 16.283478 -13.811005l0 0c8.993103 0 16.283447 6.18338 16.283447 13.811005l0 0c0 7.6276245 -7.290344 13.811035 -16.283447 13.811035l0 0c-8.993103 0 -16.283478 -6.1834106 -16.283478 -13.811035z" fill-rule="evenodd"/><path fill="#d9ead3" d="m377.1719 346.93832l0 0c0 -12.515564 10.463135 -22.661407 23.370087 -22.661407l0 0c6.19812 0 12.142395 2.3875122 16.525146 6.6373596c4.382721 4.2498474 6.84494 10.013855 6.84494 16.024048l0 0c0 12.515564 -10.463165 22.661407 -23.370087 22.661407l0 0c-12.906952 0 -23.370087 -10.1458435 -23.370087 -22.661407z" fill-rule="evenodd"/><path fill="#000000" fill-opacity="0.0" d="m400.542 324.27692l0 45.322815m-23.370087 -22.661407l46.740173 0" fill-rule="evenodd"/><path fill="#000000" fill-opacity="0.0" d="m377.1719 346.93832l0 0c0 -12.515564 10.463135 -22.661407 23.370087 -22.661407l0 0c6.19812 0 12.142395 2.3875122 16.525146 6.6373596c4.382721 4.2498474 6.84494 10.013855 6.84494 16.024048l0 0c0 12.515564 -10.463165 22.661407 -23.370087 22.661407l0 0c-12.906952 0 -23.370087 -10.1458435 -23.370087 -22.661407z" fill-rule="evenodd"/><path stroke="#000000" stroke-width="1.0" stroke-linejoin="round" stroke-linecap="butt" d="m400.542 324.27692l0 45.322815m-23.370087 -22.661407l46.740173 0" fill-rule="evenodd"/><path stroke="#000000" stroke-width="1.0" stroke-linejoin="round" stroke-linecap="butt" d="m377.1719 346.93832l0 0c0 -12.515564 10.463135 -22.661407 23.370087 -22.661407l0 0c6.19812 0 12.142395 2.3875122 16.525146 6.6373596c4.382721 4.2498474 6.84494 10.013855 6.84494 16.024048l0 0c0 12.515564 -10.463165 22.661407 -23.370087 22.661407l0 0c-12.906952 0 -23.370087 -10.1458435 -23.370087 -22.661407z" fill-rule="evenodd"/><path fill="#6fa8dc" d="m384.2559 346.94037l0 0c0 -7.6276245 7.2903748 -13.811035 16.283478 -13.811035l0 0c8.993103 0 16.283447 6.1834106 16.283447 13.811035l0 0c0 7.627594 -7.290344 13.811005 -16.283447 13.811005l0 0c-8.993103 0 -16.283478 -6.1834106 -16.283478 -13.811005z" fill-rule="evenodd"/><path fill="#000000" fill-opacity="0.0" d="m389.0252 337.1745l23.02829 19.531738m0 -19.531738l-23.02829 19.531738" fill-rule="evenodd"/><path fill="#000000" fill-opacity="0.0" d="m384.2559 346.94037l0 0c0 -7.6276245 7.2903748 -13.811035 16.283478 -13.811035l0 0c8.993103 0 16.283447 6.1834106 16.283447 13.811035l0 0c0 7.627594 -7.290344 13.811005 -16.283447 13.811005l0 0c-8.993103 0 -16.283478 -6.1834106 -16.283478 -13.811005z" fill-rule="evenodd"/><path stroke="#000000" stroke-width="1.0" stroke-linejoin="round" stroke-linecap="butt" d="m389.0252 337.1745l23.02829 19.531738m0 -19.531738l-23.02829 19.531738" fill-rule="evenodd"/><path stroke="#000000" stroke-width="1.0" stroke-linejoin="round" stroke-linecap="butt" d="m384.2559 346.94037l0 0c0 -7.6276245 7.2903748 -13.811035 16.283478 -13.811035l0 0c8.993103 0 16.283447 6.1834106 16.283447 13.811035l0 0c0 7.627594 -7.290344 13.811005 -16.283447 13.811005l0 0c-8.993103 0 -16.283478 -6.1834106 -16.283478 -13.811005z" fill-rule="evenodd"/><path fill="#d9ead3" d="m437.86548 346.93832l0 0c0 -12.515564 10.463135 -22.661407 23.370087 -22.661407l0 0c6.19812 0 12.142395 2.3875122 16.525116 6.6373596c4.3827515 4.2498474 6.84494 10.013855 6.84494 16.024048l0 0c0 12.515564 -10.463135 22.661407 -23.370056 22.661407l0 0c-12.906952 0 -23.370087 -10.1458435 -23.370087 -22.661407z" fill-rule="evenodd"/><path fill="#000000" fill-opacity="0.0" d="m461.23557 324.27692l0 45.322815m-23.370087 -22.661407l46.740143 0" fill-rule="evenodd"/><path fill="#000000" fill-opacity="0.0" d="m437.86548 346.93832l0 0c0 -12.515564 10.463135 -22.661407 23.370087 -22.661407l0 0c6.19812 0 12.142395 2.3875122 16.525116 6.6373596c4.3827515 4.2498474 6.84494 10.013855 6.84494 16.024048l0 0c0 12.515564 -10.463135 22.661407 -23.370056 22.661407l0 0c-12.906952 0 -23.370087 -10.1458435 -23.370087 -22.661407z" fill-rule="evenodd"/><path stroke="#000000" stroke-width="1.0" stroke-linejoin="round" stroke-linecap="butt" d="m461.23557 324.27692l0 45.322815m-23.370087 -22.661407l46.740143 0" fill-rule="evenodd"/><path stroke="#000000" stroke-width="1.0" stroke-linejoin="round" stroke-linecap="butt" d="m437.86548 346.93832l0 0c0 -12.515564 10.463135 -22.661407 23.370087 -22.661407l0 0c6.19812 0 12.142395 2.3875122 16.525116 6.6373596c4.3827515 4.2498474 6.84494 10.013855 6.84494 16.024048l0 0c0 12.515564 -10.463135 22.661407 -23.370056 22.661407l0 0c-12.906952 0 -23.370087 -10.1458435 -23.370087 -22.661407z" fill-rule="evenodd"/><path fill="#6fa8dc" d="m444.94946 346.94037l0 0c0 -7.6276245 7.290344 -13.811035 16.283478 -13.811035l0 0c8.993103 0 16.283447 6.1834106 16.283447 13.811035l0 0c0 7.627594 -7.290344 13.811005 -16.283447 13.811005l0 0c-8.993134 0 -16.283478 -6.1834106 -16.283478 -13.811005z" fill-rule="evenodd"/><path fill="#000000" fill-opacity="0.0" d="m449.71878 337.1745l23.02829 19.531738m0 -19.531738l-23.02829 19.531738" fill-rule="evenodd"/><path fill="#000000" fill-opacity="0.0" d="m444.94946 346.94037l0 0c0 -7.6276245 7.290344 -13.811035 16.283478 -13.811035l0 0c8.993103 0 16.283447 6.1834106 16.283447 13.811035l0 0c0 7.627594 -7.290344 13.811005 -16.283447 13.811005l0 0c-8.993134 0 -16.283478 -6.1834106 -16.283478 -13.811005z" fill-rule="evenodd"/><path stroke="#000000" stroke-width="1.0" stroke-linejoin="round" stroke-linecap="butt" d="m449.71878 337.1745l23.02829 19.531738m0 -19.531738l-23.02829 19.531738" fill-rule="evenodd"/><path stroke="#000000" stroke-width="1.0" stroke-linejoin="round" stroke-linecap="butt" d="m444.94946 346.94037l0 0c0 -7.6276245 7.290344 -13.811035 16.283478 -13.811035l0 0c8.993103 0 16.283447 6.1834106 16.283447 13.811035l0 0c0 7.627594 -7.290344 13.811005 -16.283447 13.811005l0 0c-8.993134 0 -16.283478 -6.1834106 -16.283478 -13.811005z" fill-rule="evenodd"/><path fill="#000000" fill-opacity="0.0" d="m459.81473 307.40326l0 30.64566" fill-rule="evenodd"/><path stroke="#000000" stroke-width="1.0" stroke-linejoin="round" stroke-linecap="butt" d="m459.81473 307.40326l0 30.64566" fill-rule="evenodd"/><path fill="#f6b26b" d="m460.36703 307.41916l13.637787 7.3700867l-13.637787 7.3700867z" fill-rule="evenodd"/><path stroke="#000000" stroke-width="1.0" stroke-linejoin="round" stroke-linecap="butt" d="m460.36703 307.41916l13.637787 7.3700867l-13.637787 7.3700867z" fill-rule="evenodd"/><path fill="#000000" fill-opacity="0.0" d="m401.9574 307.40326l0 30.64566" fill-rule="evenodd"/><path stroke="#000000" stroke-width="1.0" stroke-linejoin="round" stroke-linecap="butt" d="m401.9574 307.40326l0 30.64566" fill-rule="evenodd"/><path fill="#f6b26b" d="m402.5097 307.41916l13.637787 7.3700867l-13.637787 7.3700867z" fill-rule="evenodd"/><path stroke="#000000" stroke-width="1.0" stroke-linejoin="round" stroke-linecap="butt" d="m402.5097 307.41916l13.637787 7.3700867l-13.637787 7.3700867z" fill-rule="evenodd"/><path fill="#000000" fill-opacity="0.0" d="m339.1016 307.40326l0 30.64566" fill-rule="evenodd"/><path stroke="#000000" stroke-width="1.0" stroke-linejoin="round" stroke-linecap="butt" d="m339.1016 307.40326l0 30.64566" fill-rule="evenodd"/><path fill="#f6b26b" d="m339.6539 307.41916l13.637817 7.3700867l-13.637817 7.3700867z" fill-rule="evenodd"/><path stroke="#000000" stroke-width="1.0" stroke-linejoin="round" stroke-linecap="butt" d="m339.6539 307.41916l13.637817 7.3700867l-13.637817 7.3700867z" fill-rule="evenodd"/><path fill="#000000" fill-opacity="0.0" d="m275.72174 306.0389l0 30.64566" fill-rule="evenodd"/><path stroke="#000000" stroke-width="1.0" stroke-linejoin="round" stroke-linecap="butt" d="m275.72174 306.0389l0 30.64566" fill-rule="evenodd"/><path fill="#f6b26b" d="m276.27405 306.0548l13.637787 7.3700867l-13.637787 7.3700867z" fill-rule="evenodd"/><path stroke="#000000" stroke-width="1.0" stroke-linejoin="round" stroke-linecap="butt" d="m276.27405 306.0548l13.637787 7.3700867l-13.637787 7.3700867z" fill-rule="evenodd"/><path fill="#6fa8dc" d="m27.385815 491.07056l0 0c0 -7.6276245 7.2903557 -13.811035 16.283466 -13.811035l0 0c8.993107 0 16.283463 6.1834106 16.283463 13.811035l0 0c0 7.627594 -7.2903557 13.811005 -16.283463 13.811005l0 0c-8.993111 0 -16.283466 -6.1834106 -16.283466 -13.811005z" fill-rule="evenodd"/><path fill="#000000" fill-opacity="0.0" d="m32.155132 481.3047l23.028297 19.531738m0 -19.531738l-23.028297 19.531738" fill-rule="evenodd"/><path fill="#000000" fill-opacity="0.0" d="m27.385815 491.07056l0 0c0 -7.6276245 7.2903557 -13.811035 16.283466 -13.811035l0 0c8.993107 0 16.283463 6.1834106 16.283463 13.811035l0 0c0 7.627594 -7.2903557 13.811005 -16.283463 13.811005l0 0c-8.993111 0 -16.283466 -6.1834106 -16.283466 -13.811005z" fill-rule="evenodd"/><path stroke="#000000" stroke-width="1.0" stroke-linejoin="round" stroke-linecap="butt" d="m32.155132 481.3047l23.028297 19.531738m0 -19.531738l-23.028297 19.531738" fill-rule="evenodd"/><path stroke="#000000" stroke-width="1.0" stroke-linejoin="round" stroke-linecap="butt" d="m27.385815 491.07056l0 0c0 -7.6276245 7.2903557 -13.811035 16.283466 -13.811035l0 0c8.993107 0 16.283463 6.1834106 16.283463 13.811035l0 0c0 7.627594 -7.2903557 13.811005 -16.283463 13.811005l0 0c-8.993111 0 -16.283466 -6.1834106 -16.283466 -13.811005z" fill-rule="evenodd"/><path fill="#cfe2f3" d="m27.387138 549.62317l0 0c0 7.6276245 7.2903557 13.811035 16.283463 13.811035l0 0c8.993111 0 16.283466 -6.1834106 16.283466 -13.811035l0 0c0 -7.6276245 -7.2903557 -13.810974 -16.283466 -13.810974l0 0c-8.993107 0 -16.283463 6.1833496 -16.283463 13.810974z" fill-rule="evenodd"/><path fill="#000000" fill-opacity="0.0" d="m32.156456 559.38904l23.028294 -19.531738m0 19.531738l-23.028294 -19.531738" fill-rule="evenodd"/><path fill="#000000" fill-opacity="0.0" d="m27.387138 549.62317l0 0c0 7.6276245 7.2903557 13.811035 16.283463 13.811035l0 0c8.993111 0 16.283466 -6.1834106 16.283466 -13.811035l0 0c0 -7.6276245 -7.2903557 -13.810974 -16.283466 -13.810974l0 0c-8.993107 0 -16.283463 6.1833496 -16.283463 13.810974z" fill-rule="evenodd"/><path stroke="#000000" stroke-width="1.0" stroke-linejoin="round" stroke-linecap="butt" d="m32.156456 559.38904l23.028294 -19.531738m0 19.531738l-23.028294 -19.531738" fill-rule="evenodd"/><path stroke="#000000" stroke-width="1.0" stroke-linejoin="round" stroke-linecap="butt" d="m27.387138 549.62317l0 0c0 7.6276245 7.2903557 13.811035 16.283463 13.811035l0 0c8.993111 0 16.283466 -6.1834106 16.283466 -13.811035l0 0c0 -7.6276245 -7.2903557 -13.810974 -16.283466 -13.810974l0 0c-8.993107 0 -16.283463 6.1833496 -16.283463 13.810974z" fill-rule="evenodd"/><path fill="#000000" fill-opacity="0.0" d="m69.03856 470.642l235.33858 0l0 42.015778l-235.33858 0z" fill-rule="evenodd"/><path fill="#000000" d="m79.47606 497.562l0 -13.359375l5.046875 0q1.328125 0 2.03125 0.125q0.96875 0.171875 1.640625 0.640625q0.671875 0.453125 1.078125 1.28125q0.40625 0.828125 0.40625 1.828125q0 1.703125 -1.09375 2.890625q-1.078125 1.171875 -3.921875 1.171875l-3.421875 0l0 5.421875l-1.765625 0zm1.765625 -7.0l3.453125 0q1.71875 0 2.4375 -0.640625q0.71875 -0.640625 0.71875 -1.796875q0 -0.84375 -0.421875 -1.4375q-0.421875 -0.59375 -1.125 -0.78125q-0.4375 -0.125 -1.640625 -0.125l-3.421875 0l0 4.78125zm16.787323 5.8125q-0.921875 0.765625 -1.765625 1.09375q-0.828125 0.3125 -1.796875 0.3125q-1.59375 0 -2.453125 -0.78125q-0.859375 -0.78125 -0.859375 -1.984375q0 -0.71875 0.328125 -1.296875q0.328125 -0.59375 0.84375 -0.9375q0.53125 -0.359375 1.1875 -0.546875q0.46875 -0.125 1.453125 -0.25q1.984375 -0.234375 2.921875 -0.5625q0.015625 -0.34375 0.015625 -0.421875q0 -1.0 -0.46875 -1.421875q-0.625 -0.546875 -1.875 -0.546875q-1.15625 0 -1.703125 0.40625q-0.546875 0.40625 -0.8125 1.421875l-1.609375 -0.21875q0.21875 -1.015625 0.71875 -1.640625q0.5 -0.640625 1.453125 -0.984375q0.953125 -0.34375 2.1875 -0.34375q1.25 0 2.015625 0.296875q0.78125 0.28125 1.140625 0.734375q0.375 0.4375 0.515625 1.109375q0.078125 0.421875 0.078125 1.515625l0 2.1875q0 2.28125 0.109375 2.890625q0.109375 0.59375 0.40625 1.15625l-1.703125 0q-0.265625 -0.515625 -0.328125 -1.1875zm-0.140625 -3.671875q-0.890625 0.375 -2.671875 0.625q-1.015625 0.140625 -1.4375 0.328125q-0.421875 0.1875 -0.65625 0.53125q-0.21875 0.34375 -0.21875 0.78125q0 0.65625 0.5 1.09375q0.5 0.4375 1.453125 0.4375q0.9375 0 1.671875 -0.40625q0.75 -0.421875 1.09375 -1.140625q0.265625 -0.5625 0.265625 -1.640625l0 -0.609375zm4.188217 4.859375l0 -9.671875l1.46875 0l0 1.46875q0.5625 -1.03125 1.03125 -1.359375q0.484375 -0.328125 1.0625 -0.328125q0.828125 0 1.6875 0.53125l-0.5625 1.515625q-0.609375 -0.359375 -1.203125 -0.359375q-0.546875 0 -0.96875 0.328125q-0.421875 0.328125 -0.609375 0.890625q-0.28125 0.875 -0.28125 1.921875l0 5.0625l-1.625 0zm12.853302 -3.109375l1.6875 0.203125q-0.40625 1.484375 -1.484375 2.3125q-1.078125 0.8125 -2.765625 0.8125q-2.125 0 -3.375 -1.296875q-1.234375 -1.3125 -1.234375 -3.671875q0 -2.453125 1.25 -3.796875q1.265625 -1.34375 3.265625 -1.34375q1.9375 0 3.15625 1.328125q1.234375 1.3125 1.234375 3.703125q0 0.15625 0 0.4375l-7.21875 0q0.09375 1.59375 0.90625 2.453125q0.8125 0.84375 2.015625 0.84375q0.90625 0 1.546875 -0.46875q0.640625 -0.484375 1.015625 -1.515625zm-5.390625 -2.65625l5.40625 0q-0.109375 -1.21875 -0.625 -1.828125q-0.78125 -0.953125 -2.03125 -0.953125q-1.125 0 -1.90625 0.765625q-0.765625 0.75 -0.84375 2.015625zm9.141342 5.765625l0 -9.671875l1.46875 0l0 1.375q1.0625 -1.59375 3.078125 -1.59375q0.875 0 1.609375 0.3125q0.734375 0.3125 1.09375 0.828125q0.375 0.5 0.515625 1.203125q0.09375 0.453125 0.09375 1.59375l0 5.953125l-1.640625 0l0 -5.890625q0 -1.0 -0.203125 -1.484375q-0.1875 -0.5 -0.671875 -0.796875q-0.484375 -0.296875 -1.140625 -0.296875q-1.046875 0 -1.8125 0.671875q-0.75 0.65625 -0.75 2.515625l0 5.28125l-1.640625 0zm13.953842 -1.46875l0.234375 1.453125q-0.6875 0.140625 -1.234375 0.140625q-0.890625 0 -1.390625 -0.28125q-0.484375 -0.28125 -0.6875 -0.734375q-0.203125 -0.46875 -0.203125 -1.9375l0 -5.578125l-1.203125 0l0 -1.265625l1.203125 0l0 -2.390625l1.625 -0.984375l0 3.375l1.65625 0l0 1.265625l-1.65625 0l0 5.671875q0 0.6875 0.078125 0.890625q0.09375 0.203125 0.28125 0.328125q0.203125 0.109375 0.578125 0.109375q0.265625 0 0.71875 -0.0625zm7.917679 0.28125q-0.921875 0.765625 -1.765625 1.09375q-0.828125 0.3125 -1.796875 0.3125q-1.59375 0 -2.453125 -0.78125q-0.859375 -0.78125 -0.859375 -1.984375q0 -0.71875 0.328125 -1.296875q0.328125 -0.59375 0.84375 -0.9375q0.53125 -0.359375 1.1875 -0.546875q0.46875 -0.125 1.453125 -0.25q1.984375 -0.234375 2.921875 -0.5625q0.015625 -0.34375 0.015625 -0.421875q0 -1.0 -0.46875 -1.421875q-0.625 -0.546875 -1.875 -0.546875q-1.15625 0 -1.703125 0.40625q-0.546875 0.40625 -0.8125 1.421875l-1.609375 -0.21875q0.21875 -1.015625 0.71875 -1.640625q0.5 -0.640625 1.453125 -0.984375q0.953125 -0.34375 2.1875 -0.34375q1.25 0 2.015625 0.296875q0.78125 0.28125 1.140625 0.734375q0.375 0.4375 0.515625 1.109375q0.078125 0.421875 0.078125 1.515625l0 2.1875q0 2.28125 0.109375 2.890625q0.109375 0.59375 0.40625 1.15625l-1.703125 0q-0.265625 -0.515625 -0.328125 -1.1875zm-0.140625 -3.671875q-0.890625 0.375 -2.671875 0.625q-1.015625 0.140625 -1.4375 0.328125q-0.421875 0.1875 -0.65625 0.53125q-0.21875 0.34375 -0.21875 0.78125q0 0.65625 0.5 1.09375q0.5 0.4375 1.453125 0.4375q0.9375 0 1.671875 -0.40625q0.75 -0.421875 1.09375 -1.140625q0.265625 -0.5625 0.265625 -1.640625l0 -0.609375zm4.156967 4.859375l0 -13.359375l1.640625 0l0 13.359375l-1.640625 0zm9.640625 0l0 -13.359375l1.765625 0l0 5.484375l6.9375 0l0 -5.484375l1.765625 0l0 13.359375l-1.765625 0l0 -6.296875l-6.9375 0l0 6.296875l-1.765625 0zm12.754196 -3.53125l1.640625 -0.21875q0.28125 1.40625 0.953125 2.015625q0.6875 0.609375 1.65625 0.609375q1.15625 0 1.953125 -0.796875q0.796875 -0.796875 0.796875 -1.984375q0 -1.125 -0.734375 -1.859375q-0.734375 -0.734375 -1.875 -0.734375q-0.46875 0 -1.15625 0.171875l0.1875 -1.4375q0.15625 0.015625 0.265625 0.015625q1.046875 0 1.875 -0.546875q0.84375 -0.546875 0.84375 -1.671875q0 -0.90625 -0.609375 -1.5q-0.609375 -0.59375 -1.578125 -0.59375q-0.953125 0 -1.59375 0.609375q-0.640625 0.59375 -0.8125 1.796875l-1.640625 -0.296875q0.296875 -1.640625 1.359375 -2.546875q1.0625 -0.90625 2.65625 -0.90625q1.09375 0 2.0 0.46875q0.921875 0.46875 1.40625 1.28125q0.5 0.8125 0.5 1.71875q0 0.859375 -0.46875 1.578125q-0.46875 0.703125 -1.375 1.125q1.1875 0.28125 1.84375 1.140625q0.65625 0.859375 0.65625 2.15625q0 1.734375 -1.28125 2.953125q-1.265625 1.21875 -3.21875 1.21875q-1.765625 0 -2.921875 -1.046875q-1.15625 -1.046875 -1.328125 -2.71875zm9.594467 3.765625l3.875 -13.8125l1.3125 0l-3.859375 13.8125l-1.328125 0zm6.683304 -0.234375l0 -13.359375l1.765625 0l0 5.484375l6.9375 0l0 -5.484375l1.765625 0l0 13.359375l-1.765625 0l0 -6.296875l-6.9375 0l0 6.296875l-1.765625 0zm18.004196 0l0 -3.203125l-5.796875 0l0 -1.5l6.09375 -8.65625l1.34375 0l0 8.65625l1.796875 0l0 1.5l-1.796875 0l0 3.203125l-1.640625 0zm0 -4.703125l0 -6.015625l-4.1875 6.015625l4.1875 0zm14.0342865 4.703125l0 -11.78125l-4.40625 0l0 -1.578125l10.578125 0l0 1.578125l-4.40625 0l0 11.78125l-1.765625 0zm12.34259 -3.109375l1.6875 0.203125q-0.40625 1.484375 -1.484375 2.3125q-1.078125 0.8125 -2.765625 0.8125q-2.125 0 -3.375 -1.296875q-1.234375 -1.3125 -1.234375 -3.671875q0 -2.453125 1.25 -3.796875q1.265625 -1.34375 3.265625 -1.34375q1.9375 0 3.15625 1.328125q1.234375 1.3125 1.234375 3.703125q0 0.15625 0 0.4375l-7.21875 0q0.09375 1.59375 0.90625 2.453125q0.8125 0.84375 2.015625 0.84375q0.90625 0 1.546875 -0.46875q0.640625 -0.484375 1.015625 -1.515625zm-5.390625 -2.65625l5.40625 0q-0.109375 -1.21875 -0.625 -1.828125q-0.78125 -0.953125 -2.03125 -0.953125q-1.125 0 -1.90625 0.765625q-0.765625 0.75 -0.84375 2.015625zm12.719467 4.296875l0.234375 1.453125q-0.6875 0.140625 -1.234375 0.140625q-0.890625 0 -1.390625 -0.28125q-0.484375 -0.28125 -0.6875 -0.734375q-0.203125 -0.46875 -0.203125 -1.9375l0 -5.578125l-1.203125 0l0 -1.265625l1.203125 0l0 -2.390625l1.625 -0.984375l0 3.375l1.65625 0l0 1.265625l-1.65625 0l0 5.671875q0 0.6875 0.078125 0.890625q0.09375 0.203125 0.28125 0.328125q0.203125 0.109375 0.578125 0.109375q0.265625 0 0.71875 -0.0625zm1.5895538 1.46875l0 -9.671875l1.46875 0l0 1.46875q0.5625 -1.03125 1.03125 -1.359375q0.484375 -0.328125 1.0625 -0.328125q0.828125 0 1.6875 0.53125l-0.5625 1.515625q-0.609375 -0.359375 -1.203125 -0.359375q-0.546875 0 -0.96875 0.328125q-0.421875 0.328125 -0.609375 0.890625q-0.28125 0.875 -0.28125 1.921875l0 5.0625l-1.625 0zm12.540802 -1.1875q-0.921875 0.765625 -1.765625 1.09375q-0.828125 0.3125 -1.796875 0.3125q-1.59375 0 -2.453125 -0.78125q-0.859375 -0.78125 -0.859375 -1.984375q0 -0.71875 0.328125 -1.296875q0.328125 -0.59375 0.84375 -0.9375q0.53125 -0.359375 1.1875 -0.546875q0.46875 -0.125 1.453125 -0.25q1.984375 -0.234375 2.921875 -0.5625q0.015625 -0.34375 0.015625 -0.421875q0 -1.0 -0.46875 -1.421875q-0.625 -0.546875 -1.875 -0.546875q-1.15625 0 -1.703125 0.40625q-0.546875 0.40625 -0.8125 1.421875l-1.609375 -0.21875q0.21875 -1.015625 0.71875 -1.640625q0.5 -0.640625 1.453125 -0.984375q0.953125 -0.34375 2.1875 -0.34375q1.25 0 2.015625 0.296875q0.78125 0.28125 1.140625 0.734375q0.375 0.4375 0.515625 1.109375q0.078125 0.421875 0.078125 1.515625l0 2.1875q0 2.28125 0.109375 2.890625q0.109375 0.59375 0.40625 1.15625l-1.703125 0q-0.265625 -0.515625 -0.328125 -1.1875zm-0.140625 -3.671875q-0.890625 0.375 -2.671875 0.625q-1.015625 0.140625 -1.4375 0.328125q-0.421875 0.1875 -0.65625 0.53125q-0.21875 0.34375 -0.21875 0.78125q0 0.65625 0.5 1.09375q0.5 0.4375 1.453125 0.4375q0.9375 0 1.671875 -0.40625q0.75 -0.421875 1.09375 -1.140625q0.265625 -0.5625 0.265625 -1.640625l0 -0.609375zm4.203842 4.859375l0 -9.671875l1.46875 0l0 1.359375q0.453125 -0.71875 1.203125 -1.140625q0.765625 -0.4375 1.71875 -0.4375q1.078125 0 1.765625 0.453125q0.6875 0.4375 0.96875 1.234375q1.15625 -1.6875 2.984375 -1.6875q1.453125 0 2.21875 0.796875q0.78125 0.796875 0.78125 2.453125l0 6.640625l-1.640625 0l0 -6.09375q0 -0.984375 -0.15625 -1.40625q-0.15625 -0.4375 -0.578125 -0.703125q-0.421875 -0.265625 -0.984375 -0.265625q-1.015625 0 -1.6875 0.6875q-0.671875 0.671875 -0.671875 2.15625l0 5.625l-1.640625 0l0 -6.28125q0 -1.09375 -0.40625 -1.640625q-0.40625 -0.546875 -1.3125 -0.546875q-0.6875 0 -1.28125 0.359375q-0.59375 0.359375 -0.859375 1.0625q-0.25 0.703125 -0.25 2.03125l0 5.015625l-1.640625 0zm22.165802 -3.109375l1.6875 0.203125q-0.40625 1.484375 -1.484375 2.3125q-1.078125 0.8125 -2.765625 0.8125q-2.125 0 -3.375 -1.296875q-1.234375 -1.3125 -1.234375 -3.671875q0 -2.453125 1.25 -3.796875q1.265625 -1.34375 3.265625 -1.34375q1.9375 0 3.15625 1.328125q1.234375 1.3125 1.234375 3.703125q0 0.15625 0 0.4375l-7.21875 0q0.09375 1.59375 0.90625 2.453125q0.8125 0.84375 2.015625 0.84375q0.90625 0 1.546875 -0.46875q0.640625 -0.484375 1.015625 -1.515625zm-5.390625 -2.65625l5.40625 0q-0.109375 -1.21875 -0.625 -1.828125q-0.78125 -0.953125 -2.03125 -0.953125q-1.125 0 -1.90625 0.765625q-0.765625 0.75 -0.84375 2.015625zm9.125702 5.765625l0 -9.671875l1.46875 0l0 1.46875q0.5625 -1.03125 1.03125 -1.359375q0.484375 -0.328125 1.0625 -0.328125q0.828125 0 1.6875 0.53125l-0.5625 1.515625q-0.609375 -0.359375 -1.203125 -0.359375q-0.546875 0 -0.96875 0.328125q-0.421875 0.328125 -0.609375 0.890625q-0.28125 0.875 -0.28125 1.921875l0 5.0625l-1.625 0z" fill-rule="nonzero"/><path fill="#000000" fill-opacity="0.0" d="m69.03856 524.90186l235.33858 0l0 42.015747l-235.33858 0z" fill-rule="evenodd"/><path fill="#000000" d="m79.460434 551.82184l0 -13.359375l1.8125 0l7.015625 10.484375l0 -10.484375l1.6875 0l0 13.359375l-1.8125 0l-7.015625 -10.5l0 10.5l-1.6875 0zm19.597946 -1.1875q-0.921875 0.765625 -1.765625 1.09375q-0.828125 0.3125 -1.796875 0.3125q-1.59375 0 -2.453125 -0.78125q-0.859375 -0.78125 -0.859375 -1.984375q0 -0.71875 0.328125 -1.296875q0.328125 -0.59375 0.84375 -0.9375q0.53125 -0.359375 1.1875 -0.546875q0.46875 -0.125 1.453125 -0.25q1.984375 -0.234375 2.921875 -0.5625q0.015625 -0.34375 0.015625 -0.421875q0 -1.0 -0.46875 -1.421875q-0.625 -0.546875 -1.875 -0.546875q-1.15625 0 -1.703125 0.40625q-0.546875 0.40625 -0.8125 1.421875l-1.609375 -0.21875q0.21875 -1.015625 0.71875 -1.640625q0.5 -0.640625 1.453125 -0.984375q0.953125 -0.34375 2.1875 -0.34375q1.25 0 2.015625 0.296875q0.78125 0.28125 1.140625 0.734375q0.375 0.4375 0.515625 1.109375q0.078125 0.421875 0.078125 1.515625l0 2.1875q0 2.28125 0.109375 2.890625q0.109375 0.59375 0.40625 1.15625l-1.703125 0q-0.265625 -0.515625 -0.328125 -1.1875zm-0.140625 -3.671875q-0.890625 0.375 -2.671875 0.625q-1.015625 0.140625 -1.4375 0.328125q-0.421875 0.1875 -0.65625 0.53125q-0.21875 0.34375 -0.21875 0.78125q0 0.65625 0.5 1.09375q0.5 0.4375 1.453125 0.4375q0.9375 0 1.671875 -0.40625q0.75 -0.421875 1.09375 -1.140625q0.265625 -0.5625 0.265625 -1.640625l0 -0.609375zm3.5475922 1.96875l1.625 -0.25q0.125 0.96875 0.75 1.5q0.625 0.515625 1.75 0.515625q1.125 0 1.671875 -0.453125q0.546875 -0.46875 0.546875 -1.09375q0 -0.546875 -0.484375 -0.875q-0.328125 -0.21875 -1.671875 -0.546875q-1.8125 -0.46875 -2.515625 -0.796875q-0.6875 -0.328125 -1.046875 -0.90625q-0.359375 -0.59375 -0.359375 -1.3125q0 -0.640625 0.296875 -1.1875q0.296875 -0.5625 0.8125 -0.921875q0.375 -0.28125 1.03125 -0.46875q0.671875 -0.203125 1.421875 -0.203125q1.140625 0 2.0 0.328125q0.859375 0.328125 1.265625 0.890625q0.421875 0.5625 0.578125 1.5l-1.609375 0.21875q-0.109375 -0.75 -0.640625 -1.171875q-0.515625 -0.421875 -1.46875 -0.421875q-1.140625 0 -1.625 0.375q-0.46875 0.375 -0.46875 0.875q0 0.3125 0.1875 0.578125q0.203125 0.265625 0.640625 0.4375q0.234375 0.09375 1.4375 0.421875q1.75 0.453125 2.4375 0.75q0.6875 0.296875 1.078125 0.859375q0.390625 0.5625 0.390625 1.40625q0 0.828125 -0.484375 1.546875q-0.46875 0.71875 -1.375 1.125q-0.90625 0.390625 -2.046875 0.390625q-1.875 0 -2.875 -0.78125q-0.984375 -0.78125 -1.25 -2.328125zm16.296875 -0.65625l1.609375 0.21875q-0.265625 1.65625 -1.359375 2.609375q-1.078125 0.9375 -2.671875 0.9375q-1.984375 0 -3.1875 -1.296875q-1.203125 -1.296875 -1.203125 -3.71875q0 -1.578125 0.515625 -2.75q0.515625 -1.171875 1.578125 -1.75q1.0625 -0.59375 2.3125 -0.59375q1.578125 0 2.578125 0.796875q1.0 0.796875 1.28125 2.265625l-1.59375 0.234375q-0.234375 -0.96875 -0.8125 -1.453125q-0.578125 -0.5 -1.390625 -0.5q-1.234375 0 -2.015625 0.890625q-0.78125 0.890625 -0.78125 2.8125q0 1.953125 0.75 2.84375q0.75 0.875 1.953125 0.875q0.96875 0 1.609375 -0.59375q0.65625 -0.59375 0.828125 -1.828125zm9.640625 0.4375l1.6875 0.203125q-0.40625 1.484375 -1.484375 2.3125q-1.078125 0.8125 -2.765625 0.8125q-2.125 0 -3.375 -1.296875q-1.234375 -1.3125 -1.234375 -3.671875q0 -2.453125 1.25 -3.796875q1.265625 -1.34375 3.265625 -1.34375q1.9375 0 3.15625 1.328125q1.234375 1.3125 1.234375 3.703125q0 0.15625 0 0.4375l-7.21875 0q0.09375 1.59375 0.90625 2.453125q0.8125 0.84375 2.015625 0.84375q0.90625 0 1.546875 -0.46875q0.640625 -0.484375 1.015625 -1.515625zm-5.390625 -2.65625l5.40625 0q-0.109375 -1.21875 -0.625 -1.828125q-0.78125 -0.953125 -2.03125 -0.953125q-1.125 0 -1.90625 0.765625q-0.765625 0.75 -0.84375 2.015625zm9.141342 5.765625l0 -9.671875l1.46875 0l0 1.375q1.0625 -1.59375 3.078125 -1.59375q0.875 0 1.609375 0.3125q0.734375 0.3125 1.09375 0.828125q0.375 0.5 0.515625 1.203125q0.09375 0.453125 0.09375 1.59375l0 5.953125l-1.640625 0l0 -5.890625q0 -1.0 -0.203125 -1.484375q-0.1875 -0.5 -0.671875 -0.796875q-0.484375 -0.296875 -1.140625 -0.296875q-1.046875 0 -1.8125 0.671875q-0.75 0.65625 -0.75 2.515625l0 5.28125l-1.640625 0zm13.953842 -1.46875l0.234375 1.453125q-0.6875 0.140625 -1.234375 0.140625q-0.890625 0 -1.390625 -0.28125q-0.484375 -0.28125 -0.6875 -0.734375q-0.203125 -0.46875 -0.203125 -1.9375l0 -5.578125l-1.203125 0l0 -1.265625l1.203125 0l0 -2.390625l1.625 -0.984375l0 3.375l1.65625 0l0 1.265625l-1.65625 0l0 5.671875q0 0.6875 0.078125 0.890625q0.09375 0.203125 0.28125 0.328125q0.203125 0.109375 0.578125 0.109375q0.265625 0 0.71875 -0.0625zm7.0541077 1.46875l0 -13.359375l1.765625 0l0 5.484375l6.9375 0l0 -5.484375l1.765625 0l0 13.359375l-1.765625 0l0 -6.296875l-6.9375 0l0 6.296875l-1.765625 0zm12.754196 -3.53125l1.640625 -0.21875q0.28125 1.40625 0.953125 2.015625q0.6875 0.609375 1.65625 0.609375q1.15625 0 1.953125 -0.796875q0.796875 -0.796875 0.796875 -1.984375q0 -1.125 -0.734375 -1.859375q-0.734375 -0.734375 -1.875 -0.734375q-0.46875 0 -1.15625 0.171875l0.1875 -1.4375q0.15625 0.015625 0.265625 0.015625q1.046875 0 1.875 -0.546875q0.84375 -0.546875 0.84375 -1.671875q0 -0.90625 -0.609375 -1.5q-0.609375 -0.59375 -1.578125 -0.59375q-0.953125 0 -1.59375 0.609375q-0.640625 0.59375 -0.8125 1.796875l-1.640625 -0.296875q0.296875 -1.640625 1.359375 -2.546875q1.0625 -0.90625 2.65625 -0.90625q1.09375 0 2.0 0.46875q0.921875 0.46875 1.40625 1.28125q0.5 0.8125 0.5 1.71875q0 0.859375 -0.46875 1.578125q-0.46875 0.703125 -1.375 1.125q1.1875 0.28125 1.84375 1.140625q0.65625 0.859375 0.65625 2.15625q0 1.734375 -1.28125 2.953125q-1.265625 1.21875 -3.21875 1.21875q-1.765625 0 -2.921875 -1.046875q-1.15625 -1.046875 -1.328125 -2.71875zm9.594467 3.765625l3.875 -13.8125l1.3125 0l-3.859375 13.8125l-1.328125 0zm6.683304 -0.234375l0 -13.359375l1.765625 0l0 5.484375l6.9375 0l0 -5.484375l1.765625 0l0 13.359375l-1.765625 0l0 -6.296875l-6.9375 0l0 6.296875l-1.765625 0zm18.004196 0l0 -3.203125l-5.796875 0l0 -1.5l6.09375 -8.65625l1.34375 0l0 8.65625l1.796875 0l0 1.5l-1.796875 0l0 3.203125l-1.640625 0zm0 -4.703125l0 -6.015625l-4.1875 6.015625l4.1875 0zm14.0342865 4.703125l0 -11.78125l-4.40625 0l0 -1.578125l10.578125 0l0 1.578125l-4.40625 0l0 11.78125l-1.765625 0zm12.34259 -3.109375l1.6875 0.203125q-0.40625 1.484375 -1.484375 2.3125q-1.078125 0.8125 -2.765625 0.8125q-2.125 0 -3.375 -1.296875q-1.234375 -1.3125 -1.234375 -3.671875q0 -2.453125 1.25 -3.796875q1.265625 -1.34375 3.265625 -1.34375q1.9375 0 3.15625 1.328125q1.234375 1.3125 1.234375 3.703125q0 0.15625 0 0.4375l-7.21875 0q0.09375 1.59375 0.90625 2.453125q0.8125 0.84375 2.015625 0.84375q0.90625 0 1.546875 -0.46875q0.640625 -0.484375 1.015625 -1.515625zm-5.390625 -2.65625l5.40625 0q-0.109375 -1.21875 -0.625 -1.828125q-0.78125 -0.953125 -2.03125 -0.953125q-1.125 0 -1.90625 0.765625q-0.765625 0.75 -0.84375 2.015625zm12.719467 4.296875l0.234375 1.453125q-0.6875 0.140625 -1.234375 0.140625q-0.890625 0 -1.390625 -0.28125q-0.484375 -0.28125 -0.6875 -0.734375q-0.203125 -0.46875 -0.203125 -1.9375l0 -5.578125l-1.203125 0l0 -1.265625l1.203125 0l0 -2.390625l1.625 -0.984375l0 3.375l1.65625 0l0 1.265625l-1.65625 0l0 5.671875q0 0.6875 0.078125 0.890625q0.09375 0.203125 0.28125 0.328125q0.203125 0.109375 0.578125 0.109375q0.265625 0 0.71875 -0.0625zm1.5895538 1.46875l0 -9.671875l1.46875 0l0 1.46875q0.5625 -1.03125 1.03125 -1.359375q0.484375 -0.328125 1.0625 -0.328125q0.828125 0 1.6875 0.53125l-0.5625 1.515625q-0.609375 -0.359375 -1.203125 -0.359375q-0.546875 0 -0.96875 0.328125q-0.421875 0.328125 -0.609375 0.890625q-0.28125 0.875 -0.28125 1.921875l0 5.0625l-1.625 0zm12.540802 -1.1875q-0.921875 0.765625 -1.765625 1.09375q-0.828125 0.3125 -1.796875 0.3125q-1.59375 0 -2.453125 -0.78125q-0.859375 -0.78125 -0.859375 -1.984375q0 -0.71875 0.328125 -1.296875q0.328125 -0.59375 0.84375 -0.9375q0.53125 -0.359375 1.1875 -0.546875q0.46875 -0.125 1.453125 -0.25q1.984375 -0.234375 2.921875 -0.5625q0.015625 -0.34375 0.015625 -0.421875q0 -1.0 -0.46875 -1.421875q-0.625 -0.546875 -1.875 -0.546875q-1.15625 0 -1.703125 0.40625q-0.546875 0.40625 -0.8125 1.421875l-1.609375 -0.21875q0.21875 -1.015625 0.71875 -1.640625q0.5 -0.640625 1.453125 -0.984375q0.953125 -0.34375 2.1875 -0.34375q1.25 0 2.015625 0.296875q0.78125 0.28125 1.140625 0.734375q0.375 0.4375 0.515625 1.109375q0.078125 0.421875 0.078125 1.515625l0 2.1875q0 2.28125 0.109375 2.890625q0.109375 0.59375 0.40625 1.15625l-1.703125 0q-0.265625 -0.515625 -0.328125 -1.1875zm-0.140625 -3.671875q-0.890625 0.375 -2.671875 0.625q-1.015625 0.140625 -1.4375 0.328125q-0.421875 0.1875 -0.65625 0.53125q-0.21875 0.34375 -0.21875 0.78125q0 0.65625 0.5 1.09375q0.5 0.4375 1.453125 0.4375q0.9375 0 1.671875 -0.40625q0.75 -0.421875 1.09375 -1.140625q0.265625 -0.5625 0.265625 -1.640625l0 -0.609375zm4.203842 4.859375l0 -9.671875l1.46875 0l0 1.359375q0.453125 -0.71875 1.203125 -1.140625q0.765625 -0.4375 1.7187347 -0.4375q1.078125 0 1.765625 0.453125q0.6875 0.4375 0.96875 1.234375q1.15625 -1.6875 2.984375 -1.6875q1.453125 0 2.21875 0.796875q0.78125 0.796875 0.78125 2.453125l0 6.640625l-1.640625 0l0 -6.09375q0 -0.984375 -0.15625 -1.40625q-0.15625 -0.4375 -0.578125 -0.703125q-0.421875 -0.265625 -0.984375 -0.265625q-1.015625 0 -1.6875 0.6875q-0.671875 0.671875 -0.671875 2.15625l0 5.625l-1.640625 0l0 -6.28125q0 -1.09375 -0.40625 -1.640625q-0.40625 -0.546875 -1.3125 -0.546875q-0.68748474 0 -1.2812347 0.359375q-0.59375 0.359375 -0.859375 1.0625q-0.25 0.703125 -0.25 2.03125l0 5.015625l-1.640625 0zm22.165787 -3.109375l1.6875 0.203125q-0.40625 1.484375 -1.484375 2.3125q-1.078125 0.8125 -2.765625 0.8125q-2.125 0 -3.375 -1.296875q-1.234375 -1.3125 -1.234375 -3.671875q0 -2.453125 1.25 -3.796875q1.265625 -1.34375 3.265625 -1.34375q1.9375 0 3.15625 1.328125q1.234375 1.3125 1.234375 3.703125q0 0.15625 0 0.4375l-7.21875 0q0.09375 1.59375 0.90625 2.453125q0.8125 0.84375 2.015625 0.84375q0.90625 0 1.546875 -0.46875q0.640625 -0.484375 1.015625 -1.515625zm-5.390625 -2.65625l5.40625 0q-0.109375 -1.21875 -0.625 -1.828125q-0.78125 -0.953125 -2.03125 -0.953125q-1.125 0 -1.90625 0.765625q-0.765625 0.75 -0.84375 2.015625zm9.125732 5.765625l0 -9.671875l1.46875 0l0 1.46875q0.5625 -1.03125 1.03125 -1.359375q0.484375 -0.328125 1.0625 -0.328125q0.828125 0 1.6875 0.53125l-0.5625 1.515625q-0.609375 -0.359375 -1.203125 -0.359375q-0.546875 0 -0.96875 0.328125q-0.421875 0.328125 -0.609375 0.890625q-0.28125 0.875 -0.28125 1.921875l0 5.0625l-1.625 0z" fill-rule="nonzero"/><path fill="#000000" fill-opacity="0.0" d="m69.03856 580.0226l235.33858 0l0 42.015747l-235.33858 0z" fill-rule="evenodd"/><path fill="#000000" d="m79.53856 606.94257l0 -13.359375l1.765625 0l0 5.484375l6.9375 0l0 -5.484375l1.765625 0l0 13.359375l-1.765625 0l0 -6.296875l-6.9375 0l0 6.296875l-1.765625 0zm21.363571 -1.578125l0 1.578125l-8.828125 0q-0.015625 -0.59375 0.1875 -1.140625q0.34375 -0.90625 1.078125 -1.78125q0.75 -0.875 2.15625 -2.015625q2.171875 -1.78125 2.9375 -2.828125q0.765625 -1.046875 0.765625 -1.96875q0 -0.984375 -0.703125 -1.640625q-0.6875 -0.671875 -1.8125 -0.671875q-1.1875 0 -1.90625 0.71875q-0.703125 0.703125 -0.703125 1.953125l-1.6875 -0.171875q0.171875 -1.890625 1.296875 -2.875q1.140625 -0.984375 3.03125 -0.984375q1.921875 0 3.046875 1.0625q1.125 1.0625 1.125 2.640625q0 0.796875 -0.328125 1.578125q-0.328125 0.78125 -1.09375 1.640625q-0.75 0.84375 -2.53125 2.34375q-1.46875 1.234375 -1.890625 1.6875q-0.421875 0.4375 -0.6875 0.875l6.546875 0zm0.95384216 1.578125l5.125 -13.359375l1.90625 0l5.46875 13.359375l-2.015625 0l-1.546875 -4.046875l-5.59375 0l-1.46875 4.046875l-1.875 0zm3.859375 -5.484375l4.53125 0l-1.40625 -3.703125q-0.625 -1.6875 -0.9375 -2.765625q-0.265625 1.28125 -0.71875 2.546875l-1.46875 3.921875zm9.209198 1.46875l0 -1.640625l5.03125 0l0 1.640625l-5.03125 0zm7.118927 4.015625l0 -13.359375l1.765625 0l0 5.484375l6.9375 0l0 -5.484375l1.765625 0l0 13.359375l-1.765625 0l0 -6.296875l-6.9375 0l0 6.296875l-1.765625 0zm21.363571 -1.578125l0 1.578125l-8.828125 0q-0.015625 -0.59375 0.1875 -1.140625q0.34375 -0.90625 1.078125 -1.78125q0.75 -0.875 2.15625 -2.015625q2.171875 -1.78125 2.9375 -2.828125q0.765625 -1.046875 0.765625 -1.96875q0 -0.984375 -0.703125 -1.640625q-0.6875 -0.671875 -1.8125 -0.671875q-1.1875 0 -1.90625 0.71875q-0.703125 0.703125 -0.703125 1.953125l-1.6875 -0.171875q0.171875 -1.890625 1.296875 -2.875q1.140625 -0.984375 3.03125 -0.984375q1.921875 0 3.046875 1.0625q1.125 1.0625 1.125 2.640625q0 0.796875 -0.328125 1.578125q-0.328125 0.78125 -1.09375 1.640625q-0.75 0.84375 -2.53125 2.34375q-1.46875 1.234375 -1.890625 1.6875q-0.421875 0.4375 -0.6875 0.875l6.546875 0zm2.3444672 1.578125l0 -13.359375l5.015625 0q1.53125 0 2.453125 0.40625q0.921875 0.40625 1.4375 1.25q0.53125 0.84375 0.53125 1.765625q0 0.859375 -0.46875 1.625q-0.453125 0.75 -1.390625 1.203125q1.203125 0.359375 1.859375 1.21875q0.65625 0.859375 0.65625 2.015625q0 0.9375 -0.40625 1.75q-0.390625 0.796875 -0.984375 1.234375q-0.578125 0.4375 -1.453125 0.671875q-0.875 0.21875 -2.15625 0.21875l-5.09375 0zm1.78125 -7.75l2.875 0q1.1875 0 1.6875 -0.140625q0.671875 -0.203125 1.015625 -0.671875q0.34375 -0.46875 0.34375 -1.171875q0 -0.65625 -0.328125 -1.15625q-0.3125 -0.515625 -0.90625 -0.703125q-0.59375 -0.1875 -2.03125 -0.1875l-2.65625 0l0 4.03125zm0 6.171875l3.3125 0q0.859375 0 1.203125 -0.0625q0.609375 -0.109375 1.015625 -0.359375q0.421875 -0.265625 0.6875 -0.75q0.265625 -0.484375 0.265625 -1.125q0 -0.75 -0.390625 -1.296875q-0.375 -0.546875 -1.0625 -0.765625q-0.671875 -0.234375 -1.953125 -0.234375l-3.078125 0l0 4.59375zm15.923752 1.578125l0 -13.359375l4.609375 0q1.546875 0 2.375 0.203125q1.140625 0.25 1.953125 0.953125q1.0625 0.890625 1.578125 2.28125q0.53125 1.390625 0.53125 3.171875q0 1.515625 -0.359375 2.703125q-0.359375 1.171875 -0.921875 1.9375q-0.546875 0.765625 -1.203125 1.21875q-0.65625 0.4375 -1.59375 0.671875q-0.9375 0.21875 -2.140625 0.21875l-4.828125 0zm1.765625 -1.578125l2.859375 0q1.3125 0 2.0625 -0.234375q0.75 -0.25 1.203125 -0.703125q0.625 -0.625 0.96875 -1.6875q0.359375 -1.0625 0.359375 -2.578125q0 -2.09375 -0.6875 -3.21875q-0.6875 -1.125 -1.671875 -1.5q-0.703125 -0.28125 -2.28125 -0.28125l-2.8125 0l0 10.203125zm11.504196 -9.890625l0 -1.890625l1.640625 0l0 1.890625l-1.640625 0zm0 11.46875l0 -9.671875l1.640625 0l0 9.671875l-1.640625 0zm4.144821 0l0 -9.671875l1.46875 0l0 1.359375q0.453125 -0.71875 1.203125 -1.140625q0.765625 -0.4375 1.71875 -0.4375q1.078125 0 1.765625 0.453125q0.6875 0.4375 0.96875 1.234375q1.15625 -1.6875 2.984375 -1.6875q1.453125 0 2.21875 0.796875q0.78125 0.796875 0.78125 2.453125l0 6.640625l-1.640625 0l0 -6.09375q0 -0.984375 -0.15625 -1.40625q-0.15625 -0.4375 -0.578125 -0.703125q-0.421875 -0.265625 -0.984375 -0.265625q-1.015625 0 -1.6875 0.6875q-0.671875 0.671875 -0.671875 2.15625l0 5.625l-1.640625 0l0 -6.28125q0 -1.09375 -0.40625 -1.640625q-0.40625 -0.546875 -1.3125 -0.546875q-0.6875 0 -1.28125 0.359375q-0.59375 0.359375 -0.859375 1.0625q-0.25 0.703125 -0.25 2.03125l0 5.015625l-1.640625 0zm22.165802 -3.109375l1.6875 0.203125q-0.40625 1.484375 -1.484375 2.3125q-1.078125 0.8125 -2.765625 0.8125q-2.125 0 -3.375 -1.296875q-1.234375 -1.3125 -1.234375 -3.671875q0 -2.453125 1.25 -3.796875q1.265625 -1.34375 3.265625 -1.34375q1.9375 0 3.15625 1.328125q1.234375 1.3125 1.234375 3.703125q0 0.15625 0 0.4375l-7.21875 0q0.09375 1.59375 0.90625 2.453125q0.8125 0.84375 2.015625 0.84375q0.90625 0 1.546875 -0.46875q0.640625 -0.484375 1.015625 -1.515625zm-5.390625 -2.65625l5.40625 0q-0.109375 -1.21875 -0.625 -1.828125q-0.78125 -0.953125 -2.03125 -0.953125q-1.125 0 -1.90625 0.765625q-0.765625 0.75 -0.84375 2.015625zm9.125717 5.765625l0 -9.671875l1.46875 0l0 1.46875q0.5625 -1.03125 1.03125 -1.359375q0.484375 -0.328125 1.0625 -0.328125q0.828125 0 1.6875 0.53125l-0.5625 1.515625q-0.609375 -0.359375 -1.203125 -0.359375q-0.546875 0 -0.96875 0.328125q-0.421875 0.328125 -0.609375 0.890625q-0.28125 0.875 -0.28125 1.921875l0 5.0625l-1.625 0zm5.572052 -2.890625l1.625 -0.25q0.125 0.96875 0.75 1.5q0.625 0.515625 1.75 0.515625q1.125 0 1.671875 -0.453125q0.546875 -0.46875 0.546875 -1.09375q0 -0.546875 -0.484375 -0.875q-0.328125 -0.21875 -1.671875 -0.546875q-1.8125 -0.46875 -2.515625 -0.796875q-0.6875 -0.328125 -1.046875 -0.90625q-0.359375 -0.59375 -0.359375 -1.3125q0 -0.640625 0.296875 -1.1875q0.296875 -0.5625 0.8125 -0.921875q0.375 -0.28125 1.03125 -0.46875q0.671875 -0.203125 1.421875 -0.203125q1.140625 0 2.0 0.328125q0.859375 0.328125 1.265625 0.890625q0.421875 0.5625 0.578125 1.5l-1.609375 0.21875q-0.109375 -0.75 -0.640625 -1.171875q-0.515625 -0.421875 -1.46875 -0.421875q-1.140625 0 -1.625 0.375q-0.46875 0.375 -0.46875 0.875q0 0.3125 0.1875 0.578125q0.203125 0.265625 0.640625 0.4375q0.234375 0.09375 1.4375 0.421875q1.75 0.453125 2.4375 0.75q0.6875 0.296875 1.078125 0.859375q0.390625 0.5625 0.390625 1.40625q0 0.828125 -0.484375 1.546875q-0.46875 0.71875 -1.375 1.125q-0.90625 0.390625 -2.046875 0.390625q-1.875 0 -2.875 -0.78125q-0.984375 -0.78125 -1.25 -2.328125z" fill-rule="nonzero"/><path fill="#d9ead3" d="m20.299213 601.028l0 0c0 -12.515564 10.4631405 -22.661377 23.370079 -22.661377l0 0c6.1981277 0 12.142399 2.3875122 16.525139 6.637329c4.38274 4.249878 6.8449364 10.013855 6.8449364 16.024048l0 0c0 12.515564 -10.463139 22.661438 -23.370075 22.661438l0 0c-12.906939 0 -23.370079 -10.145874 -23.370079 -22.661438z" fill-rule="evenodd"/><path fill="#000000" fill-opacity="0.0" d="m43.669292 578.36664l0 45.322815m-23.370079 -22.661438l46.740154 0" fill-rule="evenodd"/><path fill="#000000" fill-opacity="0.0" d="m20.299213 601.028l0 0c0 -12.515564 10.4631405 -22.661377 23.370079 -22.661377l0 0c6.1981277 0 12.142399 2.3875122 16.525139 6.637329c4.38274 4.249878 6.8449364 10.013855 6.8449364 16.024048l0 0c0 12.515564 -10.463139 22.661438 -23.370075 22.661438l0 0c-12.906939 0 -23.370079 -10.145874 -23.370079 -22.661438z" fill-rule="evenodd"/><path stroke="#000000" stroke-width="1.0" stroke-linejoin="round" stroke-linecap="butt" d="m43.669292 578.36664l0 45.322815m-23.370079 -22.661438l46.740154 0" fill-rule="evenodd"/><path stroke="#000000" stroke-width="1.0" stroke-linejoin="round" stroke-linecap="butt" d="m20.299213 601.028l0 0c0 -12.515564 10.4631405 -22.661377 23.370079 -22.661377l0 0c6.1981277 0 12.142399 2.3875122 16.525139 6.637329c4.38274 4.249878 6.8449364 10.013855 6.8449364 16.024048l0 0c0 12.515564 -10.463139 22.661438 -23.370075 22.661438l0 0c-12.906939 0 -23.370079 -10.145874 -23.370079 -22.661438z" fill-rule="evenodd"/><path fill="#ffffff" d="m29.858267 601.2379l0 0c0 -7.6276245 6.183405 -13.811035 13.811026 -13.811035l0 0c3.6629105 0 7.1757965 1.4550781 9.765869 4.045166c2.5900688 2.590088 4.0451546 6.1029663 4.0451546 9.765869l0 0c0 7.6276245 -6.183407 13.811035 -13.811024 13.811035l0 0c-7.6276207 0 -13.811026 -6.1834106 -13.811026 -13.811035z" fill-rule="evenodd"/><path stroke="#000000" stroke-width="1.0" stroke-linejoin="round" stroke-linecap="butt" d="m29.858267 601.2379l0 0c0 -7.6276245 6.183405 -13.811035 13.811026 -13.811035l0 0c3.6629105 0 7.1757965 1.4550781 9.765869 4.045166c2.5900688 2.590088 4.0451546 6.1029663 4.0451546 9.765869l0 0c0 7.6276245 -6.183407 13.811035 -13.811024 13.811035l0 0c-7.6276207 0 -13.811026 -6.1834106 -13.811026 -13.811035z" fill-rule="evenodd"/><path fill="#000000" fill-opacity="0.0" d="m36.70153 639.1215l0 30.64569" fill-rule="evenodd"/><path stroke="#000000" stroke-width="1.0" stroke-linejoin="round" stroke-linecap="butt" d="m36.70153 639.1215l0 30.64569" fill-rule="evenodd"/><path fill="#f6b26b" d="m37.25383 639.13745l13.637798 7.370117l-13.637798 7.370056z" fill-rule="evenodd"/><path stroke="#000000" stroke-width="1.0" stroke-linejoin="round" stroke-linecap="butt" d="m37.25383 639.13745l13.637798 7.370117l-13.637798 7.370056z" fill-rule="evenodd"/><path fill="#000000" fill-opacity="0.0" d="m71.357506 633.43585l357.19684 0l0 42.015747l-357.19684 0z" fill-rule="evenodd"/><path fill="#000000" d="m81.857506 660.3559l0 -13.359375l1.765625 0l0 5.484375l6.9375 0l0 -5.484375l1.765625 0l0 13.359375l-1.765625 0l0 -6.296875l-6.9375 0l0 6.296875l-1.765625 0zm12.754196 -3.53125l1.640625 -0.21875q0.28125 1.40625 0.953125 2.015625q0.6875 0.609375 1.65625 0.609375q1.15625 0 1.953125 -0.796875q0.796875 -0.796875 0.796875 -1.984375q0 -1.125 -0.734375 -1.859375q-0.734375 -0.734375 -1.875 -0.734375q-0.46875 0 -1.15625 0.171875l0.1875 -1.4375q0.15625 0.015625 0.265625 0.015625q1.046875 0 1.875 -0.546875q0.84375 -0.546875 0.84375 -1.671875q0 -0.90625 -0.609375 -1.5q-0.609375 -0.59375 -1.578125 -0.59375q-0.953125 0 -1.59375 0.609375q-0.640625 0.59375 -0.8125 1.796875l-1.640625 -0.296875q0.296875 -1.640625 1.359375 -2.546875q1.0625 -0.90625 2.65625 -0.90625q1.09375 0 2.0 0.46875q0.921875 0.46875 1.40625 1.28125q0.5 0.8125 0.5 1.71875q0 0.859375 -0.46875 1.578125q-0.46875 0.703125 -1.375 1.125q1.1875 0.28125 1.84375 1.140625q0.65625 0.859375 0.65625 2.15625q0 1.734375 -1.28125 2.953125q-1.265625 1.21875 -3.21875 1.21875q-1.765625 0 -2.921875 -1.046875q-1.15625 -1.046875 -1.328125 -2.71875zm10.953842 3.53125l0 -13.359375l1.78125 0l0 6.625l6.625 -6.625l2.390625 0l-5.59375 5.421875l5.84375 7.9375l-2.328125 0l-4.765625 -6.765625l-2.171875 2.140625l0 4.625l-1.78125 0zm20.474823 -1.578125l0 1.578125l-8.828125 0q-0.015625 -0.59375 0.1875 -1.140625q0.34375 -0.90625 1.078125 -1.78125q0.75 -0.875 2.15625 -2.015625q2.171875 -1.78125 2.9375 -2.828125q0.765625 -1.046875 0.765625 -1.96875q0 -0.984375 -0.703125 -1.640625q-0.6875 -0.671875 -1.8125 -0.671875q-1.1875 0 -1.90625 0.71875q-0.703125 0.703125 -0.703125 1.953125l-1.6875 -0.171875q0.171875 -1.890625 1.296875 -2.875q1.140625 -0.984375 3.03125 -0.984375q1.921875 0 3.046875 1.0625q1.125 1.0625 1.125 2.640625q0 0.796875 -0.328125 1.578125q-0.328125 0.78125 -1.09375 1.640625q-0.75 0.84375 -2.53125 2.34375q-1.46875 1.234375 -1.890625 1.6875q-0.421875 0.4375 -0.6875 0.875l6.546875 0zm1.8757172 -10.03125l0 -1.578125l8.640633 0l0 1.28125q-1.28125 1.359375 -2.53125 3.609375q-1.25 2.25 -1.9375 4.625q-0.484375 1.671875 -0.625 3.671875l-1.6875 0q0.03125 -1.578125 0.625 -3.8125q0.59375 -2.234375 1.6875 -4.296875q1.109375 -2.078125 2.359375 -3.5l-6.5312576 0zm10.719475 11.609375l0 -9.671875l1.46875 0l0 1.359375q0.453125 -0.71875 1.203125 -1.140625q0.765625 -0.4375 1.71875 -0.4375q1.078125 0 1.765625 0.453125q0.6875 0.4375 0.96875 1.234375q1.15625 -1.6875 2.984375 -1.6875q1.453125 0 2.21875 0.796875q0.78125 0.796875 0.78125 2.453125l0 6.640625l-1.640625 0l0 -6.09375q0 -0.984375 -0.15625 -1.40625q-0.15625 -0.4375 -0.578125 -0.703125q-0.421875 -0.265625 -0.984375 -0.265625q-1.015625 0 -1.6875 0.6875q-0.671875 0.671875 -0.671875 2.15625l0 5.625l-1.640625 0l0 -6.28125q0 -1.09375 -0.40625 -1.640625q-0.40625 -0.546875 -1.3125 -0.546875q-0.6875 0 -1.28125 0.359375q-0.59375 0.359375 -0.859375 1.0625q-0.25 0.703125 -0.25 2.03125l0 5.015625l-1.640625 0zm22.165802 -3.109375l1.6875 0.203125q-0.40625 1.484375 -1.484375 2.3125q-1.078125 0.8125 -2.765625 0.8125q-2.125 0 -3.375 -1.296875q-1.234375 -1.3125 -1.234375 -3.671875q0 -2.453125 1.25 -3.796875q1.265625 -1.34375 3.265625 -1.34375q1.9375 0 3.15625 1.328125q1.234375 1.3125 1.234375 3.703125q0 0.15625 0 0.4375l-7.21875 0q0.09375 1.59375 0.90625 2.453125q0.8125 0.84375 2.015625 0.84375q0.90625 0 1.546875 -0.46875q0.640625 -0.484375 1.015625 -1.515625zm-5.390625 -2.65625l5.40625 0q-0.109375 -1.21875 -0.625 -1.828125q-0.78125 -0.953125 -2.03125 -0.953125q-1.125 0 -1.90625 0.765625q-0.765625 0.75 -0.84375 2.015625zm8.688217 2.234375l1.640625 -0.21875q0.28125 1.40625 0.953125 2.015625q0.6875 0.609375 1.65625 0.609375q1.15625 0 1.953125 -0.796875q0.796875 -0.796875 0.796875 -1.984375q0 -1.125 -0.734375 -1.859375q-0.734375 -0.734375 -1.875 -0.734375q-0.46875 0 -1.15625 0.171875l0.1875 -1.4375q0.15625 0.015625 0.265625 0.015625q1.046875 0 1.875 -0.546875q0.84375 -0.546875 0.84375 -1.671875q0 -0.90625 -0.609375 -1.5q-0.609375 -0.59375 -1.578125 -0.59375q-0.953125 0 -1.59375 0.609375q-0.640625 0.59375 -0.8125 1.796875l-1.640625 -0.296875q0.296875 -1.640625 1.359375 -2.546875q1.0625 -0.90625 2.65625 -0.90625q1.09375 0 2.0 0.46875q0.921875 0.46875 1.40625 1.28125q0.5 0.8125 0.5 1.71875q0 0.859375 -0.46875 1.578125q-0.46875 0.703125 -1.375 1.125q1.1875 0.28125 1.84375 1.140625q0.65625 0.859375 0.65625 2.15625q0 1.734375 -1.28125 2.953125q-1.265625 1.21875 -3.21875 1.21875q-1.765625 0 -2.921875 -1.046875q-1.15625 -1.046875 -1.328125 -2.71875z" fill-rule="nonzero"/><path fill="#d9ead3" d="m692.0446 347.43964l0 0c0 -12.515564 10.463135 -22.661407 23.370056 -22.661407l0 0c6.19812 0 12.142395 2.3875122 16.525146 6.6373596c4.3827515 4.2498474 6.8449707 10.013855 6.8449707 16.024048l0 0c0 12.515564 -10.463135 22.661407 -23.370117 22.661407l0 0c-12.906921 0 -23.370056 -10.1458435 -23.370056 -22.661407z" fill-rule="evenodd"/><path fill="#000000" fill-opacity="0.0" d="m715.4147 324.77823l0 45.322815m-23.370056 -22.661407l46.740173 0" fill-rule="evenodd"/><path fill="#000000" fill-opacity="0.0" d="m692.0446 347.43964l0 0c0 -12.515564 10.463135 -22.661407 23.370056 -22.661407l0 0c6.19812 0 12.142395 2.3875122 16.525146 6.6373596c4.3827515 4.2498474 6.8449707 10.013855 6.8449707 16.024048l0 0c0 12.515564 -10.463135 22.661407 -23.370117 22.661407l0 0c-12.906921 0 -23.370056 -10.1458435 -23.370056 -22.661407z" fill-rule="evenodd"/><path stroke="#000000" stroke-width="1.0" stroke-linejoin="round" stroke-linecap="butt" d="m715.4147 324.77823l0 45.322815m-23.370056 -22.661407l46.740173 0" fill-rule="evenodd"/><path stroke="#000000" stroke-width="1.0" stroke-linejoin="round" stroke-linecap="butt" d="m692.0446 347.43964l0 0c0 -12.515564 10.463135 -22.661407 23.370056 -22.661407l0 0c6.19812 0 12.142395 2.3875122 16.525146 6.6373596c4.3827515 4.2498474 6.8449707 10.013855 6.8449707 16.024048l0 0c0 12.515564 -10.463135 22.661407 -23.370117 22.661407l0 0c-12.906921 0 -23.370056 -10.1458435 -23.370056 -22.661407z" fill-rule="evenodd"/><path fill="#6fa8dc" d="m699.1286 347.44168l0 0c0 -7.6276245 7.290344 -13.811035 16.283447 -13.811035l0 0c8.993103 0 16.283508 6.1834106 16.283508 13.811035l0 0c0 7.627594 -7.2904053 13.811005 -16.283508 13.811005l0 0c-8.993103 0 -16.283447 -6.1834106 -16.283447 -13.811005z" fill-rule="evenodd"/><path fill="#000000" fill-opacity="0.0" d="m703.8979 337.6758l23.02832 19.531738m0 -19.531738l-23.02832 19.531738" fill-rule="evenodd"/><path fill="#000000" fill-opacity="0.0" d="m699.1286 347.44168l0 0c0 -7.6276245 7.290344 -13.811035 16.283447 -13.811035l0 0c8.993103 0 16.283508 6.1834106 16.283508 13.811035l0 0c0 7.627594 -7.2904053 13.811005 -16.283508 13.811005l0 0c-8.993103 0 -16.283447 -6.1834106 -16.283447 -13.811005z" fill-rule="evenodd"/><path stroke="#000000" stroke-width="1.0" stroke-linejoin="round" stroke-linecap="butt" d="m703.8979 337.6758l23.02832 19.531738m0 -19.531738l-23.02832 19.531738" fill-rule="evenodd"/><path stroke="#000000" stroke-width="1.0" stroke-linejoin="round" stroke-linecap="butt" d="m699.1286 347.44168l0 0c0 -7.6276245 7.290344 -13.811035 16.283447 -13.811035l0 0c8.993103 0 16.283508 6.1834106 16.283508 13.811035l0 0c0 7.627594 -7.2904053 13.811005 -16.283508 13.811005l0 0c-8.993103 0 -16.283447 -6.1834106 -16.283447 -13.811005z" fill-rule="evenodd"/><path fill="#d9ead3" d="m752.73816 347.43964l0 0c0 -12.515564 10.463135 -22.661407 23.370117 -22.661407l0 0c6.19812 0 12.142395 2.3875122 16.525146 6.6373596c4.3826904 4.2498474 6.8449097 10.013855 6.8449097 16.024048l0 0c0 12.515564 -10.463135 22.661407 -23.370056 22.661407l0 0c-12.906982 0 -23.370117 -10.1458435 -23.370117 -22.661407z" fill-rule="evenodd"/><path fill="#000000" fill-opacity="0.0" d="m776.1083 324.77823l0 45.322815m-23.370117 -22.661407l46.740173 0" fill-rule="evenodd"/><path fill="#000000" fill-opacity="0.0" d="m752.73816 347.43964l0 0c0 -12.515564 10.463135 -22.661407 23.370117 -22.661407l0 0c6.19812 0 12.142395 2.3875122 16.525146 6.6373596c4.3826904 4.2498474 6.8449097 10.013855 6.8449097 16.024048l0 0c0 12.515564 -10.463135 22.661407 -23.370056 22.661407l0 0c-12.906982 0 -23.370117 -10.1458435 -23.370117 -22.661407z" fill-rule="evenodd"/><path stroke="#000000" stroke-width="1.0" stroke-linejoin="round" stroke-linecap="butt" d="m776.1083 324.77823l0 45.322815m-23.370117 -22.661407l46.740173 0" fill-rule="evenodd"/><path stroke="#000000" stroke-width="1.0" stroke-linejoin="round" stroke-linecap="butt" d="m752.73816 347.43964l0 0c0 -12.515564 10.463135 -22.661407 23.370117 -22.661407l0 0c6.19812 0 12.142395 2.3875122 16.525146 6.6373596c4.3826904 4.2498474 6.8449097 10.013855 6.8449097 16.024048l0 0c0 12.515564 -10.463135 22.661407 -23.370056 22.661407l0 0c-12.906982 0 -23.370117 -10.1458435 -23.370117 -22.661407z" fill-rule="evenodd"/><path fill="#6fa8dc" d="m759.82214 347.44168l0 0c0 -7.6276245 7.2904053 -13.811035 16.283508 -13.811035l0 0c8.993103 0 16.283447 6.1834106 16.283447 13.811035l0 0c0 7.627594 -7.290344 13.811005 -16.283447 13.811005l0 0c-8.993103 0 -16.283508 -6.1834106 -16.283508 -13.811005z" fill-rule="evenodd"/><path fill="#000000" fill-opacity="0.0" d="m764.5915 337.6758l23.02826 19.531738m0 -19.531738l-23.02826 19.531738" fill-rule="evenodd"/><path fill="#000000" fill-opacity="0.0" d="m759.82214 347.44168l0 0c0 -7.6276245 7.2904053 -13.811035 16.283508 -13.811035l0 0c8.993103 0 16.283447 6.1834106 16.283447 13.811035l0 0c0 7.627594 -7.290344 13.811005 -16.283447 13.811005l0 0c-8.993103 0 -16.283508 -6.1834106 -16.283508 -13.811005z" fill-rule="evenodd"/><path stroke="#000000" stroke-width="1.0" stroke-linejoin="round" stroke-linecap="butt" d="m764.5915 337.6758l23.02826 19.531738m0 -19.531738l-23.02826 19.531738" fill-rule="evenodd"/><path stroke="#000000" stroke-width="1.0" stroke-linejoin="round" stroke-linecap="butt" d="m759.82214 347.44168l0 0c0 -7.6276245 7.2904053 -13.811035 16.283508 -13.811035l0 0c8.993103 0 16.283447 6.1834106 16.283447 13.811035l0 0c0 7.627594 -7.290344 13.811005 -16.283447 13.811005l0 0c-8.993103 0 -16.283508 -6.1834106 -16.283508 -13.811005z" fill-rule="evenodd"/><path fill="#d9ead3" d="m813.43176 347.1063l0 0c0 -12.515564 10.463135 -22.661407 23.370056 -22.661407l0 0c6.19812 0 12.142395 2.3875427 16.525146 6.6373596c4.3827515 4.2498474 6.8449707 10.0138855 6.8449707 16.024048l0 0c0 12.515564 -10.463196 22.661438 -23.370117 22.661438l0 0c-12.906921 0 -23.370056 -10.145874 -23.370056 -22.661438z" fill-rule="evenodd"/><path fill="#000000" fill-opacity="0.0" d="m836.8018 324.4449l0 45.322845m-23.370056 -22.661438l46.740173 0" fill-rule="evenodd"/><path fill="#000000" fill-opacity="0.0" d="m813.43176 347.1063l0 0c0 -12.515564 10.463135 -22.661407 23.370056 -22.661407l0 0c6.19812 0 12.142395 2.3875427 16.525146 6.6373596c4.3827515 4.2498474 6.8449707 10.0138855 6.8449707 16.024048l0 0c0 12.515564 -10.463196 22.661438 -23.370117 22.661438l0 0c-12.906921 0 -23.370056 -10.145874 -23.370056 -22.661438z" fill-rule="evenodd"/><path stroke="#000000" stroke-width="1.0" stroke-linejoin="round" stroke-linecap="butt" d="m836.8018 324.4449l0 45.322845m-23.370056 -22.661438l46.740173 0" fill-rule="evenodd"/><path stroke="#000000" stroke-width="1.0" stroke-linejoin="round" stroke-linecap="butt" d="m813.43176 347.1063l0 0c0 -12.515564 10.463135 -22.661407 23.370056 -22.661407l0 0c6.19812 0 12.142395 2.3875427 16.525146 6.6373596c4.3827515 4.2498474 6.8449707 10.0138855 6.8449707 16.024048l0 0c0 12.515564 -10.463196 22.661438 -23.370117 22.661438l0 0c-12.906921 0 -23.370056 -10.145874 -23.370056 -22.661438z" fill-rule="evenodd"/><path fill="#6fa8dc" d="m820.51575 347.10834l0 0c0 -7.6276245 7.290344 -13.811035 16.283447 -13.811035l0 0c8.993103 0 16.283447 6.1834106 16.283447 13.811035l0 0c0 7.6276245 -7.290344 13.811035 -16.283447 13.811035l0 0c-8.993103 0 -16.283447 -6.1834106 -16.283447 -13.811035z" fill-rule="evenodd"/><path fill="#000000" fill-opacity="0.0" d="m825.28503 337.34247l23.02832 19.531738m0 -19.531738l-23.02832 19.531738" fill-rule="evenodd"/><path fill="#000000" fill-opacity="0.0" d="m820.51575 347.10834l0 0c0 -7.6276245 7.290344 -13.811035 16.283447 -13.811035l0 0c8.993103 0 16.283447 6.1834106 16.283447 13.811035l0 0c0 7.6276245 -7.290344 13.811035 -16.283447 13.811035l0 0c-8.993103 0 -16.283447 -6.1834106 -16.283447 -13.811035z" fill-rule="evenodd"/><path stroke="#000000" stroke-width="1.0" stroke-linejoin="round" stroke-linecap="butt" d="m825.28503 337.34247l23.02832 19.531738m0 -19.531738l-23.02832 19.531738" fill-rule="evenodd"/><path stroke="#000000" stroke-width="1.0" stroke-linejoin="round" stroke-linecap="butt" d="m820.51575 347.10834l0 0c0 -7.6276245 7.290344 -13.811035 16.283447 -13.811035l0 0c8.993103 0 16.283447 6.1834106 16.283447 13.811035l0 0c0 7.6276245 -7.290344 13.811035 -16.283447 13.811035l0 0c-8.993103 0 -16.283447 -6.1834106 -16.283447 -13.811035z" fill-rule="evenodd"/><path fill="#d9ead3" d="m874.1253 347.1063l0 0c0 -12.515564 10.463135 -22.661407 23.370117 -22.661407l0 0c6.19812 0 12.142395 2.3875427 16.525085 6.6373596c4.3827515 4.2498474 6.8449707 10.0138855 6.8449707 16.024048l0 0c0 12.515564 -10.463135 22.661438 -23.370056 22.661438l0 0c-12.906982 0 -23.370117 -10.145874 -23.370117 -22.661438z" fill-rule="evenodd"/><path fill="#000000" fill-opacity="0.0" d="m897.4954 324.4449l0 45.322845m-23.370117 -22.661438l46.740173 0" fill-rule="evenodd"/><path fill="#000000" fill-opacity="0.0" d="m874.1253 347.1063l0 0c0 -12.515564 10.463135 -22.661407 23.370117 -22.661407l0 0c6.19812 0 12.142395 2.3875427 16.525085 6.6373596c4.3827515 4.2498474 6.8449707 10.0138855 6.8449707 16.024048l0 0c0 12.515564 -10.463135 22.661438 -23.370056 22.661438l0 0c-12.906982 0 -23.370117 -10.145874 -23.370117 -22.661438z" fill-rule="evenodd"/><path stroke="#000000" stroke-width="1.0" stroke-linejoin="round" stroke-linecap="butt" d="m897.4954 324.4449l0 45.322845m-23.370117 -22.661438l46.740173 0" fill-rule="evenodd"/><path stroke="#000000" stroke-width="1.0" stroke-linejoin="round" stroke-linecap="butt" d="m874.1253 347.1063l0 0c0 -12.515564 10.463135 -22.661407 23.370117 -22.661407l0 0c6.19812 0 12.142395 2.3875427 16.525085 6.6373596c4.3827515 4.2498474 6.8449707 10.0138855 6.8449707 16.024048l0 0c0 12.515564 -10.463135 22.661438 -23.370056 22.661438l0 0c-12.906982 0 -23.370117 -10.145874 -23.370117 -22.661438z" fill-rule="evenodd"/><path fill="#6fa8dc" d="m881.2093 347.10834l0 0c0 -7.6276245 7.290344 -13.811035 16.283508 -13.811035l0 0c8.993103 0 16.283447 6.1834106 16.283447 13.811035l0 0c0 7.6276245 -7.290344 13.811035 -16.283447 13.811035l0 0c-8.993164 0 -16.283508 -6.1834106 -16.283508 -13.811035z" fill-rule="evenodd"/><path fill="#000000" fill-opacity="0.0" d="m885.97864 337.34247l23.02826 19.531738m0 -19.531738l-23.02826 19.531738" fill-rule="evenodd"/><path fill="#000000" fill-opacity="0.0" d="m881.2093 347.10834l0 0c0 -7.6276245 7.290344 -13.811035 16.283508 -13.811035l0 0c8.993103 0 16.283447 6.1834106 16.283447 13.811035l0 0c0 7.6276245 -7.290344 13.811035 -16.283447 13.811035l0 0c-8.993164 0 -16.283508 -6.1834106 -16.283508 -13.811035z" fill-rule="evenodd"/><path stroke="#000000" stroke-width="1.0" stroke-linejoin="round" stroke-linecap="butt" d="m885.97864 337.34247l23.02826 19.531738m0 -19.531738l-23.02826 19.531738" fill-rule="evenodd"/><path stroke="#000000" stroke-width="1.0" stroke-linejoin="round" stroke-linecap="butt" d="m881.2093 347.10834l0 0c0 -7.6276245 7.290344 -13.811035 16.283508 -13.811035l0 0c8.993103 0 16.283447 6.1834106 16.283447 13.811035l0 0c0 7.6276245 -7.290344 13.811035 -16.283447 13.811035l0 0c-8.993164 0 -16.283508 -6.1834106 -16.283508 -13.811035z" fill-rule="evenodd"/><path fill="#d9ead3" d="m504.06766 347.99814l0 0c0 -12.515564 10.463165 -22.661438 23.370087 -22.661438l0 0c6.19812 0 12.142395 2.3875427 16.525146 6.63739c4.3827515 4.2498474 6.8449097 10.013855 6.8449097 16.024048l0 0c0 12.515533 -10.463135 22.661407 -23.370056 22.661407l0 0c-12.906921 0 -23.370087 -10.145874 -23.370087 -22.661407z" fill-rule="evenodd"/><path fill="#000000" fill-opacity="0.0" d="m527.43774 325.3367l0 45.322845m-23.370087 -22.661407l46.740143 0" fill-rule="evenodd"/><path fill="#000000" fill-opacity="0.0" d="m504.06766 347.99814l0 0c0 -12.515564 10.463165 -22.661438 23.370087 -22.661438l0 0c6.19812 0 12.142395 2.3875427 16.525146 6.63739c4.3827515 4.2498474 6.8449097 10.013855 6.8449097 16.024048l0 0c0 12.515533 -10.463135 22.661407 -23.370056 22.661407l0 0c-12.906921 0 -23.370087 -10.145874 -23.370087 -22.661407z" fill-rule="evenodd"/><path stroke="#000000" stroke-width="1.0" stroke-linejoin="round" stroke-linecap="butt" d="m527.43774 325.3367l0 45.322845m-23.370087 -22.661407l46.740143 0" fill-rule="evenodd"/><path stroke="#000000" stroke-width="1.0" stroke-linejoin="round" stroke-linecap="butt" d="m504.06766 347.99814l0 0c0 -12.515564 10.463165 -22.661438 23.370087 -22.661438l0 0c6.19812 0 12.142395 2.3875427 16.525146 6.63739c4.3827515 4.2498474 6.8449097 10.013855 6.8449097 16.024048l0 0c0 12.515533 -10.463135 22.661407 -23.370056 22.661407l0 0c-12.906921 0 -23.370087 -10.145874 -23.370087 -22.661407z" fill-rule="evenodd"/><path fill="#6fa8dc" d="m511.15164 348.00015l0 0c0 -7.627594 7.2903748 -13.811005 16.283478 -13.811005l0 0c8.993103 0 16.283447 6.1834106 16.283447 13.811005l0 0c0 7.6276245 -7.290344 13.811035 -16.283447 13.811035l0 0c-8.993103 0 -16.283478 -6.1834106 -16.283478 -13.811035z" fill-rule="evenodd"/><path fill="#000000" fill-opacity="0.0" d="m515.92096 338.23428l23.02832 19.531738m0 -19.531738l-23.02832 19.531738" fill-rule="evenodd"/><path fill="#000000" fill-opacity="0.0" d="m511.15164 348.00015l0 0c0 -7.627594 7.2903748 -13.811005 16.283478 -13.811005l0 0c8.993103 0 16.283447 6.1834106 16.283447 13.811005l0 0c0 7.6276245 -7.290344 13.811035 -16.283447 13.811035l0 0c-8.993103 0 -16.283478 -6.1834106 -16.283478 -13.811035z" fill-rule="evenodd"/><path stroke="#000000" stroke-width="1.0" stroke-linejoin="round" stroke-linecap="butt" d="m515.92096 338.23428l23.02832 19.531738m0 -19.531738l-23.02832 19.531738" fill-rule="evenodd"/><path stroke="#000000" stroke-width="1.0" stroke-linejoin="round" stroke-linecap="butt" d="m511.15164 348.00015l0 0c0 -7.627594 7.2903748 -13.811005 16.283478 -13.811005l0 0c8.993103 0 16.283447 6.1834106 16.283447 13.811005l0 0c0 7.6276245 -7.290344 13.811035 -16.283447 13.811035l0 0c-8.993103 0 -16.283478 -6.1834106 -16.283478 -13.811035z" fill-rule="evenodd"/><path fill="#d9ead3" d="m564.7612 347.6648l0 0c0 -12.515564 10.463135 -22.661407 23.370056 -22.661407l0 0c6.198181 0 12.142395 2.3875122 16.525146 6.6373596c4.3827515 4.2498474 6.8449707 10.013855 6.8449707 16.024048l0 0c0 12.515564 -10.463135 22.661407 -23.370117 22.661407l0 0c-12.906921 0 -23.370056 -10.1458435 -23.370056 -22.661407z" fill-rule="evenodd"/><path fill="#000000" fill-opacity="0.0" d="m588.1313 325.0034l0 45.322815m-23.370056 -22.661407l46.740173 0" fill-rule="evenodd"/><path fill="#000000" fill-opacity="0.0" d="m564.7612 347.6648l0 0c0 -12.515564 10.463135 -22.661407 23.370056 -22.661407l0 0c6.198181 0 12.142395 2.3875122 16.525146 6.6373596c4.3827515 4.2498474 6.8449707 10.013855 6.8449707 16.024048l0 0c0 12.515564 -10.463135 22.661407 -23.370117 22.661407l0 0c-12.906921 0 -23.370056 -10.1458435 -23.370056 -22.661407z" fill-rule="evenodd"/><path stroke="#000000" stroke-width="1.0" stroke-linejoin="round" stroke-linecap="butt" d="m588.1313 325.0034l0 45.322815m-23.370056 -22.661407l46.740173 0" fill-rule="evenodd"/><path stroke="#000000" stroke-width="1.0" stroke-linejoin="round" stroke-linecap="butt" d="m564.7612 347.6648l0 0c0 -12.515564 10.463135 -22.661407 23.370056 -22.661407l0 0c6.198181 0 12.142395 2.3875122 16.525146 6.6373596c4.3827515 4.2498474 6.8449707 10.013855 6.8449707 16.024048l0 0c0 12.515564 -10.463135 22.661407 -23.370117 22.661407l0 0c-12.906921 0 -23.370056 -10.1458435 -23.370056 -22.661407z" fill-rule="evenodd"/><path fill="#6fa8dc" d="m571.8452 347.66684l0 0c0 -7.6276245 7.290344 -13.811035 16.283447 -13.811035l0 0c8.993103 0 16.283508 6.1834106 16.283508 13.811035l0 0c0 7.6276245 -7.2904053 13.811005 -16.283508 13.811005l0 0c-8.993103 0 -16.283447 -6.18338 -16.283447 -13.811005z" fill-rule="evenodd"/><path fill="#000000" fill-opacity="0.0" d="m576.61456 337.90097l23.02826 19.531738m0 -19.531738l-23.02826 19.531738" fill-rule="evenodd"/><path fill="#000000" fill-opacity="0.0" d="m571.8452 347.66684l0 0c0 -7.6276245 7.290344 -13.811035 16.283447 -13.811035l0 0c8.993103 0 16.283508 6.1834106 16.283508 13.811035l0 0c0 7.6276245 -7.2904053 13.811005 -16.283508 13.811005l0 0c-8.993103 0 -16.283447 -6.18338 -16.283447 -13.811005z" fill-rule="evenodd"/><path stroke="#000000" stroke-width="1.0" stroke-linejoin="round" stroke-linecap="butt" d="m576.61456 337.90097l23.02826 19.531738m0 -19.531738l-23.02826 19.531738" fill-rule="evenodd"/><path stroke="#000000" stroke-width="1.0" stroke-linejoin="round" stroke-linecap="butt" d="m571.8452 347.66684l0 0c0 -7.6276245 7.290344 -13.811035 16.283447 -13.811035l0 0c8.993103 0 16.283508 6.1834106 16.283508 13.811035l0 0c0 7.6276245 -7.2904053 13.811005 -16.283508 13.811005l0 0c-8.993103 0 -16.283447 -6.18338 -16.283447 -13.811005z" fill-rule="evenodd"/><path fill="#d9ead3" d="m625.4548 347.6648l0 0c0 -12.515564 10.463196 -22.661407 23.370117 -22.661407l0 0c6.19812 0 12.142395 2.3875122 16.525146 6.6373596c4.3827515 4.2498474 6.8449097 10.013855 6.8449097 16.024048l0 0c0 12.515564 -10.463135 22.661407 -23.370056 22.661407l0 0c-12.906921 0 -23.370117 -10.1458435 -23.370117 -22.661407z" fill-rule="evenodd"/><path fill="#000000" fill-opacity="0.0" d="m648.8249 325.0034l0 45.322815m-23.370117 -22.661407l46.740173 0" fill-rule="evenodd"/><path fill="#000000" fill-opacity="0.0" d="m625.4548 347.6648l0 0c0 -12.515564 10.463196 -22.661407 23.370117 -22.661407l0 0c6.19812 0 12.142395 2.3875122 16.525146 6.6373596c4.3827515 4.2498474 6.8449097 10.013855 6.8449097 16.024048l0 0c0 12.515564 -10.463135 22.661407 -23.370056 22.661407l0 0c-12.906921 0 -23.370117 -10.1458435 -23.370117 -22.661407z" fill-rule="evenodd"/><path stroke="#000000" stroke-width="1.0" stroke-linejoin="round" stroke-linecap="butt" d="m648.8249 325.0034l0 45.322815m-23.370117 -22.661407l46.740173 0" fill-rule="evenodd"/><path stroke="#000000" stroke-width="1.0" stroke-linejoin="round" stroke-linecap="butt" d="m625.4548 347.6648l0 0c0 -12.515564 10.463196 -22.661407 23.370117 -22.661407l0 0c6.19812 0 12.142395 2.3875122 16.525146 6.6373596c4.3827515 4.2498474 6.8449097 10.013855 6.8449097 16.024048l0 0c0 12.515564 -10.463135 22.661407 -23.370056 22.661407l0 0c-12.906921 0 -23.370117 -10.1458435 -23.370117 -22.661407z" fill-rule="evenodd"/><path fill="#6fa8dc" d="m632.53876 347.66684l0 0c0 -7.6276245 7.2904053 -13.811035 16.283508 -13.811035l0 0c8.993103 0 16.283447 6.1834106 16.283447 13.811035l0 0c0 7.6276245 -7.290344 13.811005 -16.283447 13.811005l0 0c-8.993103 0 -16.283508 -6.18338 -16.283508 -13.811005z" fill-rule="evenodd"/><path fill="#000000" fill-opacity="0.0" d="m637.3081 337.90097l23.02832 19.531738m0 -19.531738l-23.02832 19.531738" fill-rule="evenodd"/><path fill="#000000" fill-opacity="0.0" d="m632.53876 347.66684l0 0c0 -7.6276245 7.2904053 -13.811035 16.283508 -13.811035l0 0c8.993103 0 16.283447 6.1834106 16.283447 13.811035l0 0c0 7.6276245 -7.290344 13.811005 -16.283447 13.811005l0 0c-8.993103 0 -16.283508 -6.18338 -16.283508 -13.811005z" fill-rule="evenodd"/><path stroke="#000000" stroke-width="1.0" stroke-linejoin="round" stroke-linecap="butt" d="m637.3081 337.90097l23.02832 19.531738m0 -19.531738l-23.02832 19.531738" fill-rule="evenodd"/><path stroke="#000000" stroke-width="1.0" stroke-linejoin="round" stroke-linecap="butt" d="m632.53876 347.66684l0 0c0 -7.6276245 7.2904053 -13.811035 16.283508 -13.811035l0 0c8.993103 0 16.283447 6.1834106 16.283447 13.811035l0 0c0 7.6276245 -7.290344 13.811005 -16.283447 13.811005l0 0c-8.993103 0 -16.283508 -6.18338 -16.283508 -13.811005z" fill-rule="evenodd"/><path fill="#000000" fill-opacity="0.0" d="m647.40405 308.12973l0 30.64566" fill-rule="evenodd"/><path stroke="#000000" stroke-width="1.0" stroke-linejoin="round" stroke-linecap="butt" d="m647.40405 308.12973l0 30.64566" fill-rule="evenodd"/><path fill="#f6b26b" d="m647.95636 308.14563l13.637817 7.3700867l-13.637817 7.3700867z" fill-rule="evenodd"/><path stroke="#000000" stroke-width="1.0" stroke-linejoin="round" stroke-linecap="butt" d="m647.95636 308.14563l13.637817 7.3700867l-13.637817 7.3700867z" fill-rule="evenodd"/><path fill="#000000" fill-opacity="0.0" d="m589.5467 308.12973l0 30.64566" fill-rule="evenodd"/><path stroke="#000000" stroke-width="1.0" stroke-linejoin="round" stroke-linecap="butt" d="m589.5467 308.12973l0 30.64566" fill-rule="evenodd"/><path fill="#f6b26b" d="m590.099 308.14563l13.637817 7.3700867l-13.637817 7.3700867z" fill-rule="evenodd"/><path stroke="#000000" stroke-width="1.0" stroke-linejoin="round" stroke-linecap="butt" d="m590.099 308.14563l13.637817 7.3700867l-13.637817 7.3700867z" fill-rule="evenodd"/><path fill="#000000" fill-opacity="0.0" d="m526.6909 308.12973l0 30.64566" fill-rule="evenodd"/><path stroke="#000000" stroke-width="1.0" stroke-linejoin="round" stroke-linecap="butt" d="m526.6909 308.12973l0 30.64566" fill-rule="evenodd"/><path fill="#f6b26b" d="m527.2432 308.14563l13.637817 7.3700867l-13.637817 7.3700867z" fill-rule="evenodd"/><path stroke="#000000" stroke-width="1.0" stroke-linejoin="round" stroke-linecap="butt" d="m527.2432 308.14563l13.637817 7.3700867l-13.637817 7.3700867z" fill-rule="evenodd"/></g></svg>