<?xml version="1.0" encoding="utf-8"?>
<!-- Generator: Adobe Illustrator 16.0.4, SVG Export Plug-In . SVG Version: 6.00 Build 0)  -->
<!DOCTYPE svg PUBLIC "-//W3C//DTD SVG 1.1//EN" "http://www.w3.org/Graphics/SVG/1.1/DTD/svg11.dtd">
<svg version="1.1" id="Layer_1" xmlns="http://www.w3.org/2000/svg" xmlns:xlink="http://www.w3.org/1999/xlink" x="0px" y="0px"
	 width="348.479px" height="151.33px" viewBox="0 0 348.479 151.33" enable-background="new 0 0 348.479 151.33"
	 xml:space="preserve">
<g>
	<g>
		<g>
			<defs>
				<rect id="SVGID_1_" x="42.179" y="4.419" width="302.4" height="111.601"/>
			</defs>
			<clipPath id="SVGID_2_">
				<use xlink:href="#SVGID_1_"  overflow="visible"/>
			</clipPath>
			
				<line clip-path="url(#SVGID_2_)" fill="none" stroke="#000000" stroke-width="0.75" stroke-linecap="round" stroke-linejoin="round" stroke-miterlimit="10" stroke-dasharray="2.25,3.75" x1="42.179" y1="60.219" x2="344.579" y2="60.219"/>
			
				<polyline clip-path="url(#SVGID_2_)" fill="none" stroke="#8A8A8A" stroke-width="0.75" stroke-linecap="round" stroke-linejoin="round" stroke-miterlimit="10" points="
				31.379,62.779 31.969,60.129 32.729,56.249 33.489,52.529 34.239,47.989 35,43.409 35.75,39.539 36.509,36.249 37.27,33.069 
				38.02,30.299 38.779,28.219 39.529,26.729 40.29,25.669 41.049,25.209 41.799,25.529 42.56,27.329 43.31,30.429 44.069,33.719 
				44.83,36.089 45.58,38.109 46.339,39.879 47.089,40.409 47.85,40.199 48.609,39.699 49.359,39.379 50.12,38.939 50.87,38.129 
				51.629,37.52 52.389,37.679 53.139,38.749 53.899,40.35 54.649,42.199 55.409,44.049 56.169,46.039 56.919,48.319 57.679,50.569 
				58.429,52.779 59.189,55.039 59.949,57.639 60.699,60.6 61.459,63.389 62.209,65.499 62.969,67.129 63.729,68.579 64.479,69.509 
				65.239,69.579 65.989,68.31 66.75,65.929 67.509,63.199 68.259,60.839 69.02,58.619 69.77,56.169 70.529,54.049 71.29,52.299 
				72.04,50.749 72.799,49.6 73.549,48.749 74.31,48.049 75.069,47.319 75.819,46.489 76.58,45.639 77.33,44.939 78.089,44.509 
				78.85,44.399 79.6,44.52 80.359,44.799 81.109,45.149 81.87,45.489 82.629,46.1 83.379,46.979 84.139,47.699 84.889,48.159 
				85.649,48.529 86.409,48.909 87.159,49.31 87.919,49.52 88.669,49.319 89.429,48.609 90.189,47.549 90.939,46.249 91.699,44.869 
				92.449,43.119 93.209,40.949 93.969,38.789 94.719,37.089 95.479,35.749 96.229,34.529 96.989,33.659 97.75,32.839 98.5,32.399 
				99.259,32.85 100.009,33.839 100.77,35.219 101.529,36.889 102.279,39.389 103.04,42.789 103.79,46.159 104.549,48.579 
				105.31,50.089 106.06,51.219 106.819,51.859 107.569,51.879 108.33,50.729 109.089,48.729 109.839,47.009 110.6,44.889 
				111.35,42.919 112.109,41.999 112.87,41.229 113.62,40.999 114.379,41.659 115.129,43.52 115.889,46.379 116.649,49.85 
				117.399,53.52 118.159,56.999 118.909,60.639 119.669,64.719 120.429,68.689 121.179,72.02 121.939,74.85 122.689,77.429 
				123.449,79.329 124.209,80.619 124.959,81.359 125.719,81.329 126.469,80.639 127.229,79.399 127.989,77.709 128.739,75.339 
				129.5,72.239 130.25,68.819 131.009,65.469 131.77,61.739 132.52,57.379 133.279,53.089 134.029,49.579 134.79,46.609 
				135.549,43.839 136.299,41.839 137.06,40.749 137.81,40.249 138.569,40.789 139.33,42.419 140.08,44.31 140.839,45.609 
				141.589,46.449 142.35,47.319 143.109,47.919 143.859,47.989 144.62,47.189 145.37,45.739 146.129,44.149 146.889,42.919 
				147.639,41.799 148.399,40.609 149.149,39.959 149.909,40.799 150.669,41.759 151.419,41.839 152.179,41.869 152.929,41.839 
				153.689,41.709 154.449,41.089 155.199,40.06 155.959,39.259 156.709,39.319 157.469,40.239 158.229,41.629 158.979,43.56 
				159.739,46.069 160.489,49.879 161.25,54.659 162.009,58.969 162.759,63.02 163.52,67.369 164.27,71.069 165.029,74.219 
				165.79,77.259 166.54,79.799 167.299,81.419 168.049,81.77 168.81,81.119 169.569,79.959 170.319,78.81 171.08,77.219 
				171.83,74.929 172.589,72.699 173.35,71.299 174.1,71.109 174.859,71.509 175.609,71.689 176.37,72.319 177.129,72.899 
				177.879,72.489 178.64,71.859 179.39,71.02 180.149,69.999 180.909,68.749 181.659,67.229 182.419,65.52 183.169,63.679 
				183.929,61.689 184.689,59.539 185.439,57.31 186.199,55.089 186.949,52.479 187.71,49.52 188.47,46.939 189.22,44.589 
				189.979,42.259 190.729,40.639 191.489,39.889 192.249,39.629 192.999,39.679 193.759,39.869 194.509,40.329 195.27,41.239 
				196.029,42.489 196.779,44.009 197.54,45.719 198.29,47.6 199.05,49.659 199.81,51.929 200.56,54.679 201.319,57.869 
				202.069,61.009 202.829,64.02 203.589,67.029 204.339,70.279 205.1,73.85 205.85,77.31 206.609,80.229 207.37,82.699 
				208.12,84.939 208.88,86.659 209.63,87.6 210.39,87.319 211.149,86.079 211.899,84.579 212.659,83.529 213.409,82.56 
				214.169,81.329 214.929,80.619 215.679,80.6 216.439,80.889 217.189,81.789 217.949,83.279 218.71,84.919 219.46,86.279 
				220.22,87.569 220.97,88.979 221.729,90.029 222.489,90.839 223.239,91.439 223.999,91.56 224.749,91.369 225.509,90.909 
				226.27,90.199 227.02,89.209 227.779,87.929 228.529,86.379 229.29,83.949 230.05,81.469 230.8,79.249 231.56,76.619 
				232.31,74.369 233.069,73.299 233.829,73.779 234.579,75.399 235.339,77.749 236.089,80.449 236.85,83.1 237.609,85.299 
				238.359,87.339 239.12,89.499 239.87,91.419 240.63,92.749 241.39,93.439 242.14,93.729 242.899,93.679 243.649,93.329 
				244.409,92.649 245.169,91.589 245.919,90.169 246.679,88.419 247.429,86.369 248.189,84.06 248.949,81.219 249.699,77.829 
				250.46,74.319 251.21,71.109 251.97,67.799 252.729,64.159 253.479,60.869 254.239,58.6 254.989,57.6 255.749,57.35 
				256.509,57.419 257.259,58.859 258.02,60.539 258.77,61.6 259.529,63.179 260.29,64.429 261.04,64.539 261.8,63.159 
				262.55,60.799 263.31,57.959 264.069,55.129 264.819,51.749 265.579,47.589 266.329,43.6 267.089,40.729 267.85,38.819 
				268.6,37.329 269.359,36.669 270.109,37.239 270.87,40.039 271.63,43.439 272.38,46.609 273.14,50.729 273.89,55.149 
				274.649,59.239 275.409,62.829 276.159,66.219 276.92,69.509 277.67,72.77 278.43,76.379 279.189,80.339 279.939,84.169 
				280.699,87.409 281.449,89.949 282.21,92.06 282.97,93.81 283.72,95.299 284.479,96.429 285.229,97.179 285.989,97.579 
				286.75,97.6 287.5,97.199 288.26,96.339 289.01,94.979 289.77,93.169 290.529,90.969 291.279,88.449 292.04,85.509 
				292.79,82.079 293.55,78.31 294.31,74.35 295.06,69.799 295.819,64.739 296.569,60.089 297.329,55.279 298.089,50.679 
				298.839,46.859 299.6,43.179 300.35,40.079 301.109,37.979 301.87,37.119 302.62,37.169 303.38,37.789 304.13,38.6 
				304.89,39.959 305.649,42.069 306.399,44.409 307.159,46.449 307.909,48.249 308.669,50.1 309.429,51.799 310.179,53.239 
				310.939,54.629 311.689,56.219 312.449,57.899 313.21,59.52 313.96,60.919 314.72,61.939 315.47,62.549 316.229,62.869 
				316.989,62.919 317.739,62.739 318.499,61.939 319.249,60.509 320.009,59.1 320.77,58.339 321.52,58.1 322.279,57.979 
				323.029,58.189 323.79,59.139 324.55,60.6 325.3,61.869 326.06,62.77 326.81,63.629 327.569,64.539 328.329,65.6 329.079,66.909 
				329.839,68.56 330.589,70.509 331.35,72.589 332.109,74.649 332.859,77.199 333.62,80.359 334.37,83.369 335.13,85.449 
				335.89,86.949 336.64,88.229 337.399,88.589 338.149,87.799 338.909,86.329 339.669,83.989 340.419,80.669 341.179,76.719 
				341.929,72.499 342.688,68.359 343.45,63.979 344.2,59.119 344.96,54.249 345.71,49.85 346.47,45.689 347.229,41.499 
				347.979,37.639 348.739,34.479 349.489,31.609 350.249,28.979 351.009,27.479 351.759,27.619 352.519,28.429 353.269,29.949 
				354.03,32.629 354.79,35.619 355.38,37.579 			"/>
			
				<polyline clip-path="url(#SVGID_2_)" fill="none" stroke="#FFA500" stroke-width="0.75" stroke-linecap="round" stroke-linejoin="round" stroke-miterlimit="10" points="
				31.379,71.639 31.969,71.779 32.729,71.529 33.489,70.389 34.239,68.459 35,66.339 35.75,64.619 36.509,63.139 37.27,61.52 
				38.02,60.06 38.779,59.079 39.529,59.069 40.29,59.839 41.049,60.629 41.799,60.709 42.56,60.079 43.31,59.159 44.069,57.819 
				44.83,55.929 45.58,52.56 46.339,49.039 47.089,46.209 47.85,43.069 48.609,40.139 49.359,37.949 50.12,36.629 50.87,35.879 
				51.629,35.479 52.389,35.249 53.139,35.109 53.899,35.159 54.649,35.479 55.409,36.179 56.169,37.149 56.919,38.389 
				57.679,40.149 58.429,42.989 59.189,46.179 59.949,49.569 60.699,53.609 61.459,57.459 62.209,60.299 62.969,62.109 
				63.729,63.469 64.479,64.439 65.239,65.079 65.989,64.949 66.75,63.989 67.509,62.81 68.259,62.039 69.02,61.81 69.77,61.759 
				70.529,61.739 71.29,61.619 72.04,61.509 72.799,61.479 73.549,61.499 74.31,61.589 75.069,61.789 75.819,62.159 76.58,62.629 
				77.33,63.079 78.089,63.369 78.85,63.659 79.6,64.029 80.359,64.299 81.109,64.259 81.87,63.739 82.629,62.279 83.379,60.209 
				84.139,58.419 84.889,56.259 85.649,54.319 86.409,53.529 87.159,53.049 87.919,52.989 88.669,53.469 89.429,54.999 
				90.189,57.499 90.939,60.149 91.699,62.159 92.449,63.659 93.209,65.129 93.969,66.249 94.719,66.659 95.479,65.969 
				96.229,64.569 96.989,63.259 97.75,61.089 98.5,58.989 99.259,58.139 100.009,57.449 100.77,57.179 101.529,57.569 
				102.279,59.339 103.04,62.27 103.79,65.209 104.549,66.969 105.31,67.549 106.06,67.649 106.819,67.189 107.569,66.079 
				108.33,63.659 109.089,60.239 109.839,57.219 110.6,54.249 111.35,51.369 112.109,49.069 112.87,46.81 113.62,44.979 
				114.379,43.959 115.129,43.749 115.889,44.1 116.649,45.039 117.399,46.589 118.159,48.77 118.909,52.089 119.669,56.499 
				120.429,61.219 121.179,65.459 121.939,69.859 122.689,74.609 123.449,78.219 124.209,81.06 124.959,83.169 125.719,83.739 
				126.469,83.339 127.229,82.119 127.989,80.229 128.739,77.149 129.5,72.81 130.25,68.02 131.009,63.619 131.77,59.089 
				132.52,53.959 133.279,49.109 134.029,45.429 134.79,42.829 135.549,40.789 136.299,39.509 137.06,39.85 137.81,40.719 
				138.569,41.609 139.33,43.339 140.08,45.149 140.839,46.299 141.589,46.699 142.35,46.819 143.109,46.719 143.859,46.499 
				144.62,45.909 145.37,44.929 146.129,43.979 146.889,43.469 147.639,43.249 148.399,43.119 149.149,43.389 149.909,44.549 
				150.669,45.899 151.419,47.249 152.179,49.009 152.929,50.699 153.689,51.85 154.449,52.259 155.199,52.239 155.959,52.039 
				156.709,51.939 157.469,51.619 158.229,51.009 158.979,50.619 159.739,50.989 160.489,52.199 161.25,53.869 162.009,55.85 
				162.759,58.569 163.52,61.939 164.27,65.109 165.029,68.299 165.79,71.909 166.54,75.339 167.299,77.979 168.049,79.659 
				168.81,80.779 169.569,81.52 170.319,82.089 171.08,82.119 171.83,81.52 172.589,80.909 173.35,80.879 174.1,81.799 
				174.859,83.139 175.609,84.199 176.37,85.659 177.129,86.929 177.879,87.02 178.64,86.689 179.39,86.06 180.149,85.249 
				180.909,84.129 181.659,82.629 182.419,81.009 183.169,79.489 183.929,78.319 184.689,77.329 185.439,76.139 186.199,74.359 
				186.949,71.659 187.71,68.409 188.47,65.27 189.22,61.659 189.979,57.469 190.729,54.069 191.489,51.709 192.249,49.749 
				192.999,48.169 193.759,46.969 194.509,46.239 195.27,45.959 196.029,45.939 196.779,46.009 197.54,46.31 198.29,46.929 
				199.05,47.679 199.81,48.329 200.56,49.259 201.319,50.429 202.069,51.089 202.829,50.999 203.589,50.739 204.339,50.029 
				205.1,48.729 205.85,47.52 206.609,47.069 207.37,47.52 208.12,48.409 208.88,49.609 209.63,50.959 210.39,52.759 
				211.149,55.069 211.899,57.399 212.659,59.249 213.409,60.699 214.169,62.009 214.929,63.02 215.679,63.949 216.439,64.579 
				217.189,64.31 217.949,63.439 218.71,62.359 219.46,61.479 220.22,60.179 220.97,58.439 221.729,57.539 222.489,57.35 
				223.239,57.619 223.999,59.189 224.749,61.739 225.509,64.659 226.27,67.31 227.02,70.119 227.779,73.27 228.529,75.779 
				229.29,77.679 230.05,79.299 230.8,80.429 231.56,81.239 232.31,81.729 233.069,81.909 233.829,81.409 234.579,80.129 
				235.339,78.459 236.089,76.749 236.85,75.389 237.609,74.749 238.359,74.669 239.12,74.779 239.87,75.209 240.63,76.06 
				241.39,77.979 242.14,80.719 242.899,83.039 243.649,85.699 244.409,88.299 245.169,89.77 245.919,90.959 246.679,91.759 
				247.429,92.089 248.189,91.859 248.949,90.819 249.699,89.049 250.46,86.969 251.21,84.979 251.97,82.799 252.729,80.219 
				253.479,77.739 254.239,75.899 254.989,75.119 255.749,74.909 256.509,74.369 257.259,74.259 258.02,73.999 258.77,72.549 
				259.529,70.759 260.29,68.499 261.04,65.6 261.8,61.579 262.55,56.609 263.31,51.489 264.069,47.06 264.819,43.049 
				265.579,38.949 266.329,35.259 267.089,32.439 267.85,30.579 268.6,29.389 269.359,28.799 270.109,28.689 270.87,29.229 
				271.63,30.229 272.38,31.52 273.14,33.279 273.89,35.489 274.649,38.149 275.409,41.439 276.159,45.359 276.92,49.6 
				277.67,53.85 278.43,58.479 279.189,63.669 279.939,68.829 280.699,73.379 281.449,77.489 282.21,81.439 282.97,84.819 
				283.72,87.689 284.479,90.06 285.229,91.81 285.989,93.1 286.75,93.839 287.5,93.949 288.26,93.339 289.01,91.899 289.77,89.699 
				290.529,86.929 291.279,83.759 292.04,79.909 292.79,75.289 293.55,70.389 294.31,65.709 295.06,60.649 295.819,55.109 
				296.569,50.379 297.329,46.109 298.089,42.299 298.839,39.619 299.6,37.549 300.35,36.179 301.109,35.6 301.87,36.149 
				302.62,37.719 303.38,39.749 304.13,41.669 304.89,43.919 305.649,46.839 306.399,49.719 307.159,51.829 307.909,53.149 
				308.669,54.139 309.429,54.799 310.179,54.779 310.939,54.509 311.689,54.279 312.449,53.719 313.21,53.069 313.96,52.549 
				314.72,52.399 315.47,52.739 316.229,53.319 316.989,53.85 317.739,54.02 318.499,53.639 319.249,52.959 320.009,52.319 
				320.77,52.089 321.52,52.1 322.279,52.1 323.029,52.329 323.79,53.31 324.55,54.799 325.3,55.829 326.06,56.089 326.81,55.999 
				327.569,55.779 328.329,55.639 329.079,55.799 329.839,56.009 330.589,56.159 331.35,56.6 332.109,57.719 332.859,59.999 
				333.62,63.209 334.37,66.629 335.13,69.539 335.89,72.56 336.64,75.949 337.399,78.449 338.149,80.35 338.909,81.6 
				339.669,81.389 340.419,80.209 341.179,78.239 341.929,75.649 342.688,72.589 343.45,68.439 344.2,63.149 344.96,57.709 
				345.71,53.139 346.47,49.149 347.229,45.179 347.979,41.819 348.739,39.679 349.489,38.999 350.249,39.279 351.009,40.029 
				351.759,42.179 352.519,44.719 353.269,47.039 354.03,50.139 354.79,53.119 355.38,54.659 			"/>
			
				<polyline clip-path="url(#SVGID_2_)" fill="none" stroke="#000000" stroke-width="0.75" stroke-linecap="round" stroke-linejoin="round" stroke-miterlimit="10" points="
				31.379,76.749 31.969,73.709 32.729,68.899 33.489,63.449 34.239,56.419 35,49.199 35.75,43.169 36.509,37.85 37.27,32.419 
				38.02,27.709 38.779,24.549 39.529,23.109 40.29,22.859 41.049,23.629 41.799,25.279 42.56,28.739 43.31,34.079 44.069,39.759 
				44.83,44.27 45.58,49.009 46.339,53.289 47.089,55.259 47.85,56.27 48.609,56.509 49.359,56.149 50.12,54.419 50.87,51.27 
				51.629,47.969 52.389,45.789 53.139,44.85 53.899,44.369 54.649,44.239 55.409,44.35 56.169,44.689 56.919,45.329 57.679,46.239 
				58.429,47.029 59.189,48.179 59.949,50.399 60.699,53.249 61.459,56.359 62.209,59.359 62.969,62.819 63.729,66.969 
				64.479,70.889 65.239,73.689 65.989,75.159 66.75,75.839 67.509,75.909 68.259,75.589 69.02,74.529 69.77,72.77 70.529,71.129 
				71.29,69.299 72.04,67.389 72.799,65.709 73.549,63.889 74.31,62.219 75.069,60.969 75.819,60.189 76.58,59.669 77.33,59.35 
				78.089,59.169 78.85,59.239 79.6,59.619 80.359,60.189 81.109,60.829 81.87,61.419 82.629,62.189 83.379,63.119 84.139,63.77 
				84.889,64.279 85.649,64.619 86.409,64.669 87.159,64.639 87.919,64.299 88.669,63.429 89.429,61.859 90.189,59.739 
				90.939,57.31 91.699,54.789 92.449,51.919 93.209,48.56 93.969,45.159 94.719,42.169 95.479,39.27 96.229,36.289 96.989,33.949 
				97.75,32.229 98.5,30.979 99.259,30.35 100.009,30.169 100.77,30.469 101.529,31.31 102.279,33.289 103.04,36.35 103.79,39.6 
				104.549,42.109 105.31,44.009 106.06,45.85 106.819,47.289 107.569,47.999 108.33,47.459 109.089,46.089 109.839,44.969 
				110.6,43.389 111.35,41.869 112.109,41.369 112.87,41.039 113.62,41.06 114.379,41.639 115.129,42.81 115.889,44.469 
				116.649,46.56 117.399,49.049 118.159,51.909 118.909,55.539 119.669,59.969 120.429,64.549 121.179,68.649 121.939,72.869 
				122.689,77.319 123.449,80.629 124.209,83.039 124.959,84.659 125.719,84.999 126.469,84.52 127.229,83.1 127.989,80.609 
				128.739,76.319 129.5,70.329 130.25,63.799 131.009,57.879 131.77,51.929 132.52,45.279 133.279,39.069 134.029,34.419 
				134.79,31.509 135.549,29.56 136.299,28.239 137.06,28.649 137.81,29.6 138.569,30.159 139.33,31.419 140.08,32.709 
				140.839,33.35 141.589,33.189 142.35,32.649 143.109,31.949 143.859,31.279 144.62,30.299 145.37,28.899 146.129,27.669 
				146.889,27.169 147.639,27.429 148.399,28.089 149.149,29.129 149.909,31.409 150.669,33.869 151.419,35.579 152.179,37.409 
				152.929,39.179 153.689,40.739 154.449,41.449 155.199,41.469 155.959,41.789 156.709,43.389 157.469,46.659 158.229,50.949 
				158.979,55.739 159.739,60.479 160.489,66.189 161.25,72.85 162.009,78.399 162.759,82.829 163.52,87.009 164.27,90.219 
				165.029,92.209 165.79,93.35 166.54,93.81 167.299,93.759 168.049,92.779 168.81,90.789 169.569,88.419 170.319,86.35 
				171.08,84.1 171.83,81.329 172.589,78.869 173.35,77.539 174.1,77.989 174.859,79.409 175.609,80.479 176.37,82.27 
				177.129,83.969 177.879,83.889 178.64,83.279 179.39,82.399 180.149,81.529 180.909,80.639 181.659,79.589 182.419,78.439 
				183.169,77.259 183.929,76.529 184.689,76.189 185.439,75.439 186.199,73.529 186.949,69.829 187.71,65.06 188.47,60.409 
				189.22,54.939 189.979,48.429 190.729,43.189 191.489,39.589 192.249,36.499 192.999,33.989 193.759,32.169 194.509,31.199 
				195.27,31.02 196.029,31.339 196.779,31.85 197.54,32.449 198.29,33.329 199.05,34.589 199.81,36.369 200.56,38.719 
				201.319,41.549 202.069,44.749 202.829,48.949 203.589,53.389 204.339,57.929 205.1,63.209 205.85,68.229 206.609,72.02 
				207.37,74.379 208.12,75.909 208.88,76.789 209.63,77.219 210.39,76.469 211.149,74.509 211.899,72.539 212.659,71.779 
				213.409,72.1 214.169,72.759 214.929,74.119 215.679,77.079 216.439,80.429 217.189,83.669 217.949,87.639 218.71,91.569 
				219.46,94.689 220.22,96.999 220.97,98.969 221.729,100.549 222.489,101.539 223.239,102.179 223.999,102.719 224.749,102.969 
				225.509,102.939 226.27,102.619 227.02,101.719 227.779,100.339 228.529,99.049 229.29,97.279 230.05,95.56 230.8,94.479 
				231.56,93.339 232.31,92.509 233.069,92.369 233.829,93.249 234.579,94.969 235.339,97.179 236.089,99.539 236.85,101.699 
				237.609,103.299 238.359,104.459 239.12,105.459 239.87,106.259 240.63,106.789 241.39,106.999 242.14,106.949 242.899,106.729 
				243.649,106.439 244.409,105.959 245.169,105.319 245.919,104.569 246.679,103.589 247.429,102.279 248.189,100.499 
				248.949,97.889 249.699,94.549 250.46,91.039 251.21,87.929 251.97,84.749 252.729,81.189 253.479,78.079 254.239,76.259 
				254.989,76.169 255.749,77.119 256.509,78.239 257.259,80.999 258.02,83.909 258.77,85.669 259.529,87.829 260.29,89.359 
				261.04,89.229 261.8,87.179 262.55,83.869 263.31,79.659 264.069,74.899 264.819,68.679 265.579,60.919 266.329,53.129 
				267.089,46.85 267.85,41.569 268.6,36.35 269.359,32.089 270.109,29.699 270.87,29.81 271.63,31.009 272.38,33.06 273.14,36.589 
				273.89,40.859 274.649,45.1 275.409,49.619 276.159,54.85 276.92,60.199 277.67,65.079 278.43,69.669 279.189,74.329 
				279.939,78.759 280.699,82.679 281.449,86.039 282.21,89.039 282.97,91.689 283.72,93.909 284.479,95.759 285.229,97.389 
				285.989,98.729 286.75,99.759 287.5,100.459 288.26,100.819 289.01,100.909 289.77,100.729 290.529,100.159 291.279,99.089 
				292.04,97.579 292.79,95.699 293.55,93.319 294.31,90.299 295.06,86.35 295.819,81.649 296.569,76.799 297.329,71.129 
				298.089,65.279 298.839,59.759 299.6,53.81 300.35,48.169 301.109,43.529 301.87,39.829 302.62,36.619 303.38,34.02 
				304.13,32.199 304.89,31.249 305.649,31.069 306.399,31.509 307.159,32.399 307.909,33.779 308.669,35.729 309.429,38.159 
				310.179,41.659 310.939,45.509 311.689,49.659 312.449,54.81 313.21,60.069 313.96,64.579 314.72,67.449 315.47,68.509 
				316.229,68.379 316.989,67.419 317.739,65.929 318.499,63.02 319.249,58.529 320.009,53.939 320.77,50.709 321.52,48.489 
				322.279,46.369 323.029,44.969 323.79,45.449 324.55,47.159 325.3,47.999 326.06,47.549 326.81,46.81 327.569,45.899 
				328.329,44.909 329.079,43.949 329.839,42.439 330.589,40.369 331.35,38.679 332.109,38.31 332.859,39.989 333.62,43.089 
				334.37,46.549 335.13,49.319 335.89,52.609 336.64,56.739 337.399,59.339 338.149,59.949 338.909,59.789 339.669,58.409 
				340.419,55.679 341.179,52.219 341.929,48.689 342.688,45.699 343.45,43.199 344.2,40.719 344.96,38.259 345.71,35.839 
				346.47,33.119 347.229,30.079 347.979,27.27 348.739,25.229 349.489,23.569 350.249,22.1 351.009,21.639 351.759,22.829 
				352.519,24.609 353.269,27.009 354.03,30.52 354.79,34.159 355.38,36.369 			"/>
		</g>
	</g>
	<text transform="matrix(1 0 0 1 21.3193 117.8691)" font-family="'Helvetica'" font-size="8">0.2</text>
	<text transform="matrix(1 0 0 1 21.3193 80.8691)" font-family="'Helvetica'" font-size="8">0.4</text>
	<text transform="matrix(1 0 0 1 21.3188 43.8691)" font-family="'Helvetica'" font-size="8">0.6</text>
	<text transform="matrix(1 0 0 1 21.3193 6.8691)" font-family="'Helvetica'" font-size="8">0.8</text>
	<text transform="matrix(0 -1 1 0 7.7275 105.8193)" fill="#231F20" font-family="'Helvetica'" font-size="9">Combined Timing Value</text>
	<text transform="matrix(1 0 0 1 138.8853 147.002)" fill="#231F20" font-family="'Helvetica'" font-size="9">Chromosome Position (Mb)</text>
	<text transform="matrix(1 0 0 1 49.7842 83.291)"><tspan x="0" y="0" fill="#231F20" font-family="'Helvetica'" font-size="9">Kc</tspan><tspan x="-0.001" y="10.8" fill="#A6A8AB" font-family="'Helvetica'" font-size="9">S2</tspan><tspan x="-0.001" y="21.6" fill="#F6921E" font-family="'Helvetica'" font-size="9">Bg3</tspan></text>
	
		<line fill="none" stroke="#000000" stroke-width="0.75" stroke-linecap="round" stroke-linejoin="round" stroke-miterlimit="10" x1="42.179" y1="116.02" x2="344.579" y2="116.02"/>
	
		<line fill="none" stroke="#000000" stroke-width="0.75" stroke-linecap="round" stroke-linejoin="round" stroke-miterlimit="10" x1="42.179" y1="116.02" x2="42.179" y2="121.419"/>
	
		<line fill="none" stroke="#000000" stroke-width="0.75" stroke-linecap="round" stroke-linejoin="round" stroke-miterlimit="10" x1="117.779" y1="116.02" x2="117.779" y2="121.419"/>
	
		<line fill="none" stroke="#000000" stroke-width="0.75" stroke-linecap="round" stroke-linejoin="round" stroke-miterlimit="10" x1="193.38" y1="116.02" x2="193.38" y2="121.419"/>
	
		<line fill="none" stroke="#000000" stroke-width="0.75" stroke-linecap="round" stroke-linejoin="round" stroke-miterlimit="10" x1="268.979" y1="116.02" x2="268.979" y2="121.419"/>
	
		<line fill="none" stroke="#000000" stroke-width="0.75" stroke-linecap="round" stroke-linejoin="round" stroke-miterlimit="10" x1="344.579" y1="116.02" x2="344.579" y2="121.419"/>
	<text transform="matrix(1 0 0 1 39.6807 132.459)" font-family="'Helvetica'" font-size="8">9</text>
	<text transform="matrix(1 0 0 1 112.7808 132.459)" font-family="'Helvetica'" font-size="8">10</text>
	<text transform="matrix(1 0 0 1 188.3809 132.459)" font-family="'Helvetica'" font-size="8">11</text>
	<text transform="matrix(1 0 0 1 263.9814 132.459)" font-family="'Helvetica'" font-size="8">12</text>
	<text transform="matrix(1 0 0 1 339.5811 132.459)" font-family="'Helvetica'" font-size="8">13</text>
	
		<line fill="none" stroke="#000000" stroke-width="0.75" stroke-linecap="round" stroke-linejoin="round" stroke-miterlimit="10" x1="42.179" y1="116.02" x2="42.179" y2="4.419"/>
	
		<line fill="none" stroke="#000000" stroke-width="0.75" stroke-linecap="round" stroke-linejoin="round" stroke-miterlimit="10" x1="42.179" y1="116.02" x2="36.779" y2="116.02"/>
	
		<line fill="none" stroke="#000000" stroke-width="0.75" stroke-linecap="round" stroke-linejoin="round" stroke-miterlimit="10" x1="42.179" y1="78.819" x2="36.779" y2="78.819"/>
	
		<line fill="none" stroke="#000000" stroke-width="0.75" stroke-linecap="round" stroke-linejoin="round" stroke-miterlimit="10" x1="42.179" y1="41.619" x2="36.779" y2="41.619"/>
	
		<line fill="none" stroke="#000000" stroke-width="0.75" stroke-linecap="round" stroke-linejoin="round" stroke-miterlimit="10" x1="42.179" y1="4.419" x2="36.779" y2="4.419"/>
</g>
</svg>
