<svg version="1.1" viewBox="0.0 0.0 960.0 540.0" fill="none" stroke="none" stroke-linecap="square" stroke-miterlimit="10" xmlns:xlink="http://www.w3.org/1999/xlink" xmlns="http://www.w3.org/2000/svg"><clipPath id="g1244087a3bd_0_0.0"><path d="m0 0l960.0 0l0 540.0l-960.0 0l0 -540.0z" clip-rule="nonzero"/></clipPath><g clip-path="url(#g1244087a3bd_0_0.0)"><path fill="#ffffff" d="m0 0l960.0 0l0 540.0l-960.0 0z" fill-rule="evenodd"/><path fill="#e06666" d="m399.4462 413.04373l20.2117 -20.2117l28.584442 0l20.211731 20.2117l0 31.293121l-20.211731 20.2117l-28.584442 0l-20.2117 -20.2117z" fill-rule="evenodd"/><path stroke="#ff0000" stroke-width="1.0" stroke-linejoin="round" stroke-linecap="butt" d="m399.4462 413.04373l20.2117 -20.2117l28.584442 0l20.211731 20.2117l0 31.293121l-20.211731 20.2117l-28.584442 0l-20.2117 -20.2117z" fill-rule="evenodd"/><path fill="#ffffff" d="m17.496012 373.98294l0 0c0 -11.602325 34.900635 -21.007874 77.95276 -21.007874l0 0c43.052116 0 77.95275 9.405548 77.95275 21.007874l0 0c0 11.602325 -34.900635 21.007874 -77.95275 21.007874l0 0c-43.05212 0 -77.95276 -9.405548 -77.95276 -21.007874z" fill-rule="evenodd"/><path stroke="#000000" stroke-width="4.0" stroke-linejoin="round" stroke-linecap="butt" d="m17.496012 373.98294l0 0c0 -11.602325 34.900635 -21.007874 77.95276 -21.007874l0 0c43.052116 0 77.95275 9.405548 77.95275 21.007874l0 0c0 11.602325 -34.900635 21.007874 -77.95275 21.007874l0 0c-43.05212 0 -77.95276 -9.405548 -77.95276 -21.007874z" fill-rule="evenodd"/><path fill="#000000" fill-opacity="0.0" d="m197.28609 373.85696l-20.881882 0.25195312" fill-rule="evenodd"/><path stroke="#000000" stroke-width="4.0" stroke-linejoin="round" stroke-linecap="butt" d="m197.28609 373.85696l-20.881882 0.25195312" fill-rule="evenodd"/><path fill="#ffffff" d="m196.02628 373.98294c0 -11.602325 51.229904 -21.007874 114.4252 -21.007874l0 0c63.195282 0 114.4252 9.405548 114.4252 21.007874l0 0c0 11.602325 -51.22992 21.007874 -114.4252 21.007874l0 0c-63.195297 0 -114.4252 -9.405548 -114.4252 -21.007874z" fill-rule="evenodd"/><path stroke="#000000" stroke-width="4.0" stroke-linejoin="round" stroke-linecap="butt" d="m196.02628 373.98294c0 -11.602325 51.229904 -21.007874 114.4252 -21.007874l0 0c63.195282 0 114.4252 9.405548 114.4252 21.007874l0 0c0 11.602325 -51.22992 21.007874 -114.4252 21.007874l0 0c-63.195297 0 -114.4252 -9.405548 -114.4252 -21.007874z" fill-rule="evenodd"/><path fill="#000000" fill-opacity="0.0" d="m445.0 373.85696l-20.881897 0.25195312" fill-rule="evenodd"/><path stroke="#000000" stroke-width="4.0" stroke-linejoin="round" stroke-linecap="butt" d="m445.0 373.85696l-20.881897 0.25195312" fill-rule="evenodd"/><path fill="#ffffff" d="m447.50134 373.98294c0 -11.602325 51.22989 -21.007874 114.42517 -21.007874l0 0c63.195312 0 114.42523 9.405548 114.42523 21.007874l0 0c0 11.602325 -51.22992 21.007874 -114.42523 21.007874l0 0c-63.195282 0 -114.42517 -9.405548 -114.42517 -21.007874z" fill-rule="evenodd"/><path stroke="#000000" stroke-width="4.0" stroke-linejoin="round" stroke-linecap="butt" d="m447.50134 373.98294c0 -11.602325 51.22989 -21.007874 114.42517 -21.007874l0 0c63.195312 0 114.42523 9.405548 114.42523 21.007874l0 0c0 11.602325 -51.22992 21.007874 -114.42523 21.007874l0 0c-63.195282 0 -114.42517 -9.405548 -114.42517 -21.007874z" fill-rule="evenodd"/><path fill="#000000" fill-opacity="0.0" d="m699.7349 373.85696l-20.881897 0.25195312" fill-rule="evenodd"/><path stroke="#000000" stroke-width="4.0" stroke-linejoin="round" stroke-linecap="butt" d="m699.7349 373.85696l-20.881897 0.25195312" fill-rule="evenodd"/><path fill="#ffffff" d="m698.9763 373.98294l0 0c0 -11.602325 34.900635 -21.007874 77.95276 -21.007874l0 0c43.052124 0 77.95276 9.405548 77.95276 21.007874l0 0c0 11.602325 -34.900635 21.007874 -77.95276 21.007874l0 0c-43.052124 0 -77.95276 -9.405548 -77.95276 -21.007874z" fill-rule="evenodd"/><path stroke="#000000" stroke-width="4.0" stroke-linejoin="round" stroke-linecap="butt" d="m698.9763 373.98294l0 0c0 -11.602325 34.900635 -21.007874 77.95276 -21.007874l0 0c43.052124 0 77.95276 9.405548 77.95276 21.007874l0 0c0 11.602325 -34.900635 21.007874 -77.95276 21.007874l0 0c-43.052124 0 -77.95276 -9.405548 -77.95276 -21.007874z" fill-rule="evenodd"/><path fill="#000000" fill-opacity="0.0" d="m855.626 349.99475l88.346436 0l0 42.015747l-88.346436 0z" fill-rule="evenodd"/><path fill="#000000" d="m872.17285 373.36786l1.609375 0.21875q-0.265625 1.65625 -1.359375 2.609375q-1.078125 0.9375 -2.671875 0.9375q-1.984375 0 -3.1875 -1.296875q-1.203125 -1.296875 -1.203125 -3.71875q0 -1.578125 0.515625 -2.75q0.515625 -1.171875 1.578125 -1.75q1.0625 -0.59375 2.3125 -0.59375q1.578125 0 2.578125 0.796875q1.0 0.796875 1.28125 2.265625l-1.59375 0.234375q-0.234375 -0.96875 -0.8125 -1.453125q-0.578125 -0.5 -1.390625 -0.5q-1.234375 0 -2.015625 0.890625q-0.78125 0.890625 -0.78125 2.8125q0 1.953125 0.75 2.84375q0.75 0.875 1.953125 0.875q0.96875 0 1.609375 -0.59375q0.65625 -0.59375 0.828125 -1.828125zm9.28125 3.546875l0 -1.21875q-0.90625 1.4375 -2.703125 1.4375q-1.15625 0 -2.125 -0.640625q-0.96875 -0.640625 -1.5 -1.78125q-0.53125 -1.140625 -0.53125 -2.625q0 -1.453125 0.484375 -2.625q0.484375 -1.1875 1.4375 -1.8125q0.96875 -0.625 2.171875 -0.625q0.875 0 1.546875 0.375q0.6875 0.359375 1.109375 0.953125l0 -4.796875l1.640625 0l0 13.359375l-1.53125 0zm-5.171875 -4.828125q0 1.859375 0.78125 2.78125q0.78125 0.921875 1.84375 0.921875q1.078125 0 1.828125 -0.875q0.75 -0.890625 0.75 -2.6875q0 -1.984375 -0.765625 -2.90625q-0.765625 -0.9375 -1.890625 -0.9375q-1.078125 0 -1.8125 0.890625q-0.734375 0.890625 -0.734375 2.8125zm15.594482 1.28125l1.609375 0.21875q-0.265625 1.65625 -1.359375 2.609375q-1.078125 0.9375 -2.671875 0.9375q-1.984375 0 -3.1875 -1.296875q-1.203125 -1.296875 -1.203125 -3.71875q0 -1.578125 0.515625 -2.75q0.515625 -1.171875 1.578125 -1.75q1.0625 -0.59375 2.3125 -0.59375q1.578125 0 2.578125 0.796875q1.0 0.796875 1.28125 2.265625l-1.59375 0.234375q-0.234375 -0.96875 -0.8125 -1.453125q-0.578125 -0.5 -1.390625 -0.5q-1.234375 0 -2.015625 0.890625q-0.78125 0.890625 -0.78125 2.8125q0 1.953125 0.75 2.84375q0.75 0.875 1.953125 0.875q0.96875 0 1.609375 -0.59375q0.65625 -0.59375 0.828125 -1.828125zm8.734375 3.546875l-1.640625 0l0 -10.453125q-0.59375 0.5625 -1.5625 1.140625q-0.953125 0.5625 -1.71875 0.84375l0 -1.59375q1.375 -0.640625 2.40625 -1.5625q1.03125 -0.921875 1.453125 -1.78125l1.0625 0l0 13.40625zm4.3132324 -11.609375l0 -1.578125l8.640625 0l0 1.28125q-1.28125 1.359375 -2.53125 3.609375q-1.25 2.25 -1.9375 4.625q-0.484375 1.671875 -0.625 3.671875l-1.6875 0q0.03125 -1.578125 0.625 -3.8125q0.59375 -2.234375 1.6875 -4.296875q1.109375 -2.078125 2.359375 -3.5l-6.53125 0zm14.156921 9.453125l0 -3.671875l-3.640625 0l0 -1.515625l3.640625 0l0 -3.640625l1.546875 0l0 3.640625l3.640625 0l0 1.515625l-3.640625 0l0 3.671875l-1.546875 0z" fill-rule="nonzero"/><path fill="#ffffff" d="m135.79002 59.50525l0 0c0 -11.602329 15.694717 -21.007874 35.055115 -21.007874l0 0c19.360413 0 35.05513 9.405544 35.05513 21.007874l0 0c0 11.602325 -15.694717 21.007874 -35.05513 21.007874l0 0c-19.360397 0 -35.055115 -9.405548 -35.055115 -21.007874z" fill-rule="evenodd"/><path stroke="#000000" stroke-width="1.0" stroke-linejoin="round" stroke-linecap="butt" d="m135.79002 59.50525l0 0c0 -11.602329 15.694717 -21.007874 35.055115 -21.007874l0 0c19.360413 0 35.05513 9.405544 35.05513 21.007874l0 0c0 11.602325 -15.694717 21.007874 -35.05513 21.007874l0 0c-19.360397 0 -35.055115 -9.405548 -35.055115 -21.007874z" fill-rule="evenodd"/><path fill="#ffffff" d="m391.10498 59.50525l0 0c0 -11.602329 15.694702 -21.007874 35.055115 -21.007874l0 0c19.360413 0 35.055115 9.405544 35.055115 21.007874l0 0c0 11.602325 -15.694702 21.007874 -35.055115 21.007874l0 0c-19.360413 0 -35.055115 -9.405548 -35.055115 -21.007874z" fill-rule="evenodd"/><path stroke="#000000" stroke-width="1.0" stroke-linejoin="round" stroke-linecap="butt" d="m391.10498 59.50525l0 0c0 -11.602329 15.694702 -21.007874 35.055115 -21.007874l0 0c19.360413 0 35.055115 9.405544 35.055115 21.007874l0 0c0 11.602325 -15.694702 21.007874 -35.055115 21.007874l0 0c-19.360413 0 -35.055115 -9.405548 -35.055115 -21.007874z" fill-rule="evenodd"/><path fill="#ffffff" d="m649.3333 59.50525l0 0c0 -11.602329 15.694702 -21.007874 35.055115 -21.007874l0 0c19.360413 0 35.055115 9.405544 35.055115 21.007874l0 0c0 11.602325 -15.694702 21.007874 -35.055115 21.007874l0 0c-19.360413 0 -35.055115 -9.405548 -35.055115 -21.007874z" fill-rule="evenodd"/><path stroke="#000000" stroke-width="1.0" stroke-linejoin="round" stroke-linecap="butt" d="m649.3333 59.50525l0 0c0 -11.602329 15.694702 -21.007874 35.055115 -21.007874l0 0c19.360413 0 35.055115 9.405544 35.055115 21.007874l0 0c0 11.602325 -15.694702 21.007874 -35.055115 21.007874l0 0c-19.360413 0 -35.055115 -9.405548 -35.055115 -21.007874z" fill-rule="evenodd"/><path fill="#bf9000" d="m139.99455 63.53702l-18.867401 -5.3064537l2.3323364 -8.288193c9.433701 2.6532288 10.322357 -0.5047226 19.251144 3.9427948z" fill-rule="evenodd"/><path stroke="#000000" stroke-width="1.0" stroke-linejoin="round" stroke-linecap="butt" d="m139.99455 63.53702l-18.867401 -5.3064537l2.3323364 -8.288193c9.433701 2.6532288 10.322357 -0.5047226 19.251144 3.9427948z" fill-rule="evenodd"/><path fill="#bf9000" d="m139.99455 71.537025l-18.867401 -5.3064575l2.3323364 -8.288193c9.433701 2.6532288 10.322357 -0.5047226 19.251144 3.9427948z" fill-rule="evenodd"/><path stroke="#000000" stroke-width="1.0" stroke-linejoin="round" stroke-linecap="butt" d="m139.99455 71.537025l-18.867401 -5.3064575l2.3323364 -8.288193c9.433701 2.6532288 10.322357 -0.5047226 19.251144 3.9427948z" fill-rule="evenodd"/><path fill="#bf9000" d="m221.00768 63.62364l-18.867401 -5.3064575l2.3323364 -8.288193c9.433701 2.6532288 10.322357 -0.5047226 19.251144 3.9427986z" fill-rule="evenodd"/><path stroke="#000000" stroke-width="1.0" stroke-linejoin="round" stroke-linecap="butt" d="m221.00768 63.62364l-18.867401 -5.3064575l2.3323364 -8.288193c9.433701 2.6532288 10.322357 -0.5047226 19.251144 3.9427986z" fill-rule="evenodd"/><path fill="#bf9000" d="m221.00768 71.623634l-18.867401 -5.3064575l2.3323364 -8.288189c9.433701 2.6532288 10.322357 -0.5047226 19.251144 3.9427986z" fill-rule="evenodd"/><path stroke="#000000" stroke-width="1.0" stroke-linejoin="round" stroke-linecap="butt" d="m221.00768 71.623634l-18.867401 -5.3064575l2.3323364 -8.288189c9.433701 2.6532288 10.322357 -0.5047226 19.251144 3.9427986z" fill-rule="evenodd"/><path fill="#bf9000" d="m394.20322 58.85723l-18.867401 -5.3064537l2.3323364 -8.288193c9.433685 2.6532288 10.322357 -0.5047226 19.25113 3.9427948z" fill-rule="evenodd"/><path stroke="#000000" stroke-width="1.0" stroke-linejoin="round" stroke-linecap="butt" d="m394.20322 58.85723l-18.867401 -5.3064537l2.3323364 -8.288193c9.433685 2.6532288 10.322357 -0.5047226 19.25113 3.9427948z" fill-rule="evenodd"/><path fill="#bf9000" d="m394.20322 66.85723l-18.867401 -5.3064537l2.3323364 -8.288193c9.433685 2.6532288 10.322357 -0.5047226 19.25113 3.9427948z" fill-rule="evenodd"/><path stroke="#000000" stroke-width="1.0" stroke-linejoin="round" stroke-linecap="butt" d="m394.20322 66.85723l-18.867401 -5.3064537l2.3323364 -8.288193c9.433685 2.6532288 10.322357 -0.5047226 19.25113 3.9427948z" fill-rule="evenodd"/><path fill="#bf9000" d="m477.07855 58.85723l-18.867401 -5.3064537l2.3323364 -8.288193c9.433685 2.6532288 10.322357 -0.5047226 19.25113 3.9427948z" fill-rule="evenodd"/><path stroke="#000000" stroke-width="1.0" stroke-linejoin="round" stroke-linecap="butt" d="m477.07855 58.85723l-18.867401 -5.3064537l2.3323364 -8.288193c9.433685 2.6532288 10.322357 -0.5047226 19.25113 3.9427948z" fill-rule="evenodd"/><path fill="#bf9000" d="m477.07855 66.85723l-18.867401 -5.3064537l2.3323364 -8.288193c9.433685 2.6532288 10.322357 -0.5047226 19.25113 3.9427948z" fill-rule="evenodd"/><path stroke="#000000" stroke-width="1.0" stroke-linejoin="round" stroke-linecap="butt" d="m477.07855 66.85723l-18.867401 -5.3064537l2.3323364 -8.288193c9.433685 2.6532288 10.322357 -0.5047226 19.25113 3.9427948z" fill-rule="evenodd"/><path fill="#bf9000" d="m736.2859 63.027836l-18.86737 -5.3064575l2.3323364 -8.288189c9.433655 2.6532288 10.322327 -0.5047264 19.251099 3.9427948z" fill-rule="evenodd"/><path stroke="#000000" stroke-width="1.0" stroke-linejoin="round" stroke-linecap="butt" d="m736.2859 63.027836l-18.86737 -5.3064575l2.3323364 -8.288189c9.433655 2.6532288 10.322327 -0.5047264 19.251099 3.9427948z" fill-rule="evenodd"/><path fill="#bf9000" d="m736.2859 71.02784l-18.86737 -5.3064575l2.3323364 -8.288193c9.433655 2.6532288 10.322327 -0.5047264 19.251099 3.9427948z" fill-rule="evenodd"/><path stroke="#000000" stroke-width="1.0" stroke-linejoin="round" stroke-linecap="butt" d="m736.2859 71.02784l-18.86737 -5.3064575l2.3323364 -8.288193c9.433655 2.6532288 10.322327 -0.5047264 19.251099 3.9427948z" fill-rule="evenodd"/><path fill="#bf9000" d="m647.27277 58.85723l-18.86737 -5.3064537l2.3323364 -8.288193c9.433655 2.6532288 10.322327 -0.5047226 19.251099 3.9427948z" fill-rule="evenodd"/><path stroke="#000000" stroke-width="1.0" stroke-linejoin="round" stroke-linecap="butt" d="m647.27277 58.85723l-18.86737 -5.3064537l2.3323364 -8.288193c9.433655 2.6532288 10.322327 -0.5047226 19.251099 3.9427948z" fill-rule="evenodd"/><path fill="#bf9000" d="m647.27277 66.85723l-18.86737 -5.3064537l2.3323364 -8.288193c9.433655 2.6532288 10.322327 -0.5047226 19.251099 3.9427948z" fill-rule="evenodd"/><path stroke="#000000" stroke-width="1.0" stroke-linejoin="round" stroke-linecap="butt" d="m647.27277 66.85723l-18.86737 -5.3064537l2.3323364 -8.288193c9.433655 2.6532288 10.322327 -0.5047226 19.251099 3.9427948z" fill-rule="evenodd"/><path fill="#000000" fill-opacity="0.0" d="m222.67587 56.815445l151.65353 0.44094467" fill-rule="evenodd"/><path stroke="#000000" stroke-width="4.0" stroke-linejoin="round" stroke-linecap="butt" d="m222.67587 56.815445l151.65353 0.44094467" fill-rule="evenodd"/><path fill="#000000" fill-opacity="0.0" d="m31.89239 57.083164l88.34646 -0.09449005" fill-rule="evenodd"/><path stroke="#000000" stroke-width="4.0" stroke-linejoin="round" stroke-linecap="butt" d="m31.89239 57.083164l88.34646 -0.09449005" fill-rule="evenodd"/><path fill="#000000" fill-opacity="0.0" d="m739.2021 57.083164l88.3465 -0.09449005" fill-rule="evenodd"/><path stroke="#000000" stroke-width="4.0" stroke-linejoin="round" stroke-linecap="butt" d="m739.2021 57.083164l88.3465 -0.09449005" fill-rule="evenodd"/><path fill="#000000" fill-opacity="0.0" d="m855.626 38.795277l88.346436 0l0 42.015743l-88.346436 0z" fill-rule="evenodd"/><path fill="#000000" d="m872.17285 62.1684l1.609375 0.21875q-0.265625 1.6562462 -1.359375 2.6093712q-1.078125 0.9375 -2.671875 0.9375q-1.984375 0 -3.1875 -1.296875q-1.203125 -1.2968712 -1.203125 -3.7187462q0 -1.578125 0.515625 -2.75q0.515625 -1.171875 1.578125 -1.75q1.0625 -0.59375 2.3125 -0.59375q1.578125 0 2.578125 0.796875q1.0 0.796875 1.28125 2.265625l-1.59375 0.234375q-0.234375 -0.96875 -0.8125 -1.453125q-0.578125 -0.5 -1.390625 -0.5q-1.234375 0 -2.015625 0.890625q-0.78125 0.890625 -0.78125 2.8125q0 1.953125 0.75 2.84375q0.75 0.8749962 1.953125 0.8749962q0.96875 0 1.609375 -0.5937462q0.65625 -0.59375 0.828125 -1.828125zm9.28125 3.5468712l0 -1.21875q-0.90625 1.4375 -2.703125 1.4375q-1.15625 0 -2.125 -0.640625q-0.96875 -0.640625 -1.5 -1.7812462q-0.53125 -1.140625 -0.53125 -2.625q0 -1.453125 0.484375 -2.625q0.484375 -1.1875 1.4375 -1.8125q0.96875 -0.625 2.171875 -0.625q0.875 0 1.546875 0.375q0.6875 0.359375 1.109375 0.953125l0 -4.796875l1.640625 0l0 13.359371l-1.53125 0zm-5.171875 -4.828121q0 1.859375 0.78125 2.78125q0.78125 0.9218712 1.84375 0.9218712q1.078125 0 1.828125 -0.8749962q0.75 -0.890625 0.75 -2.6875q0 -1.984375 -0.765625 -2.90625q-0.765625 -0.9375 -1.890625 -0.9375q-1.078125 0 -1.8125 0.890625q-0.734375 0.890625 -0.734375 2.8125zm15.594482 1.28125l1.609375 0.21875q-0.265625 1.6562462 -1.359375 2.6093712q-1.078125 0.9375 -2.671875 0.9375q-1.984375 0 -3.1875 -1.296875q-1.203125 -1.2968712 -1.203125 -3.7187462q0 -1.578125 0.515625 -2.75q0.515625 -1.171875 1.578125 -1.75q1.0625 -0.59375 2.3125 -0.59375q1.578125 0 2.578125 0.796875q1.0 0.796875 1.28125 2.265625l-1.59375 0.234375q-0.234375 -0.96875 -0.8125 -1.453125q-0.578125 -0.5 -1.390625 -0.5q-1.234375 0 -2.015625 0.890625q-0.78125 0.890625 -0.78125 2.8125q0 1.953125 0.75 2.84375q0.75 0.8749962 1.953125 0.8749962q0.96875 0 1.609375 -0.5937462q0.65625 -0.59375 0.828125 -1.828125zm8.734375 3.5468712l-1.640625 0l0 -10.453121q-0.59375 0.5625 -1.5625 1.140625q-0.953125 0.5625 -1.71875 0.84375l0 -1.59375q1.375 -0.640625 2.40625 -1.5625q1.03125 -0.921875 1.453125 -1.78125l1.0625 0l0 13.406246zm4.3132324 -11.609371l0 -1.578125l8.640625 0l0 1.28125q-1.28125 1.359375 -2.53125 3.609375q-1.25 2.25 -1.9375 4.625q-0.484375 1.671875 -0.625 3.6718712l-1.6875 0q0.03125 -1.578125 0.625 -3.8124962q0.59375 -2.234375 1.6875 -4.296875q1.109375 -2.078125 2.359375 -3.5l-6.53125 0zm10.078796 7.59375l0 -1.640625l5.03125 0l0 1.640625l-5.03125 0z" fill-rule="nonzero"/><path fill="#000000" fill-opacity="0.0" d="m479.44623 56.815445l151.65356 0.44094467" fill-rule="evenodd"/><path stroke="#000000" stroke-width="4.0" stroke-linejoin="round" stroke-linecap="butt" d="m479.44623 56.815445l151.65356 0.44094467" fill-rule="evenodd"/><path fill="#ffffff" d="m143.42651 168.02463l0 0c0 -4.3226013 4.8719788 -7.826767 10.881882 -7.826767l0 0c6.009903 0 10.881897 3.5041656 10.881897 7.826767l0 0c0 4.3226166 -4.871994 7.826782 -10.881897 7.826782l0 0c-6.009903 0 -10.881882 -3.5041656 -10.881882 -7.826782z" fill-rule="evenodd"/><path stroke="#000000" stroke-width="1.0" stroke-linejoin="round" stroke-linecap="butt" d="m143.42651 168.02463l0 0c0 -4.3226013 4.8719788 -7.826767 10.881882 -7.826767l0 0c6.009903 0 10.881897 3.5041656 10.881897 7.826767l0 0c0 4.3226166 -4.871994 7.826782 -10.881897 7.826782l0 0c-6.009903 0 -10.881882 -3.5041656 -10.881882 -7.826782z" fill-rule="evenodd"/><path fill="#bf9000" d="m224.71109 171.84543l-18.867401 -5.3064575l2.3323364 -8.288193c9.433701 2.6532288 10.322357 -0.5047302 19.251144 3.9427948z" fill-rule="evenodd"/><path stroke="#000000" stroke-width="1.0" stroke-linejoin="round" stroke-linecap="butt" d="m224.71109 171.84543l-18.867401 -5.3064575l2.3323364 -8.288193c9.433701 2.6532288 10.322357 -0.5047302 19.251144 3.9427948z" fill-rule="evenodd"/><path fill="#bf9000" d="m224.71109 179.84543l-18.867401 -5.3064575l2.3323364 -8.288193c9.433701 2.6532288 10.322357 -0.5047302 19.251144 3.9427948z" fill-rule="evenodd"/><path stroke="#000000" stroke-width="1.0" stroke-linejoin="round" stroke-linecap="butt" d="m224.71109 179.84543l-18.867401 -5.3064575l2.3323364 -8.288193c9.433701 2.6532288 10.322357 -0.5047302 19.251144 3.9427948z" fill-rule="evenodd"/><path fill="#bf9000" d="m140.51817 171.84543l-18.867393 -5.3064575l2.3323288 -8.288193c9.433701 2.6532288 10.322357 -0.5047302 19.251144 3.9427948z" fill-rule="evenodd"/><path stroke="#000000" stroke-width="1.0" stroke-linejoin="round" stroke-linecap="butt" d="m140.51817 171.84543l-18.867393 -5.3064575l2.3323288 -8.288193c9.433701 2.6532288 10.322357 -0.5047302 19.251144 3.9427948z" fill-rule="evenodd"/><path fill="#bf9000" d="m140.51817 179.84543l-18.867393 -5.3064575l2.3323288 -8.288193c9.433701 2.6532288 10.322357 -0.5047302 19.251144 3.9427948z" fill-rule="evenodd"/><path stroke="#000000" stroke-width="1.0" stroke-linejoin="round" stroke-linecap="butt" d="m140.51817 179.84543l-18.867393 -5.3064575l2.3323288 -8.288193c9.433701 2.6532288 10.322357 -0.5047302 19.251144 3.9427948z" fill-rule="evenodd"/><path fill="#000000" fill-opacity="0.0" d="m175.03412 168.02463l0 0" fill-rule="evenodd"/><path stroke="#595959" stroke-width="1.0" stroke-linejoin="round" stroke-linecap="butt" d="m175.03412 168.02463l0 0" fill-rule="evenodd"/><path fill="#000000" fill-opacity="0.0" d="m187.54593 168.02463l-20.881882 0.25196838" fill-rule="evenodd"/><path stroke="#000000" stroke-width="4.0" stroke-linejoin="round" stroke-linecap="butt" d="m187.54593 168.02463l-20.881882 0.25196838" fill-rule="evenodd"/><path fill="#bf9000" d="m483.7006 171.84543l-18.867401 -5.3064575l2.3323364 -8.288193c9.433685 2.6532288 10.322357 -0.5047302 19.25113 3.9427948z" fill-rule="evenodd"/><path stroke="#000000" stroke-width="1.0" stroke-linejoin="round" stroke-linecap="butt" d="m483.7006 171.84543l-18.867401 -5.3064575l2.3323364 -8.288193c9.433685 2.6532288 10.322357 -0.5047302 19.25113 3.9427948z" fill-rule="evenodd"/><path fill="#bf9000" d="m483.7006 179.84543l-18.867401 -5.3064575l2.3323364 -8.288193c9.433685 2.6532288 10.322357 -0.5047302 19.25113 3.9427948z" fill-rule="evenodd"/><path stroke="#000000" stroke-width="1.0" stroke-linejoin="round" stroke-linecap="butt" d="m483.7006 179.84543l-18.867401 -5.3064575l2.3323364 -8.288193c9.433685 2.6532288 10.322357 -0.5047302 19.25113 3.9427948z" fill-rule="evenodd"/><path fill="#bf9000" d="m396.8397 171.84543l-18.867401 -5.3064575l2.3323364 -8.288193c9.433716 2.6532288 10.322357 -0.5047302 19.25116 3.9427948z" fill-rule="evenodd"/><path stroke="#000000" stroke-width="1.0" stroke-linejoin="round" stroke-linecap="butt" d="m396.8397 171.84543l-18.867401 -5.3064575l2.3323364 -8.288193c9.433716 2.6532288 10.322357 -0.5047302 19.25116 3.9427948z" fill-rule="evenodd"/><path fill="#bf9000" d="m396.8397 179.84543l-18.867401 -5.3064575l2.3323364 -8.288193c9.433716 2.6532288 10.322357 -0.5047302 19.25116 3.9427948z" fill-rule="evenodd"/><path stroke="#000000" stroke-width="1.0" stroke-linejoin="round" stroke-linecap="butt" d="m396.8397 179.84543l-18.867401 -5.3064575l2.3323364 -8.288193c9.433716 2.6532288 10.322357 -0.5047302 19.25116 3.9427948z" fill-rule="evenodd"/><path fill="#000000" fill-opacity="0.0" d="m434.02362 168.02463l0 0" fill-rule="evenodd"/><path stroke="#595959" stroke-width="1.0" stroke-linejoin="round" stroke-linecap="butt" d="m434.02362 168.02463l0 0" fill-rule="evenodd"/><path fill="#bf9000" d="m736.13104 171.84543l-18.867432 -5.3064575l2.3323364 -8.288193c9.433716 2.6532288 10.322388 -0.5047302 19.25116 3.9427948z" fill-rule="evenodd"/><path stroke="#000000" stroke-width="1.0" stroke-linejoin="round" stroke-linecap="butt" d="m736.13104 171.84543l-18.867432 -5.3064575l2.3323364 -8.288193c9.433716 2.6532288 10.322388 -0.5047302 19.25116 3.9427948z" fill-rule="evenodd"/><path fill="#bf9000" d="m736.13104 179.84543l-18.867432 -5.3064575l2.3323364 -8.288193c9.433716 2.6532288 10.322388 -0.5047302 19.25116 3.9427948z" fill-rule="evenodd"/><path stroke="#000000" stroke-width="1.0" stroke-linejoin="round" stroke-linecap="butt" d="m736.13104 179.84543l-18.867432 -5.3064575l2.3323364 -8.288193c9.433716 2.6532288 10.322388 -0.5047302 19.25116 3.9427948z" fill-rule="evenodd"/><path fill="#bf9000" d="m649.27014 171.84543l-18.86737 -5.3064575l2.3323364 -8.288193c9.433655 2.6532288 10.322327 -0.5047302 19.251099 3.9427948z" fill-rule="evenodd"/><path stroke="#000000" stroke-width="1.0" stroke-linejoin="round" stroke-linecap="butt" d="m649.27014 171.84543l-18.86737 -5.3064575l2.3323364 -8.288193c9.433655 2.6532288 10.322327 -0.5047302 19.251099 3.9427948z" fill-rule="evenodd"/><path fill="#bf9000" d="m649.27014 179.84543l-18.86737 -5.3064575l2.3323364 -8.288193c9.433655 2.6532288 10.322327 -0.5047302 19.251099 3.9427948z" fill-rule="evenodd"/><path stroke="#000000" stroke-width="1.0" stroke-linejoin="round" stroke-linecap="butt" d="m649.27014 179.84543l-18.86737 -5.3064575l2.3323364 -8.288193c9.433655 2.6532288 10.322327 -0.5047302 19.251099 3.9427948z" fill-rule="evenodd"/><path fill="#000000" fill-opacity="0.0" d="m686.45404 168.02463l0 0" fill-rule="evenodd"/><path stroke="#595959" stroke-width="1.0" stroke-linejoin="round" stroke-linecap="butt" d="m686.45404 168.02463l0 0" fill-rule="evenodd"/><path fill="#ffffff" d="m187.54593 168.02463l0 0c0 -4.3226013 4.871994 -7.826767 10.881897 -7.826767l0 0c6.009903 0 10.881882 3.5041656 10.881882 7.826767l0 0c0 4.3226166 -4.8719788 7.826782 -10.881882 7.826782l0 0c-6.009903 0 -10.881897 -3.5041656 -10.881897 -7.826782z" fill-rule="evenodd"/><path stroke="#000000" stroke-width="1.0" stroke-linejoin="round" stroke-linecap="butt" d="m187.54593 168.02463l0 0c0 -4.3226013 4.871994 -7.826767 10.881897 -7.826767l0 0c6.009903 0 10.881882 3.5041656 10.881882 7.826767l0 0c0 4.3226166 -4.8719788 7.826782 -10.881882 7.826782l0 0c-6.009903 0 -10.881897 -3.5041656 -10.881897 -7.826782z" fill-rule="evenodd"/><path fill="#ffffff" d="m399.83597 168.02463l0 0c0 -4.3226013 4.8719788 -7.826767 10.881866 -7.826767l0 0c6.009918 0 10.881897 3.5041656 10.881897 7.826767l0 0c0 4.3226166 -4.8719788 7.826782 -10.881897 7.826782l0 0c-6.0098877 0 -10.881866 -3.5041656 -10.881866 -7.826782z" fill-rule="evenodd"/><path stroke="#000000" stroke-width="1.0" stroke-linejoin="round" stroke-linecap="butt" d="m399.83597 168.02463l0 0c0 -4.3226013 4.8719788 -7.826767 10.881866 -7.826767l0 0c6.009918 0 10.881897 3.5041656 10.881897 7.826767l0 0c0 4.3226166 -4.8719788 7.826782 -10.881897 7.826782l0 0c-6.0098877 0 -10.881866 -3.5041656 -10.881866 -7.826782z" fill-rule="evenodd"/><path fill="#ffffff" d="m446.54593 168.02463l0 0c0 -4.3226013 4.8719788 -7.826767 10.881897 -7.826767l0 0c6.0098877 0 10.881897 3.5041656 10.881897 7.826767l0 0c0 4.3226166 -4.8720093 7.826782 -10.881897 7.826782l0 0c-6.009918 0 -10.881897 -3.5041656 -10.881897 -7.826782z" fill-rule="evenodd"/><path stroke="#000000" stroke-width="1.0" stroke-linejoin="round" stroke-linecap="butt" d="m446.54593 168.02463l0 0c0 -4.3226013 4.8719788 -7.826767 10.881897 -7.826767l0 0c6.0098877 0 10.881897 3.5041656 10.881897 7.826767l0 0c0 4.3226166 -4.8720093 7.826782 -10.881897 7.826782l0 0c-6.009918 0 -10.881897 -3.5041656 -10.881897 -7.826782z" fill-rule="evenodd"/><path fill="#ffffff" d="m652.5591 168.02463l0 0c0 -4.3226013 4.8719482 -7.826767 10.881836 -7.826767l0 0c6.0099487 0 10.881897 3.5041656 10.881897 7.826767l0 0c0 4.3226166 -4.8719482 7.826782 -10.881897 7.826782l0 0c-6.0098877 0 -10.881836 -3.5041656 -10.881836 -7.826782z" fill-rule="evenodd"/><path stroke="#000000" stroke-width="1.0" stroke-linejoin="round" stroke-linecap="butt" d="m652.5591 168.02463l0 0c0 -4.3226013 4.8719482 -7.826767 10.881836 -7.826767l0 0c6.0099487 0 10.881897 3.5041656 10.881897 7.826767l0 0c0 4.3226166 -4.8719482 7.826782 -10.881897 7.826782l0 0c-6.0098877 0 -10.881836 -3.5041656 -10.881836 -7.826782z" fill-rule="evenodd"/><path fill="#ffffff" d="m698.9764 168.02463l0 0c0 -4.3226013 4.8720093 -7.826767 10.881897 -7.826767l0 0c6.0098877 0 10.881897 3.5041656 10.881897 7.826767l0 0c0 4.3226166 -4.8720093 7.826782 -10.881897 7.826782l0 0c-6.0098877 0 -10.881897 -3.5041656 -10.881897 -7.826782z" fill-rule="evenodd"/><path stroke="#000000" stroke-width="1.0" stroke-linejoin="round" stroke-linecap="butt" d="m698.9764 168.02463l0 0c0 -4.3226013 4.8720093 -7.826767 10.881897 -7.826767l0 0c6.0098877 0 10.881897 3.5041656 10.881897 7.826767l0 0c0 4.3226166 -4.8720093 7.826782 -10.881897 7.826782l0 0c-6.0098877 0 -10.881897 -3.5041656 -10.881897 -7.826782z" fill-rule="evenodd"/><path fill="#000000" fill-opacity="0.0" d="m442.73096 167.89865l-20.881866 0.25196838" fill-rule="evenodd"/><path stroke="#000000" stroke-width="4.0" stroke-linejoin="round" stroke-linecap="butt" d="m442.73096 167.89865l-20.881866 0.25196838" fill-rule="evenodd"/><path fill="#000000" fill-opacity="0.0" d="m695.16144 167.89865l-20.881897 0.25196838" fill-rule="evenodd"/><path stroke="#000000" stroke-width="4.0" stroke-linejoin="round" stroke-linecap="butt" d="m695.16144 167.89865l-20.881897 0.25196838" fill-rule="evenodd"/><path fill="#000000" fill-opacity="0.0" d="m737.97375 168.07188l88.346436 -0.09449768" fill-rule="evenodd"/><path stroke="#000000" stroke-width="4.0" stroke-linejoin="round" stroke-linecap="butt" d="m737.97375 168.07188l88.346436 -0.09449768" fill-rule="evenodd"/><path fill="#000000" fill-opacity="0.0" d="m31.829397 168.07188l88.34645 -0.09449768" fill-rule="evenodd"/><path stroke="#000000" stroke-width="4.0" stroke-linejoin="round" stroke-linecap="butt" d="m31.829397 168.07188l88.34645 -0.09449768" fill-rule="evenodd"/><path fill="#000000" fill-opacity="0.0" d="m855.626 146.67192l88.346436 0l0 42.015747l-88.346436 0z" fill-rule="evenodd"/><path fill="#000000" d="m872.17285 170.04504l1.609375 0.21875q-0.265625 1.65625 -1.359375 2.609375q-1.078125 0.9375 -2.671875 0.9375q-1.984375 0 -3.1875 -1.296875q-1.203125 -1.296875 -1.203125 -3.71875q0 -1.578125 0.515625 -2.75q0.515625 -1.171875 1.578125 -1.75q1.0625 -0.59375 2.3125 -0.59375q1.578125 0 2.578125 0.796875q1.0 0.796875 1.28125 2.265625l-1.59375 0.234375q-0.234375 -0.96875 -0.8125 -1.453125q-0.578125 -0.5 -1.390625 -0.5q-1.234375 0 -2.015625 0.890625q-0.78125 0.890625 -0.78125 2.8125q0 1.953125 0.75 2.84375q0.75 0.875 1.953125 0.875q0.96875 0 1.609375 -0.59375q0.65625 -0.59375 0.828125 -1.828125zm9.28125 3.546875l0 -1.21875q-0.90625 1.4375 -2.703125 1.4375q-1.15625 0 -2.125 -0.640625q-0.96875 -0.640625 -1.5 -1.78125q-0.53125 -1.140625 -0.53125 -2.625q0 -1.453125 0.484375 -2.625q0.484375 -1.1875 1.4375 -1.8125q0.96875 -0.625 2.171875 -0.625q0.875 0 1.546875 0.375q0.6875 0.359375 1.109375 0.953125l0 -4.796875l1.640625 0l0 13.359375l-1.53125 0zm-5.171875 -4.828125q0 1.859375 0.78125 2.78125q0.78125 0.921875 1.84375 0.921875q1.078125 0 1.828125 -0.875q0.75 -0.890625 0.75 -2.6875q0 -1.984375 -0.765625 -2.90625q-0.765625 -0.9375 -1.890625 -0.9375q-1.078125 0 -1.8125 0.890625q-0.734375 0.890625 -0.734375 2.8125zm15.594482 1.28125l1.609375 0.21875q-0.265625 1.65625 -1.359375 2.609375q-1.078125 0.9375 -2.671875 0.9375q-1.984375 0 -3.1875 -1.296875q-1.203125 -1.296875 -1.203125 -3.71875q0 -1.578125 0.515625 -2.75q0.515625 -1.171875 1.578125 -1.75q1.0625 -0.59375 2.3125 -0.59375q1.578125 0 2.578125 0.796875q1.0 0.796875 1.28125 2.265625l-1.59375 0.234375q-0.234375 -0.96875 -0.8125 -1.453125q-0.578125 -0.5 -1.390625 -0.5q-1.234375 0 -2.015625 0.890625q-0.78125 0.890625 -0.78125 2.8125q0 1.953125 0.75 2.84375q0.75 0.875 1.953125 0.875q0.96875 0 1.609375 -0.59375q0.65625 -0.59375 0.828125 -1.828125zm8.734375 3.546875l-1.640625 0l0 -10.453125q-0.59375 0.5625 -1.5625 1.140625q-0.953125 0.5625 -1.71875 0.84375l0 -1.59375q1.375 -0.640625 2.40625 -1.5625q1.03125 -0.921875 1.453125 -1.78125l1.0625 0l0 13.40625zm4.3132324 -11.609375l0 -1.578125l8.640625 0l0 1.28125q-1.28125 1.359375 -2.53125 3.609375q-1.25 2.25 -1.9375 4.625q-0.484375 1.671875 -0.625 3.671875l-1.6875 0q0.03125 -1.578125 0.625 -3.8125q0.59375 -2.234375 1.6875 -4.296875q1.109375 -2.078125 2.359375 -3.5l-6.53125 0zm10.078796 7.59375l0 -1.640625l5.03125 0l0 1.640625l-5.03125 0z" fill-rule="nonzero"/><path fill="#000000" fill-opacity="0.0" d="m225.81236 167.80417l151.65355 0.44093323" fill-rule="evenodd"/><path stroke="#000000" stroke-width="4.0" stroke-linejoin="round" stroke-linecap="butt" d="m225.81236 167.80417l151.65355 0.44093323" fill-rule="evenodd"/><path fill="#000000" fill-opacity="0.0" d="m489.10367 167.5522l138.80313 0.94487" fill-rule="evenodd"/><path stroke="#000000" stroke-width="4.0" stroke-linejoin="round" stroke-linecap="butt" d="m489.10367 167.5522l138.80313 0.94487" fill-rule="evenodd"/><path fill="#ffffff" d="m187.8412 272.9449l0 0c0 -11.602325 15.694717 -21.007874 35.05513 -21.007874l0 0c19.360397 0 35.055115 9.405548 35.055115 21.007874l0 0c0 11.602325 -15.694717 21.007874 -35.055115 21.007874l0 0c-19.360413 0 -35.05513 -9.405548 -35.05513 -21.007874z" fill-rule="evenodd"/><path stroke="#000000" stroke-width="4.0" stroke-linejoin="round" stroke-linecap="butt" d="m187.8412 272.9449l0 0c0 -11.602325 15.694717 -21.007874 35.05513 -21.007874l0 0c19.360397 0 35.055115 9.405548 35.055115 21.007874l0 0c0 11.602325 -15.694717 21.007874 -35.055115 21.007874l0 0c-19.360413 0 -35.05513 -9.405548 -35.05513 -21.007874z" fill-rule="evenodd"/><path fill="#ffffff" d="m94.814964 272.9449l0 0c0 -11.602325 15.69471 -21.007874 35.055107 -21.007874l0 0c19.360413 0 35.05513 9.405548 35.05513 21.007874l0 0c0 11.602325 -15.694717 21.007874 -35.05513 21.007874l0 0c-19.360397 0 -35.055107 -9.405548 -35.055107 -21.007874z" fill-rule="evenodd"/><path stroke="#000000" stroke-width="4.0" stroke-linejoin="round" stroke-linecap="butt" d="m94.814964 272.9449l0 0c0 -11.602325 15.69471 -21.007874 35.055107 -21.007874l0 0c19.360413 0 35.05513 9.405548 35.05513 21.007874l0 0c0 11.602325 -15.694717 21.007874 -35.05513 21.007874l0 0c-19.360397 0 -35.055107 -9.405548 -35.055107 -21.007874z" fill-rule="evenodd"/><path fill="#ffffff" d="m352.60892 272.9449l0 0c0 -11.602325 15.694733 -21.007874 35.055115 -21.007874l0 0c19.360413 0 35.055115 9.405548 35.055115 21.007874l0 0c0 11.602325 -15.694702 21.007874 -35.055115 21.007874l0 0c-19.360382 0 -35.055115 -9.405548 -35.055115 -21.007874z" fill-rule="evenodd"/><path stroke="#000000" stroke-width="4.0" stroke-linejoin="round" stroke-linecap="butt" d="m352.60892 272.9449l0 0c0 -11.602325 15.694733 -21.007874 35.055115 -21.007874l0 0c19.360413 0 35.055115 9.405548 35.055115 21.007874l0 0c0 11.602325 -15.694702 21.007874 -35.055115 21.007874l0 0c-19.360382 0 -35.055115 -9.405548 -35.055115 -21.007874z" fill-rule="evenodd"/><path fill="#ffffff" d="m446.40027 272.9449l0 0c0 -11.602325 15.694702 -21.007874 35.055115 -21.007874l0 0c19.360413 0 35.055115 9.405548 35.055115 21.007874l0 0c0 11.602325 -15.694702 21.007874 -35.055115 21.007874l0 0c-19.360413 0 -35.055115 -9.405548 -35.055115 -21.007874z" fill-rule="evenodd"/><path stroke="#000000" stroke-width="4.0" stroke-linejoin="round" stroke-linecap="butt" d="m446.40027 272.9449l0 0c0 -11.602325 15.694702 -21.007874 35.055115 -21.007874l0 0c19.360413 0 35.055115 9.405548 35.055115 21.007874l0 0c0 11.602325 -15.694702 21.007874 -35.055115 21.007874l0 0c-19.360413 0 -35.055115 -9.405548 -35.055115 -21.007874z" fill-rule="evenodd"/><path fill="#bf9000" d="m97.8502 276.76566l-18.867401 -5.3064575l2.3323364 -8.2881775c9.433701 2.6532288 10.322357 -0.5047302 19.251137 3.94281z" fill-rule="evenodd"/><path stroke="#000000" stroke-width="1.0" stroke-linejoin="round" stroke-linecap="butt" d="m97.8502 276.76566l-18.867401 -5.3064575l2.3323364 -8.2881775c9.433701 2.6532288 10.322357 -0.5047302 19.251137 3.94281z" fill-rule="evenodd"/><path fill="#bf9000" d="m97.8502 284.76566l-18.867401 -5.3064575l2.3323364 -8.2881775c9.433701 2.6532288 10.322357 -0.5047302 19.251137 3.94281z" fill-rule="evenodd"/><path stroke="#000000" stroke-width="1.0" stroke-linejoin="round" stroke-linecap="butt" d="m97.8502 284.76566l-18.867401 -5.3064575l2.3323364 -8.2881775c9.433701 2.6532288 10.322357 -0.5047302 19.251137 3.94281z" fill-rule="evenodd"/><path fill="#bf9000" d="m278.05756 276.76566l-18.867401 -5.3064575l2.3323364 -8.2881775c9.433685 2.6532288 10.322357 -0.5047302 19.25113 3.94281z" fill-rule="evenodd"/><path stroke="#000000" stroke-width="1.0" stroke-linejoin="round" stroke-linecap="butt" d="m278.05756 276.76566l-18.867401 -5.3064575l2.3323364 -8.2881775c9.433685 2.6532288 10.322357 -0.5047302 19.25113 3.94281z" fill-rule="evenodd"/><path fill="#bf9000" d="m278.05756 284.76566l-18.867401 -5.3064575l2.3323364 -8.2881775c9.433685 2.6532288 10.322357 -0.5047302 19.25113 3.94281z" fill-rule="evenodd"/><path stroke="#000000" stroke-width="1.0" stroke-linejoin="round" stroke-linecap="butt" d="m278.05756 284.76566l-18.867401 -5.3064575l2.3323364 -8.2881775c9.433685 2.6532288 10.322357 -0.5047302 19.25113 3.94281z" fill-rule="evenodd"/><path fill="#000000" fill-opacity="0.0" d="m280.86877 273.07086l60.31494 -0.25195312" fill-rule="evenodd"/><path stroke="#000000" stroke-width="4.0" stroke-linejoin="round" stroke-linecap="butt" d="m280.86877 273.07086l60.31494 -0.25195312" fill-rule="evenodd"/><path fill="#bf9000" d="m535.0628 276.76566l-18.867432 -5.3064575l2.3323364 -8.2881775c9.433716 2.6532288 10.322388 -0.5047302 19.25116 3.94281z" fill-rule="evenodd"/><path stroke="#000000" stroke-width="1.0" stroke-linejoin="round" stroke-linecap="butt" d="m535.0628 276.76566l-18.867432 -5.3064575l2.3323364 -8.2881775c9.433716 2.6532288 10.322388 -0.5047302 19.25116 3.94281z" fill-rule="evenodd"/><path fill="#bf9000" d="m535.0628 284.76566l-18.867432 -5.3064575l2.3323364 -8.2881775c9.433716 2.6532288 10.322388 -0.5047302 19.25116 3.94281z" fill-rule="evenodd"/><path stroke="#000000" stroke-width="1.0" stroke-linejoin="round" stroke-linecap="butt" d="m535.0628 284.76566l-18.867432 -5.3064575l2.3323364 -8.2881775c9.433716 2.6532288 10.322388 -0.5047302 19.25116 3.94281z" fill-rule="evenodd"/><path fill="#bf9000" d="m353.44995 276.76566l-18.867401 -5.3064575l2.332306 -8.2881775c9.433716 2.6532288 10.322388 -0.5047302 19.25116 3.94281z" fill-rule="evenodd"/><path stroke="#000000" stroke-width="1.0" stroke-linejoin="round" stroke-linecap="butt" d="m353.44995 276.76566l-18.867401 -5.3064575l2.332306 -8.2881775c9.433716 2.6532288 10.322388 -0.5047302 19.25116 3.94281z" fill-rule="evenodd"/><path fill="#bf9000" d="m353.44995 284.76566l-18.867401 -5.3064575l2.332306 -8.2881775c9.433716 2.6532288 10.322388 -0.5047302 19.25116 3.94281z" fill-rule="evenodd"/><path stroke="#000000" stroke-width="1.0" stroke-linejoin="round" stroke-linecap="butt" d="m353.44995 284.76566l-18.867401 -5.3064575l2.332306 -8.2881775c9.433716 2.6532288 10.322388 -0.5047302 19.25116 3.94281z" fill-rule="evenodd"/><path fill="#000000" fill-opacity="0.0" d="m187.54593 272.8189l-20.881882 0.25195312" fill-rule="evenodd"/><path stroke="#000000" stroke-width="4.0" stroke-linejoin="round" stroke-linecap="butt" d="m187.54593 272.8189l-20.881882 0.25195312" fill-rule="evenodd"/><path fill="#ffffff" d="m608.60895 272.9449l0 0c0 -11.602325 15.694702 -21.007874 35.055115 -21.007874l0 0c19.360413 0 35.055115 9.405548 35.055115 21.007874l0 0c0 11.602325 -15.694702 21.007874 -35.055115 21.007874l0 0c-19.360413 0 -35.055115 -9.405548 -35.055115 -21.007874z" fill-rule="evenodd"/><path stroke="#000000" stroke-width="4.0" stroke-linejoin="round" stroke-linecap="butt" d="m608.60895 272.9449l0 0c0 -11.602325 15.694702 -21.007874 35.055115 -21.007874l0 0c19.360413 0 35.055115 9.405548 35.055115 21.007874l0 0c0 11.602325 -15.694702 21.007874 -35.055115 21.007874l0 0c-19.360413 0 -35.055115 -9.405548 -35.055115 -21.007874z" fill-rule="evenodd"/><path fill="#ffffff" d="m702.40027 272.9449l0 0c0 -11.602325 15.694702 -21.007874 35.055115 -21.007874l0 0c19.360413 0 35.055115 9.405548 35.055115 21.007874l0 0c0 11.602325 -15.694702 21.007874 -35.055115 21.007874l0 0c-19.360413 0 -35.055115 -9.405548 -35.055115 -21.007874z" fill-rule="evenodd"/><path stroke="#000000" stroke-width="4.0" stroke-linejoin="round" stroke-linecap="butt" d="m702.40027 272.9449l0 0c0 -11.602325 15.694702 -21.007874 35.055115 -21.007874l0 0c19.360413 0 35.055115 9.405548 35.055115 21.007874l0 0c0 11.602325 -15.694702 21.007874 -35.055115 21.007874l0 0c-19.360413 0 -35.055115 -9.405548 -35.055115 -21.007874z" fill-rule="evenodd"/><path fill="#000000" fill-opacity="0.0" d="m445.0 272.8189l-20.881897 0.25195312" fill-rule="evenodd"/><path stroke="#000000" stroke-width="4.0" stroke-linejoin="round" stroke-linecap="butt" d="m445.0 272.8189l-20.881897 0.25195312" fill-rule="evenodd"/><path fill="#000000" fill-opacity="0.0" d="m701.0 272.8189l-20.881897 0.25195312" fill-rule="evenodd"/><path stroke="#000000" stroke-width="4.0" stroke-linejoin="round" stroke-linecap="butt" d="m701.0 272.8189l-20.881897 0.25195312" fill-rule="evenodd"/><path fill="#000000" fill-opacity="0.0" d="m855.626 253.91602l88.346436 0l0 42.015747l-88.346436 0z" fill-rule="evenodd"/><path fill="#000000" d="m872.17285 277.28912l1.609375 0.21875q-0.265625 1.65625 -1.359375 2.609375q-1.078125 0.9375 -2.671875 0.9375q-1.984375 0 -3.1875 -1.296875q-1.203125 -1.296875 -1.203125 -3.71875q0 -1.578125 0.515625 -2.75q0.515625 -1.171875 1.578125 -1.75q1.0625 -0.59375 2.3125 -0.59375q1.578125 0 2.578125 0.796875q1.0 0.796875 1.28125 2.265625l-1.59375 0.234375q-0.234375 -0.96875 -0.8125 -1.453125q-0.578125 -0.5 -1.390625 -0.5q-1.234375 0 -2.015625 0.890625q-0.78125 0.890625 -0.78125 2.8125q0 1.953125 0.75 2.84375q0.75 0.875 1.953125 0.875q0.96875 0 1.609375 -0.59375q0.65625 -0.59375 0.828125 -1.828125zm9.28125 3.546875l0 -1.21875q-0.90625 1.4375 -2.703125 1.4375q-1.15625 0 -2.125 -0.640625q-0.96875 -0.640625 -1.5 -1.78125q-0.53125 -1.140625 -0.53125 -2.625q0 -1.453125 0.484375 -2.625q0.484375 -1.1875 1.4375 -1.8125q0.96875 -0.625 2.171875 -0.625q0.875 0 1.546875 0.375q0.6875 0.359375 1.109375 0.953125l0 -4.796875l1.640625 0l0 13.359375l-1.53125 0zm-5.171875 -4.828125q0 1.859375 0.78125 2.78125q0.78125 0.921875 1.84375 0.921875q1.078125 0 1.828125 -0.875q0.75 -0.890625 0.75 -2.6875q0 -1.984375 -0.765625 -2.90625q-0.765625 -0.9375 -1.890625 -0.9375q-1.078125 0 -1.8125 0.890625q-0.734375 0.890625 -0.734375 2.8125zm15.594482 1.28125l1.609375 0.21875q-0.265625 1.65625 -1.359375 2.609375q-1.078125 0.9375 -2.671875 0.9375q-1.984375 0 -3.1875 -1.296875q-1.203125 -1.296875 -1.203125 -3.71875q0 -1.578125 0.515625 -2.75q0.515625 -1.171875 1.578125 -1.75q1.0625 -0.59375 2.3125 -0.59375q1.578125 0 2.578125 0.796875q1.0 0.796875 1.28125 2.265625l-1.59375 0.234375q-0.234375 -0.96875 -0.8125 -1.453125q-0.578125 -0.5 -1.390625 -0.5q-1.234375 0 -2.015625 0.890625q-0.78125 0.890625 -0.78125 2.8125q0 1.953125 0.75 2.84375q0.75 0.875 1.953125 0.875q0.96875 0 1.609375 -0.59375q0.65625 -0.59375 0.828125 -1.828125zm8.734375 3.546875l-1.640625 0l0 -10.453125q-0.59375 0.5625 -1.5625 1.140625q-0.953125 0.5625 -1.71875 0.84375l0 -1.59375q1.375 -0.640625 2.40625 -1.5625q1.03125 -0.921875 1.453125 -1.78125l1.0625 0l0 13.40625zm4.3132324 -11.609375l0 -1.578125l8.640625 0l0 1.28125q-1.28125 1.359375 -2.53125 3.609375q-1.25 2.25 -1.9375 4.625q-0.484375 1.671875 -0.625 3.671875l-1.6875 0q0.03125 -1.578125 0.625 -3.8125q0.59375 -2.234375 1.6875 -4.296875q1.109375 -2.078125 2.359375 -3.5l-6.53125 0zm14.156921 9.453125l0 -3.671875l-3.640625 0l0 -1.515625l3.640625 0l0 -3.640625l1.546875 0l0 3.640625l3.640625 0l0 1.515625l-3.640625 0l0 3.671875l-1.546875 0z" fill-rule="nonzero"/><path fill="#000000" fill-opacity="0.0" d="m34.53018 272.53543l42.3937 0.8189087" fill-rule="evenodd"/><path stroke="#000000" stroke-width="4.0" stroke-linejoin="round" stroke-linecap="butt" d="m34.53018 272.53543l42.3937 0.8189087" fill-rule="evenodd"/><path fill="#000000" fill-opacity="0.0" d="m796.1942 272.53543l42.393738 0.8189087" fill-rule="evenodd"/><path stroke="#000000" stroke-width="4.0" stroke-linejoin="round" stroke-linecap="butt" d="m796.1942 272.53543l42.393738 0.8189087" fill-rule="evenodd"/><path fill="#bf9000" d="m606.2951 276.76566l-18.867432 -5.3064575l2.3323364 -8.2881775c9.433716 2.6532288 10.322388 -0.5047302 19.25116 3.94281z" fill-rule="evenodd"/><path stroke="#000000" stroke-width="1.0" stroke-linejoin="round" stroke-linecap="butt" d="m606.2951 276.76566l-18.867432 -5.3064575l2.3323364 -8.2881775c9.433716 2.6532288 10.322388 -0.5047302 19.25116 3.94281z" fill-rule="evenodd"/><path fill="#bf9000" d="m606.2951 284.76566l-18.867432 -5.3064575l2.3323364 -8.2881775c9.433716 2.6532288 10.322388 -0.5047302 19.25116 3.94281z" fill-rule="evenodd"/><path stroke="#000000" stroke-width="1.0" stroke-linejoin="round" stroke-linecap="butt" d="m606.2951 284.76566l-18.867432 -5.3064575l2.3323364 -8.2881775c9.433716 2.6532288 10.322388 -0.5047302 19.25116 3.94281z" fill-rule="evenodd"/><path fill="#bf9000" d="m792.782 276.76566l-18.867432 -5.3064575l2.3323364 -8.2881775c9.433716 2.6532288 10.322388 -0.5047302 19.25116 3.94281z" fill-rule="evenodd"/><path stroke="#000000" stroke-width="1.0" stroke-linejoin="round" stroke-linecap="butt" d="m792.782 276.76566l-18.867432 -5.3064575l2.3323364 -8.2881775c9.433716 2.6532288 10.322388 -0.5047302 19.25116 3.94281z" fill-rule="evenodd"/><path fill="#bf9000" d="m792.782 284.76566l-18.867432 -5.3064575l2.3323364 -8.2881775c9.433716 2.6532288 10.322388 -0.5047302 19.25116 3.94281z" fill-rule="evenodd"/><path stroke="#000000" stroke-width="1.0" stroke-linejoin="round" stroke-linecap="butt" d="m792.782 284.76566l-18.867432 -5.3064575l2.3323364 -8.2881775c9.433716 2.6532288 10.322388 -0.5047302 19.25116 3.94281z" fill-rule="evenodd"/><path fill="#000000" fill-opacity="0.0" d="m532.4029 273.07086l60.31494 -0.25195312" fill-rule="evenodd"/><path stroke="#000000" stroke-width="4.0" stroke-linejoin="round" stroke-linecap="butt" d="m532.4029 273.07086l60.31494 -0.25195312" fill-rule="evenodd"/><path fill="#000000" fill-opacity="0.0" d="m292.1181 432.97507l149.85828 0l0 42.015747l-149.85828 0z" fill-rule="evenodd"/><path fill="#000000" fill-opacity="0.0" d="m43.76378 481.05774l882.04724 1.0708618" fill-rule="evenodd"/><path stroke="#000000" stroke-width="4.0" stroke-linejoin="round" stroke-linecap="butt" d="m43.76378 481.05774l882.04724 1.0708618" fill-rule="evenodd"/><path fill="#000000" fill-opacity="0.0" d="m43.76378 513.05774l882.04724 1.0708618" fill-rule="evenodd"/><path stroke="#000000" stroke-width="4.0" stroke-linejoin="round" stroke-linecap="butt" d="m43.76378 513.05774l882.04724 1.0708618" fill-rule="evenodd"/><path fill="#ffffff" d="m12.742783 337.98688l21.763779 0l0 72.75589l-21.763779 0z" fill-rule="evenodd"/><path stroke="#ffffff" stroke-width="1.0" stroke-linejoin="round" stroke-linecap="butt" d="m12.742783 337.98688l21.763779 0l0 72.75589l-21.763779 0z" fill-rule="evenodd"/><path fill="#ffffff" d="m838.58795 336.0761l21.763733 0l0 72.75592l-21.763733 0z" fill-rule="evenodd"/><path stroke="#ffffff" stroke-width="1.0" stroke-linejoin="round" stroke-linecap="butt" d="m838.58795 336.0761l21.763733 0l0 72.75592l-21.763733 0z" fill-rule="evenodd"/><path fill="#000000" fill-opacity="0.0" d="m399.4462 407.6824l69.00787 0l0 42.015747l-69.00787 0z" fill-rule="evenodd"/><path fill="#ffffff" d="m416.0087 429.69617l0 -2.25l5.8125 0l0 5.3125q-0.84375 0.828125 -2.453125 1.453125q-1.609375 0.625 -3.25 0.625q-2.09375 0 -3.65625 -0.875q-1.5625 -0.890625 -2.34375 -2.515625q-0.78125 -1.640625 -0.78125 -3.5625q0 -2.09375 0.875 -3.703125q0.875 -1.625 2.5625 -2.5q1.28125 -0.65625 3.203125 -0.65625q2.484375 0 3.875 1.046875q1.40625 1.03125 1.796875 2.875l-2.671875 0.5q-0.28125 -0.984375 -1.0625 -1.546875q-0.78125 -0.578125 -1.9375 -0.578125q-1.78125 0 -2.828125 1.125q-1.03125 1.125 -1.03125 3.328125q0 2.375 1.046875 3.5625q1.0625 1.1875 2.78125 1.1875q0.84375 0 1.6875 -0.328125q0.859375 -0.328125 1.46875 -0.8125l0 -1.6875l-3.09375 0zm16.386414 2.53125l0 2.375l-8.96875 0q0.140625 -1.34375 0.859375 -2.546875q0.734375 -1.21875 2.890625 -3.203125q1.734375 -1.625 2.125 -2.1875q0.53125 -0.796875 0.53125 -1.578125q0 -0.84375 -0.46875 -1.296875q-0.453125 -0.46875 -1.265625 -0.46875q-0.796875 0 -1.28125 0.484375q-0.46875 0.46875 -0.546875 1.59375l-2.546875 -0.25q0.234375 -2.109375 1.421875 -3.03125q1.203125 -0.921875 3.015625 -0.921875q1.96875 0 3.09375 1.0625q1.140625 1.0625 1.140625 2.65625q0 0.890625 -0.328125 1.71875q-0.3125 0.8125 -1.015625 1.703125q-0.46875 0.59375 -1.6875 1.703125q-1.203125 1.109375 -1.53125 1.484375q-0.3125 0.359375 -0.515625 0.703125l5.078125 0zm0.9069824 2.609375l3.3125 -13.8125l1.921875 0l-3.34375 13.8125l-1.890625 0zm6.5426636 -0.234375l0 -13.359375l4.03125 0l2.421875 9.109375l2.390625 -9.109375l4.046875 0l0 13.359375l-2.5 0l0 -10.515625l-2.65625 10.515625l-2.59375 0l-2.640625 -10.515625l0 10.515625l-2.5 0z" fill-rule="nonzero"/></g></svg>
